<svg id="PWA_from_Scratch" data-name="PWA from Scratch" xmlns="http://www.w3.org/2000/svg" width="60" height="44.204" viewBox="0 0 60 44.204">
  <g id="Group_1029" data-name="Group 1029" transform="translate(-40.955 -64.388)">
    <path id="Path_1885" data-name="Path 1885" d="M41.557,135.523a1.88,1.88,0,0,0,.3.226l5.178,3.192a1.9,1.9,0,0,0,1.022.281l51.032-.4a1.9,1.9,0,1,0-.056-3.79h0l-50.477.393-2.294-1.411,2.141-1.025,50.154-.11a1.894,1.894,0,0,0-.018-3.787l-50.759.112a1.9,1.9,0,0,0-1.1.357l-4.938,3.553c-.849.61-1.043,1.278-.433,2.127A1.91,1.91,0,0,0,41.557,135.523Z" transform="translate(0 -47.999)" fill="#0092ff"/>
    <g id="Group_1061" data-name="Group 1061" transform="translate(54.177 64.388)">
      <path id="Path_1509" data-name="Path 1509" d="M93.123,93.9a19.162,19.162,0,0,0,.862,1.8L92.68,97.006a1.76,1.76,0,0,0,0,2.489l0,0,5.226,5.23a1.813,1.813,0,0,0,2.493,0l1.308-1.309a19.159,19.159,0,0,0,3.76,1.558v1.855a1.764,1.764,0,0,0,1.761,1.761h7.4a1.763,1.763,0,0,0,1.761-1.761v-1.855a19.141,19.141,0,0,0,3.76-1.558l1.309,1.309a1.814,1.814,0,0,0,2.491,0l5.227-5.23a1.765,1.765,0,0,0,0-2.491L127.868,95.7a19.147,19.147,0,0,0,.84-1.743H124.8q-.294.545-.632,1.067a1.771,1.771,0,0,0,.233,2.2l1.029,1.029-2.736,2.738-1.03-1.03a1.773,1.773,0,0,0-2.2-.233,15.626,15.626,0,0,1-5.212,2.16,1.771,1.771,0,0,0-1.391,1.722v1.461h-3.872v-1.461a1.772,1.772,0,0,0-1.391-1.722,15.614,15.614,0,0,1-5.213-2.16,1.774,1.774,0,0,0-2.2.233l-1.03,1.03L96.42,98.252l1.027-1.03a1.77,1.77,0,0,0,.234-2.2q-.356-.549-.663-1.125Zm3.61-14.277a15.67,15.67,0,0,1,.946-1.68,1.77,1.77,0,0,0-.234-2.2l-1.02-1.02,2.738-2.736,1.018,1.02a1.774,1.774,0,0,0,2.2.233,15.606,15.606,0,0,1,5.212-2.16,1.77,1.77,0,0,0,1.391-1.722v-1.44h3.872v1.44a1.769,1.769,0,0,0,1.391,1.721,15.628,15.628,0,0,1,5.212,2.161,1.77,1.77,0,0,0,2.2-.233l1.02-1.02,2.738,2.736-1.02,1.02a1.771,1.771,0,0,0-.233,2.2,15.668,15.668,0,0,1,.909,1.6h3.855a19.116,19.116,0,0,0-1.059-2.288l1.3-1.3a1.761,1.761,0,0,0,0-2.49l0,0-5.23-5.226a1.747,1.747,0,0,0-1.244-.516h0a1.75,1.75,0,0,0-1.246.516l-1.3,1.3a19.151,19.151,0,0,0-3.76-1.558V66.149a1.763,1.763,0,0,0-1.761-1.761h-7.4a1.764,1.764,0,0,0-1.761,1.761v1.833a19.153,19.153,0,0,0-3.759,1.558l-1.3-1.3a1.764,1.764,0,0,0-2.491,0l-5.23,5.227a1.749,1.749,0,0,0-.516,1.246,1.774,1.774,0,0,0,.516,1.246l1.3,1.3a19.154,19.154,0,0,0-1.1,2.393" transform="translate(-92.164 -64.388)" fill="#0092ff"/>
      <path id="Path_1510" data-name="Path 1510" d="M132.664,126.526a11.3,11.3,0,0,0,15.566.13l-4.274-1.038a8.014,8.014,0,0,1-6.863.009Zm16.208-15.765a11.314,11.314,0,0,0-16.824.116l4.9.333a8.028,8.028,0,0,1,7.014-.059" transform="translate(-121.75 -96.05)" fill="#0092ff"/>
      <path id="Path_2507" data-name="Path 2507" d="M94.986,123.513" transform="translate(-94.257 -108.247)" fill="#0092ff"/>
      <path id="Path_2508" data-name="Path 2508" d="M98.827,123.4l-3.841.03Z" transform="translate(-94.257 -108.161)" fill="#0092ff"/>
    </g>
  </g>
</svg>
