<svg xmlns="http://www.w3.org/2000/svg" width="40.269" height="57.361" viewBox="0 0 40.269 57.361">
  <g id="PWA_from_Scratch" data-name="PWA from Scratch" transform="translate(0)">
    <path id="Path_1808" data-name="Path 1808" d="M503.295,1224.435H466.926a1.928,1.928,0,0,0-1.95,1.905v53.55a1.928,1.928,0,0,0,1.95,1.906h36.308a1.928,1.928,0,0,0,1.95-1.906v-53.08a1.845,1.845,0,0,0,.06-.47A1.928,1.928,0,0,0,503.295,1224.435Zm-2.01,3.811v38.788H468.876v-38.788Zm-32.408,49.739v-7.141h32.408v7.141Z" transform="translate(-464.976 -1224.435)" fill="#ffc603"/>
    <path id="Path_1809" data-name="Path 1809" d="M502.08,1313.537a2.335,2.335,0,0,0-.178-.327,2.053,2.053,0,0,0-.54-.528,2.415,2.415,0,0,0-.334-.174,2.037,2.037,0,0,0-.368-.109,1.969,1.969,0,0,0-.758,0,2.037,2.037,0,0,0-.368.109,2.413,2.413,0,0,0-.334.174,2.119,2.119,0,0,0-.3.24,2.014,2.014,0,0,0-.24.289,1.564,1.564,0,0,0-.178.327,1.676,1.676,0,0,0-.111.359,1.639,1.639,0,0,0-.039.37,1.722,1.722,0,0,0,.039.376,1.633,1.633,0,0,0,.111.354,1.558,1.558,0,0,0,.178.327,2.053,2.053,0,0,0,.24.294,2.1,2.1,0,0,0,.3.234,1.623,1.623,0,0,0,.334.174,1.687,1.687,0,0,0,.368.109,1.9,1.9,0,0,0,.758,0,1.687,1.687,0,0,0,.368-.109,1.623,1.623,0,0,0,.334-.174,2.044,2.044,0,0,0,.3-.234,2.094,2.094,0,0,0,.245-.294,2.322,2.322,0,0,0,.178-.327,2.011,2.011,0,0,0,.111-.354,2.149,2.149,0,0,0,.039-.376,2.034,2.034,0,0,0-.039-.37A2.064,2.064,0,0,0,502.08,1313.537Z" transform="translate(-479.745 -1264.493)" fill="#ffc603"/>
    <path id="Path_1810" data-name="Path 1810" d="M480.235,1254.062h7.087a1.928,1.928,0,0,0,1.95-1.906v-6.925a1.928,1.928,0,0,0-1.95-1.906h-7.087a1.928,1.928,0,0,0-1.95,1.906v6.925A1.928,1.928,0,0,0,480.235,1254.062Zm1.95-6.925h3.187v3.114h-3.187Z" transform="translate(-470.869 -1233.041)" fill="#ffc603"/>
    <path id="Path_1811" data-name="Path 1811" d="M505.235,1254.062h7.087a1.928,1.928,0,0,0,1.95-1.906v-6.925a1.928,1.928,0,0,0-1.95-1.906h-7.087a1.928,1.928,0,0,0-1.95,1.906v6.925A1.928,1.928,0,0,0,505.235,1254.062Zm1.95-6.925h3.187v3.114h-3.187Z" transform="translate(-481.939 -1233.041)" fill="#ffc603"/>
    <path id="Path_1812" data-name="Path 1812" d="M480.235,1280.062h7.087a1.928,1.928,0,0,0,1.95-1.906v-6.925a1.928,1.928,0,0,0-1.95-1.906h-7.087a1.928,1.928,0,0,0-1.95,1.906v6.925A1.928,1.928,0,0,0,480.235,1280.062Zm1.95-6.925h3.187v3.114h-3.187Z" transform="translate(-470.869 -1244.886)" fill="#ffc603"/>
    <path id="Path_1813" data-name="Path 1813" d="M505.235,1280.062h7.087a1.928,1.928,0,0,0,1.95-1.906v-6.925a1.928,1.928,0,0,0-1.95-1.906h-7.087a1.928,1.928,0,0,0-1.95,1.906v6.925A1.928,1.928,0,0,0,505.235,1280.062Zm1.95-6.925h3.187v3.114h-3.187Z" transform="translate(-481.939 -1244.886)" fill="#ffc603"/>
  </g>
</svg>
