<svg id="PWA_from_Scratch" data-name="PWA from Scratch" xmlns="http://www.w3.org/2000/svg" width="55" height="50.388" viewBox="0 0 55 50.388">
  <g id="Quality_Assurance" data-name="Quality Assurance">
    <path id="Path_1880" data-name="Path 1880" d="M665.477,1424.132l-7.094-7.959v-20.39a1.893,1.893,0,0,0-3.787,0V1415H614.744v-25.032h12.821c.042,0,.082-.01.123-.012a12.624,12.624,0,0,0,.259,2.084A12.559,12.559,0,0,0,640.2,1402a12.668,12.668,0,0,0,2.621-.275h0a12.517,12.517,0,0,0,9.948-11.862,1.893,1.893,0,0,0-3.785-.123,8.738,8.738,0,0,1-6.947,8.28h0a8.762,8.762,0,1,1,2.347-16.285,1.893,1.893,0,0,0,1.8-3.332,12.544,12.544,0,0,0-18.093,7.865,1.871,1.871,0,0,0-.525-.083H612.85a1.893,1.893,0,0,0-1.893,1.893V1416.9a1.876,1.876,0,0,0,.034.335c.006.033.014.065.022.1a1.88,1.88,0,0,0,.073.234c.011.03.022.061.035.091a1.952,1.952,0,0,0,.154.284c.01.015.023.029.034.044a1.957,1.957,0,0,0,.128.167l7.574,8.5a1.893,1.893,0,0,0,1.414.633h43.639a1.893,1.893,0,0,0,1.414-3.153Zm-44.2-.634-4.2-4.71h38.566l4.2,4.71Z" transform="translate(-610.957 -1376.897)" fill="#fc7754"/>
    <path id="Path_1881" data-name="Path 1881" d="M657.248,1389.248a1.894,1.894,0,1,0-2.718,2.638l3.621,3.729a1.894,1.894,0,0,0,2.554.15l12.889-10.494a1.894,1.894,0,0,0-2.391-2.937l-11.544,9.4Z" transform="translate(-630.712 -1379.197)" fill="#fc7754"/>
  </g>
</svg>
