<svg id="PWA_from_Scratch" data-name="PWA from Scratch" xmlns="http://www.w3.org/2000/svg" width="60" height="60.087" viewBox="0 0 60 60.087">
  <g id="Group_1031" data-name="Group 1031" transform="translate(-13.759 -14.209)">
    <g id="Group_1030" data-name="Group 1030" transform="translate(13.759 14.209)">
      <path id="Path_2509" data-name="Path 2509" d="M73.759,72.9V43.944a1.4,1.4,0,0,0-1.4-1.4H45.514V15.61a1.4,1.4,0,0,0-1.4-1.4H15.16a1.4,1.4,0,0,0-1.4,1.4v47.7a1.4,1.4,0,0,0,1.4,1.4h8.1v2.859a6.737,6.737,0,0,0,6.73,6.728H72.358A1.4,1.4,0,0,0,73.759,72.9ZM63.617,46.713V70.36H35.839V46.713ZM24.66,42.543a1.4,1.4,0,0,0-1.4,1.4v7h-5.6V24.827H41.585V42.543ZM41.585,17.815v3.66H17.659v-3.66ZM17.659,60.386V54.929h5.6v5.457ZM27.4,67.568V46.713h5.639V70.36H29.988C27.822,70.36,27.4,69.731,27.4,67.568ZM69.44,70.36H67.026V46.713H69.44Z" transform="translate(-13.759 -14.209)" fill="#fc7754"/>
      <path id="Path_2510" data-name="Path 2510" d="M81.181,208.172a1.45,1.45,0,0,0-1.982,0,1.4,1.4,0,1,0,1.982,0Z" transform="translate(-64.401 -164.953)" fill="#fc7754"/>
      <path id="Path_2511" data-name="Path 2511" d="M179.53,66.067a1.4,1.4,0,0,0,.042,1.982l3.349,3.212a1.409,1.409,0,0,0,.97.39h.03a1.411,1.411,0,0,0,.982-.432l3.209-3.348a1.4,1.4,0,1,0-2.023-1.939l-.766.8a12.872,12.872,0,0,0-3.684-8.582,13.386,13.386,0,0,0-10.6-3.472,1.4,1.4,0,0,0,.315,2.786,10.516,10.516,0,0,1,8.331,2.69,10.112,10.112,0,0,1,2.85,6.85l-1.018-.977A1.4,1.4,0,0,0,179.53,66.067Z" transform="translate(-135.269 -45.662)" fill="#fc7754"/>
      <path id="Path_2512" data-name="Path 2512" d="M144.165,190.234a9.06,9.06,0,0,0,7.508-14.163l2.255-2.438a1.4,1.4,0,0,0-2.059-1.9l-7.695,8.321-1.427-1.567a1.4,1.4,0,1,0-2.071,1.888l2.455,2.7a1.4,1.4,0,0,0,1.03.457h.005a1.4,1.4,0,0,0,1.03-.45l4.5-4.871a6.222,6.222,0,0,1,.744,2.949,6.275,6.275,0,1,1-4.954-6.138,1.4,1.4,0,0,0,.588-2.741,9.081,9.081,0,1,0-1.912,17.958Z" transform="translate(-108.243 -136.529)" fill="#fc7754"/>
    </g>
  </g>
</svg>
