<svg id="PWA_from_Scratch" data-name="PWA from Scratch" xmlns="http://www.w3.org/2000/svg" width="43" height="53.038" viewBox="0 0 43 53.038">
  <g id="Mobile_application_security" data-name="Mobile application security" transform="translate(-587.482 -85.883)">
    <path id="Path_2276" data-name="Path 2276" d="M608.982,138.921a3.485,3.485,0,0,1-1.511-.346c-2.554-1.226-11.215-5.615-15.377-10.588a19.567,19.567,0,0,1-4.6-12.871V97.695a3.487,3.487,0,0,1,2.87-3.439c10.375-1.859,14.646-5.645,16-7.187a3.488,3.488,0,0,1,2.618-1.186h0a3.488,3.488,0,0,1,2.617,1.186c1.355,1.539,5.628,5.323,16,7.186a3.489,3.489,0,0,1,2.869,3.44v17.428a19.589,19.589,0,0,1-4.6,12.871c-4.162,4.967-12.822,9.355-15.377,10.582A3.472,3.472,0,0,1,608.982,138.921ZM592.134,98.645l-.006,16.7a14.871,14.871,0,0,0,3.523,9.66c3.377,4.035,10.888,7.938,13.331,9.144,2.445-1.206,9.955-5.108,13.331-9.137h0a14.885,14.885,0,0,0,3.524-9.664l-.006-.191V98.644c-9.432-1.853-14.408-5.248-16.848-7.606C606.544,93.4,601.57,96.795,592.134,98.645Z" transform="translate(0 0)" fill="#ffc603"/>
    <path id="Path_1829" data-name="Path 1829" d="M1424.7,1245.274a2.158,2.158,0,1,0-3.1,3.006l4.126,4.249a2.158,2.158,0,0,0,2.911.171l14.689-11.959a2.158,2.158,0,0,0-2.725-3.347L1427.45,1248.1Z" transform="translate(-823.649 -1132.531)" fill="#ffc603"/>
  </g>
</svg>
