<svg xmlns="http://www.w3.org/2000/svg" width="241.649" height="69.416" viewBox="0 0 241.649 69.416">
  <g id="Group_375" data-name="Group 375" transform="translate(-153.979 -265.292)">
    <path id="Path_1347" data-name="Path 1347" d="M291.029,334.708l-18.516-5.665a10.216,10.216,0,0,0-1.831-8.866,9.6,9.6,0,0,0-5.429-3.454c-3.644-.891-9.2.436-11.551,6.573l-18.137-5.548c.057-.267.09-.5.159-.727q7.33-23.859,14.679-47.713a1.415,1.415,0,0,1,.591-.8c2.178-1.08,4.38-2.112,6.686-3.212l3.99,6.77,7.116-3.369,3.991,6.763,7.11-3.367,3.987,6.757,7.111-3.36,3.992,6.756,7.125-3.364c1.3,2.213,2.57,4.348,3.793,6.511a1.381,1.381,0,0,1-.05.937q-5.925,19.425-11.873,38.843-1.321,4.32-2.632,8.644C291.26,334.075,291.16,334.331,291.029,334.708Zm-30.218-45.824v1.071q0,10.509,0,21.02c0,.249-.009.5,0,.748a2.087,2.087,0,0,0,1.932,2.027c1.459.146,2.388-.765,2.389-2.382q.009-10.676,0-21.352v-1.177c1.2,0,2.3.005,3.395,0a2.7,2.7,0,0,1,2.783,1.835,10.255,10.255,0,0,1,.622,3.222c.059,5.815.026,11.631.03,17.447a2.293,2.293,0,0,0,2.458,2.424c1.228.012,1.841-.739,1.882-2.306,0-.11,0-.221,0-.332,0-5.733.016-11.466-.016-17.2a11.123,11.123,0,0,0-.358-2.786c-.763-2.855-3.592-5.222-6.2-5.226q-8.973-.016-17.946.017c-1.51,0-2.109.616-2.11,2.12q0,8.558,0,17.115,0,3.324,0,6.647a1.727,1.727,0,0,0,1.175,1.813,1.592,1.592,0,0,0,1.295-.115,2.364,2.364,0,0,0,.486-1.283,4.742,4.742,0,0,0-.062-.9q-.008-10.8,0-21.6c0-.267.025-.534.041-.843ZM288.2,303.346c-.112-.29-.192-.46-.245-.638q-1.5-5.006-2.99-10.012c-.577-1.934-1.129-3.875-1.741-5.8a2.049,2.049,0,0,0-3.956,1.072,7.761,7.761,0,0,0,.221.8q3.164,10.566,6.315,21.137a2.437,2.437,0,0,1,.044,1.278c-.583,2.076-1.209,4.14-1.852,6.2a3.743,3.743,0,0,1-3.549,2.765,3.191,3.191,0,0,0-.733.1,1.981,1.981,0,0,0-1.323,2.225,1.944,1.944,0,0,0,1.973,1.761,7.771,7.771,0,0,0,7.607-5.682q4.584-15.119,9.081-30.263a2.077,2.077,0,1,0-3.954-1.176c-.627,2.064-1.242,4.131-1.865,6.195C290.234,296.616,289.233,299.922,288.2,303.346Z" fill="#d71a20"/>
    <path id="Path_1348" data-name="Path 1348" d="M381.566,296.169c-.833,3.317-1.606,6.4-2.38,9.478q-.779,3.1-1.557,6.193c-.318,1.254-.964,1.855-1.991,1.876-1.1.021-1.833-.606-2.158-1.9q-2.952-11.744-5.888-23.491a2.068,2.068,0,1,1,3.991-.968q1.885,7.436,3.756,14.875c.045.179.115.352.248.754.68-2.693,1.307-5.164,1.926-7.637.672-2.681,1.326-5.367,2.006-8.046a2.046,2.046,0,0,1,2.5-1.717,2.012,2.012,0,0,1,1.6,1.7q1.593,6.355,3.191,12.709l.705,2.81.136.018c.275-1.055.558-2.109.822-3.166q1.515-6.075,3.017-12.153a2.2,2.2,0,0,1,1.784-1.935c1.589-.263,2.678,1.057,2.26,2.749q-1.213,4.911-2.444,9.818-1.711,6.838-3.433,13.674c-.329,1.311-.959,1.9-2.041,1.9s-1.8-.647-2.127-1.946q-1.838-7.362-3.675-14.725C381.765,296.833,381.7,296.624,381.566,296.169Z" fill="#5c5c5c"/>
    <path id="Path_1349" data-name="Path 1349" d="M221.995,296.65,226.8,291.4c1.513-1.654,3-3.334,4.554-4.949a3.632,3.632,0,0,1,1.522-.906,2.044,2.044,0,0,1,2.357.961,2.138,2.138,0,0,1-.326,2.535q-3.263,3.656-6.537,7.3c-.184.2-.362.416-.578.665l4.934,9.014c.8,1.456,1.6,2.91,2.385,4.369a2.085,2.085,0,0,1-.712,3.073,2.269,2.269,0,0,1-3.107-1.023q-3.1-5.586-6.191-11.178c-.146-.263-.3-.522-.5-.875-.909.916-1.79,1.771-2.623,2.67a1.272,1.272,0,0,0-.155.779c-.01,2.6,0,5.207-.007,7.811,0,1.337-.661,2.086-1.814,2.081a2.211,2.211,0,0,1-2.364-2.151q-.009-18.072,0-36.144a1.753,1.753,0,0,1,.96-1.791,2.572,2.572,0,0,1,2.543-.017,2.187,2.187,0,0,1,.626,1.111,3.177,3.177,0,0,1,.052.989q0,9.971,0,19.941v.9Z" fill="#5c5c5c"/>
    <path id="Path_1350" data-name="Path 1350" d="M329.952,286.081c1.621,0,3.116.071,4.6-.014a7.584,7.584,0,0,1,7.386,6.479,14.72,14.72,0,0,1,.138,2.067q.016,8.141.006,16.281a8.654,8.654,0,0,1-.025.912,2.3,2.3,0,0,1-3.38,1.831,1.6,1.6,0,0,1-.674-.881,4.886,4.886,0,0,1-.18-1.471c-.011-5.787.034-11.575-.047-17.361a7.1,7.1,0,0,0-.873-2.961,3.1,3.1,0,0,0-2.936-1.7c-1.3.005-2.593,0-4.017,0v1.048q0,10.383,0,20.767a6.1,6.1,0,0,1-.071,1.073c-.216,1.191-1.028,1.734-2.463,1.679-1.085-.042-1.52-.486-1.687-1.752a7.089,7.089,0,0,1-.041-.911q0-17.485,0-34.971a6.582,6.582,0,0,1,.039-.911,2.324,2.324,0,0,1,3.407-1.662,1.763,1.763,0,0,1,.649.907,4.171,4.171,0,0,1,.164,1.308c.012,3.073.006,6.147.006,9.22Z" fill="#5c5c5c"/>
    <path id="Path_1351" data-name="Path 1351" d="M158.219,285.97c1.305,0,2.489,0,3.674,0a7.6,7.6,0,0,1,7.616,7.5q.07,6.1,0,12.209a8.18,8.18,0,0,1-8.783,8.155c-1.464-.065-2.929-.1-4.394-.139a2.226,2.226,0,0,1-2.35-2.337q-.01-17.814,0-35.629c0-1.346.429-2,1.393-2.256,1.991-.523,2.832.115,2.839,2.183.01,3.073,0,6.146,0,9.219Zm.067,3.3V310.44c1.084,0,2.1.024,3.121-.006a4.207,4.207,0,0,0,3.119-1.508,6.185,6.185,0,0,0,1.571-4.1c.047-3.374.025-6.748.011-10.122a6.951,6.951,0,0,0-.184-1.477c-.443-1.976-2.078-3.787-3.713-3.939C160.929,289.174,159.626,289.269,158.286,289.269Z" fill="#5c5c5c"/>
    <path id="Path_1352" data-name="Path 1352" d="M175.086,299.6q0-2.99,0-5.977a8.17,8.17,0,0,1,8.015-8.173c4.551-.121,8.574,3.317,8.718,7.689.141,4.284.148,8.58,0,12.863-.15,4.387-4.356,7.881-9.006,7.724a8.037,8.037,0,0,1-7.729-8.149Q175.084,302.583,175.086,299.6Zm4.239-.016c0,1.939,0,3.878,0,5.817.006,2.638,1.586,4.121,4.407,4.145a3.975,3.975,0,0,0,4.146-4.123q.024-5.857,0-11.716c-.01-2.529-1.8-4.087-4.618-4.071a3.887,3.887,0,0,0-3.934,4.049C179.318,295.647,179.325,297.614,179.325,299.58Z" fill="#5c5c5c"/>
    <path id="Path_1353" data-name="Path 1353" d="M364.077,299.588v5.649a8.49,8.49,0,0,1-6.7,8.282,8.076,8.076,0,0,1-10.034-8.125q0-5.857,0-11.715a8.151,8.151,0,0,1,7.551-8.207,8.409,8.409,0,0,1,9.069,6.814,39.815,39.815,0,0,1,.109,5.391C364.083,298.314,364.077,298.951,364.077,299.588Zm-12.511-.059h0c0,2.074-.034,4.148.011,6.221a3.714,3.714,0,0,0,2.7,3.593c3.42.9,5.937-1.028,5.879-4.258-.066-3.7-.008-7.411-.024-11.116a5.543,5.543,0,0,0-.2-1.552c-.593-1.975-2.492-3.041-4.8-2.742a3.8,3.8,0,0,0-3.556,3.8C351.528,295.49,351.566,297.51,351.566,299.529Z" fill="#5c5c5c"/>
    <path id="Path_1354" data-name="Path 1354" d="M196,299.547c0-1.937-.009-3.874,0-5.811a8.183,8.183,0,0,1,8.24-8.291,8.41,8.41,0,0,1,8.544,8.4q0,5.769,0,11.538a8.583,8.583,0,0,1-8.6,8.339A8.031,8.031,0,0,1,196,305.606C195.978,303.587,196,301.567,196,299.547Zm12.8.086c0-1.963,0-3.927,0-5.89-.008-2.556-1.713-4.089-4.563-4.111a3.943,3.943,0,0,0-4.017,4.065q-.028,5.891,0,11.781c.012,2.526,1.746,4.067,4.509,4.064a3.971,3.971,0,0,0,4.07-4.1C208.8,303.505,208.8,301.569,208.8,299.633Z" fill="#5c5c5c"/>
    <path id="Path_1355" data-name="Path 1355" d="M320.59,305.64a7.909,7.909,0,0,1-5.712,7.857,7.712,7.712,0,0,1-8.677-3.46,2.2,2.2,0,0,1,.239-2.684,2.071,2.071,0,0,1,2.592-.288,3.03,3.03,0,0,1,.787.827,3.429,3.429,0,0,0,3.655,1.577,3.285,3.285,0,0,0,2.813-2.7,3.418,3.418,0,0,0-1.507-3.684c-1.9-1.334-3.835-2.63-5.689-4.028a7.312,7.312,0,0,1-3-7.737,7.006,7.006,0,0,1,5.3-5.59,8.535,8.535,0,0,1,5.985.615c1.682.763,2.322,2.454,2.929,4.058.224.59-.419,1.475-1.094,1.789a2.163,2.163,0,0,1-2.446-.461,6.472,6.472,0,0,1-.439-.6,3.268,3.268,0,0,0-3.51-1.331,3.031,3.031,0,0,0-2.434,2.445,3.089,3.089,0,0,0,1.294,3.424c1.823,1.3,3.676,2.562,5.507,3.853A7.476,7.476,0,0,1,320.59,305.64Z" fill="#5c5c5c"/>
  </g>
</svg>
