<svg xmlns="http://www.w3.org/2000/svg" width="210.826" height="57.16" viewBox="0 0 210.826 57.16">
  <g id="Group_374" data-name="Group 374" transform="translate(-454.629 -204.08)">
    <path id="Path_1282" data-name="Path 1282" d="M638,215.374a22.434,22.434,0,0,1,3.655,3.618c4.84,6.958,1.631,16.428-6.582,19.4a18.672,18.672,0,0,1-6.506,1.062,22.413,22.413,0,0,0-6.953.792c-1.752.554-2.494,1.4-2.395,2.577a2.971,2.971,0,0,0,2.918,2.744c2.689.293,5.395.076,8.093.128,3.225.062,6.465-.207,9.664.421a9.787,9.787,0,0,1,4.455,1.928c2.4,1.973,3.177,5.806,1.862,9.272a9.8,9.8,0,0,1-4.33,5.014c-.547.326-.864.3-1.167-.233a1.981,1.981,0,0,0-.307-.431c-1.018-1.016-1.1-1.741.148-2.865,2.37-2.143,1.583-5.527-1.393-6.748a16.418,16.418,0,0,0-7.054-.813,65.135,65.135,0,0,1-11.651-.063,11.051,11.051,0,0,1-2.3-.611,5.516,5.516,0,0,1-3.8-4.666,6.136,6.136,0,0,1,2.441-6.314,13.537,13.537,0,0,1,4.665-1.935,29.891,29.891,0,0,1-2.54-1.729c-3.969-3.484-5.979-12.715-.348-18.341,4.855-4.851,11.632-5.958,18.2-2.849ZM622.023,226.4a13.027,13.027,0,0,0,2.109,7.528c2.728,4.078,8.239,4.1,10.772-.127a13.638,13.638,0,0,0,.055-14.71c-2.629-4.473-8.354-4.34-11.073.1A13.386,13.386,0,0,0,622.023,226.4Z" transform="translate(-23.303 -1.3)"/>
    <path id="Path_1283" data-name="Path 1283" d="M485.817,225.936c1.77,0,3.54.02,5.309-.01.625-.01.841.166.815.829-.091,2.255-.067,4.514-.177,6.768-.163,3.378-2.074,5.762-4.655,7.667-8.684,6.406-26.042,4.108-31.208-9.089-4.6-11.75,3.829-25.861,16.359-27.684,4.928-.717,9.691-.413,14.136,2.146,1,.575,1.3,1.059.336,1.88a.345.345,0,0,0-.085.1c-.662,1.374-1.331,1.342-2.642.494-5.027-3.245-14.2-3.449-18.286,3.472a19.524,19.524,0,0,0-2.53,7.2,30.961,30.961,0,0,0,.315,11.332,12.853,12.853,0,0,0,14.817,10.2,12.116,12.116,0,0,0,4.843-1.655c3.8-2.353,4.115-4.859,3.894-8.584a2.335,2.335,0,0,0-2.037-2.142,15.081,15.081,0,0,0-4.49-.239c-1.287.05-.866-.813-.894-1.416s-.283-1.348.87-1.294C482.274,226,484.047,225.934,485.817,225.936Z" transform="translate(0 0)"/>
    <path id="Path_1284" data-name="Path 1284" d="M543.23,229.8c.085-5.719,1.593-10.482,6.031-13.766,4.779-3.535,10.132-3.819,15.462-1.552,5.163,2.2,7.69,6.559,8.463,11.981a19.039,19.039,0,0,1-1.467,11.144c-2.855,5.949-8.631,8.939-15.428,8.094a14.268,14.268,0,0,1-12.577-11.685,15.712,15.712,0,0,1-.285-1.7C543.33,231.349,543.274,230.379,543.23,229.8Zm23.065-.389c-.056-3.342-.255-6.688-1.819-9.775a6.909,6.909,0,0,0-12.291-.034,17.186,17.186,0,0,0-1.716,7.015,27.476,27.476,0,0,0,1.225,11.761,6.716,6.716,0,0,0,6.471,4.793c3.1.066,5.324-1.41,6.659-4.5C566.093,235.718,566.242,232.584,566.295,229.408Z" transform="translate(-12.934 -1.306)"/>
    <path id="Path_1285" data-name="Path 1285" d="M522.417,230.02c-3.453,0-6.905.033-10.357-.022-.957-.015-1.213.295-1.153,1.208a18.923,18.923,0,0,0,.58,4.056,10.03,10.03,0,0,0,15.439,5.619c1.573-1.056,1.665.354,2.264.97.9.923-.152,1.2-.629,1.528-7.556,5.173-19.162,2.367-23.224-5.593-3.863-7.567-.729-18.989,6.354-22.659a15.909,15.909,0,0,1,12.86-1.112c4.583,1.586,6.856,5.336,8.311,9.685a27.443,27.443,0,0,1,1.015,5.064c.122.9.02,1.318-1.1,1.288C529.323,229.962,525.869,230.02,522.417,230.02Zm-3.5-2.735c2.343,0,4.685-.017,7.028.011.676.008,1.073-.089,1.011-.916a20.429,20.429,0,0,0-1-5.975,6.532,6.532,0,0,0-3.167-3.75,7.791,7.791,0,0,0-10.366,3.56,18.221,18.221,0,0,0-1.454,6.011c-.112.986.256,1.084,1.057,1.071C514.319,227.262,516.618,227.286,518.915,227.285Z" transform="translate(-7.159 -1.323)"/>
    <path id="Path_1286" data-name="Path 1286" d="M670.819,230c-3.455,0-6.909.044-10.362-.027-1.034-.021-1.261.3-1.221,1.268.142,3.381.966,6.487,3.519,8.875a10.517,10.517,0,0,0,12.569.717c1.571-1.095,1.583.4,2.167.937.91.843-.006,1.186-.538,1.554-3.987,2.757-8.435,3.062-12.982,2.129-6.809-1.4-11.071-6.144-11.7-13.107-.5-5.513.469-10.76,4.555-14.848a14.443,14.443,0,0,1,24.465,6.391,38.894,38.894,0,0,1,.962,5.071c.12.829-.08,1.07-.935,1.059C677.816,229.974,674.317,230,670.819,230Zm-3.609-2.734h3.578c1.193,0,2.388-.044,3.578.012.7.033.906-.182.886-.882a20.326,20.326,0,0,0-.552-4.721c-.992-3.7-2.93-5.445-6.356-5.716a7.36,7.36,0,0,0-7.788,4.71,20.242,20.242,0,0,0-1.272,5.657c-.105.792.16.968.9.956C662.527,227.241,664.868,227.266,667.21,227.267Z" transform="translate(-28.834 -1.304)"/>
    <path id="Path_1287" data-name="Path 1287" d="M592.118,220.9a14.456,14.456,0,0,1,4.971-6.746,9.281,9.281,0,0,1,7.8-1.637,5.516,5.516,0,0,1,3.551,7.9c-.87,1.7-2.424,2.076-4.151,1.992a3.664,3.664,0,0,1-3.555-2.315c-.694-1.769-.226-3.281,1.506-4.683a6.826,6.826,0,0,0-5.2,2.317c-2.656,2.982-3.732,6.678-4.455,10.478-.783,4.118-.394,8.3-.446,12.455a1.689,1.689,0,0,0,1.354,1.749,9.659,9.659,0,0,0,1.82.307c1.711.122,2.019.561,1.708,2.337-.091.526-.39.509-.741.51-4.871,0-9.741,0-14.612.009-.534,0-.627-.219-.661-.713-.131-1.9-.155-1.9,1.623-2.208,2.115-.371,2.7-1.089,2.708-3.5.014-8.181.02-16.362-.025-24.542-.005-1.018.224-1.388,1.29-1.32a41.338,41.338,0,0,0,4.508.009c.846-.039,1.048.257,1.031,1.053C592.086,216.531,592.118,218.717,592.118,220.9Z" transform="translate(-18.44 -1.193)"/>
    <path id="Path_1288" data-name="Path 1288" d="M695.739,241.74a4.07,4.07,0,1,1-.1,8.124,4.072,4.072,0,1,1,.1-8.124Z" transform="translate(-34.554 -5.498)"/>
    <path id="Path_1289" data-name="Path 1289" d="M641.852,214.795l-1.225-.646a13.092,13.092,0,0,1,4.973-4.609,5.222,5.222,0,0,1,5.494.589,2.109,2.109,0,0,1,.812,1.465c.191,1.185-.986,2.768-2.492,3.426a2.843,2.843,0,0,1-3.675-.731c-1.665-2.07-1.7-2.07-3.458.008C642.139,214.463,642,214.628,641.852,214.795Z" transform="translate(-27.152 -0.72)" fill="#fce11c"/>
  </g>
</svg>
