<svg xmlns="http://www.w3.org/2000/svg" width="219.654" height="73.502" viewBox="0 0 219.654 73.502">
  <g id="Group_377" data-name="Group 377" transform="translate(-750.576 -306.289)">
    <path id="Path_1313" data-name="Path 1313" d="M821.028,338.082c-9.539,0-19.076.026-28.614-.034-1.172-.006-1.494.341-1.319,1.4a3.725,3.725,0,0,1,.005.636c-.041,4.3-1.935,6.178-6.241,6.183-3.9,0-7.8-.021-11.7.018-.8.008-1.128-.158-1.077-1.036a36.192,36.192,0,0,0,0-4.067c-.048-.872.275-1.053,1.082-1.041,3.136.043,6.273.008,9.411.025a1.884,1.884,0,0,0,1.869-.82c.367-.647.5-1.161-.612-1.15-2.541.026-5.086.023-7.625-.088-2.714-.118-4.089-1.613-4.1-4.3q-.023-4.642,0-9.284c.012-2.594,1.26-4.15,3.851-4.267,3.679-.167,7.374-.176,11.054-.039,2.748.1,4.035,1.658,4.084,4.487.035,2.12.047,4.24-.014,6.359-.022.8.208,1.084.988.965a2.964,2.964,0,0,1,.888,0c.87.131,1.147-.177,1.13-1.089-.06-3.264,0-6.529-.039-9.792-.009-.759.167-1.057.982-1.02,1.439.066,2.885.07,4.323,0,.819-.039.976.252.966,1.009-.04,3.307.009,6.613-.036,9.919-.01.772.163,1.045.97.987a25.538,25.538,0,0,1,3.177-.005c.687.035.852-.219.841-.866-.036-2.077-.023-4.155-.01-6.232.019-3.263,1.42-4.772,4.685-4.855,3.135-.079,6.274-.071,9.411,0,3.336.074,4.767,1.565,4.813,4.888q.043,3.051-.008,6.1c-.01.649.062.966.859.972,2.458.021,2.458.062,2.458-2.436,0-2.84.035-5.681-.022-8.52-.017-.861.26-1.049,1.072-1.042,4.282.039,8.563-.008,12.844.026,3.589.028,4.978,1.468,4.978,5.045,0,2.034.032,4.07-.018,6.1-.018.709.22.853.865.791a2.227,2.227,0,0,0,2.223-2.432c.05-2.076.021-4.154.022-6.231,0-5.3.019-10.6-.019-15.9-.005-.863.181-1.2,1.107-1.147,1.479.08,2.968.048,4.45.009.606-.016.8.168.8.782-.019,8.564.036,17.127-.045,25.689-.032,3.388-2.227,5.283-5.831,5.3-6.571.022-13.141.006-19.712.006Zm-6.317-6.064c3.1,0,3.088,0,3.1-2.528.019-3.135.349-3.431-3.572-3.374-2.57.038-2.749.184-2.749,2.7C811.494,332.018,811.494,332.018,814.711,332.018Zm-33.278.083h.635c2.5,0,2.67-.168,2.67-2.646,0-3.29,0-3.29-3.7-3.29-2.548,0-2.745.2-2.745,2.733C778.295,332.1,778.295,332.1,781.433,332.1Zm52.408-3.12c0,.759.017,1.518-.007,2.277-.016.481.035.79.656.769,1.39-.044,2.783-.006,4.174-.032a1.222,1.222,0,0,0,1.319-1.36c.006-.422,0-.843,0-1.265,0-3.245,0-3.245-3.3-3.245C833.84,326.125,833.84,326.125,833.841,328.98Z" transform="translate(6.303 0.002)" fill="#2484c6"/>
    <path id="Path_1314" data-name="Path 1314" d="M902.61,338.083c-6.36,0-12.719.032-19.077-.03-1.172-.012-1.7.182-1.516,1.469a7.351,7.351,0,0,1-.154,2.526c-.525,2.511-2.043,4.063-4.593,4.139-4.533.133-9.07.054-13.606.089-.614,0-.678-.29-.671-.784.019-1.483.048-2.969-.01-4.451-.03-.769.283-.9.965-.9,3.221.03,6.444.005,9.665.019a1.824,1.824,0,0,0,1.826-.89c.352-.65.412-1.082-.591-1.076-2.542.016-5.086.018-7.625-.09-2.631-.111-3.938-1.293-4.116-3.878a73.455,73.455,0,0,1,.008-10.289c.166-2.323,1.374-3.529,3.75-3.687a89.547,89.547,0,0,1,11.3-.009c2.532.151,3.794,1.6,3.859,4.151.056,2.245.045,4.494,0,6.74-.016.74.226.891.926.9,3.373.04,3.371.062,3.371-3.3,0-2.586.023-5.173-.014-7.758-.01-.709.173-.965.916-.936,1.439.057,2.884.065,4.322,0,.8-.036,1,.221.988,1-.04,3.307.006,6.613-.034,9.92-.009.794.149,1.157,1.031,1.075,1.461-.137,3.384.6,4.271-.291.823-.824.2-2.735.216-4.168.029-2.2.036-4.41-.009-6.613-.014-.736.228-.938.938-.913,1.439.049,2.885.066,4.322-.005.83-.041.975.273.967,1.016-.036,3.307.011,6.613-.035,9.92-.011.829.2,1.112,1.053,1.059a26.781,26.781,0,0,1,3.559,0c.885.063,1.027-.286,1.018-1.071-.04-3.264.014-6.529-.037-9.793-.014-.882.212-1.186,1.121-1.134a33.874,33.874,0,0,0,4.067,0c.891-.054,1.052.292,1.044,1.084-.036,3.264.017,6.528-.036,9.792-.014.879.207,1.129,1.107,1.126,4.009-.009,4.336-.3,4.336-4.327,0-6.74.019-13.481-.023-20.222-.006-.945.209-1.254,1.183-1.192,1.435.091,2.881.048,4.322.012.628-.016.9.128.895.834-.023,8.31.063,16.62-.052,24.927-.06,4.252-2.071,6.008-6.321,6.009Q912.021,338.085,902.61,338.083ZM872.37,332.1c.424,0,.847.005,1.271,0,1.721-.026,2.034-.352,2.038-2.113,0-.72-.034-1.442.008-2.16a1.355,1.355,0,0,0-1.381-1.613,30.606,30.606,0,0,0-3.678.012,1.317,1.317,0,0,0-1.354,1.508c.017.423,0,.847,0,1.271C869.277,332.1,869.277,332.1,872.37,332.1Z" transform="translate(32.941 0.001)" fill="#91bd3f"/>
    <path id="Path_1315" data-name="Path 1315" d="M867.769,329.032c-.132,2.92.3,6.365-.476,9.761A14.263,14.263,0,0,1,852.465,350.1a14.524,14.524,0,0,1-13.845-12.268c-.136-.843.048-1.119.931-1.072,1.353.074,2.714.061,4.068,0,.791-.032,1.115.158,1.362,1.015a8.353,8.353,0,0,0,6.291,6.181,7.726,7.726,0,0,0,7.843-2.453,9.844,9.844,0,0,0,2.294-5.665c.089-.657-.2-.769-.777-.762-2.12.028-4.239.017-6.36.006a15.218,15.218,0,0,1-1.646-.093c-2.486-.284-3.812-1.686-3.847-4.189q-.066-4.706,0-9.412c.031-2.582,1.344-4.09,3.909-4.26a84.814,84.814,0,0,1,11.176,0c2.548.169,3.859,1.7,3.9,4.277C867.8,323.781,867.769,326.157,867.769,329.032Zm-9.566-.058c.423,0,.844,0,1.267,0,1.666-.018,1.963-.322,1.975-2.032.006-.76,0-1.52,0-2.28a1.346,1.346,0,0,0-1.463-1.521q-1.709-.025-3.419,0a1.35,1.35,0,0,0-1.466,1.518c-.005.38,0,.76,0,1.141C855.09,328.974,855.09,328.974,858.2,328.974Z" transform="translate(25.801 3.125)" fill="#91bd3f"/>
    <path id="Path_1316" data-name="Path 1316" d="M813.709,358.414c-6.65-.025-13.29-.309-19.92-.776a149.674,149.674,0,0,1-23.761-3.215,44.536,44.536,0,0,1-12.57-4.611,14.039,14.039,0,0,1-5.673-5.49,9.777,9.777,0,0,1,5.082-13.875,24.738,24.738,0,0,1,9.73-1.438c2.661.027,2.661.005,2.647-2.7,0-.255.005-.509-.013-.763a2.293,2.293,0,0,0-2.511-2.416,45.49,45.49,0,0,1-4.948-.2c-2.259-.309-3-.991-3.317-3.28-.138-1-.162-2.016-.244-3.122,4.034.839,7.992.573,11.944.544a12.506,12.506,0,0,1,2.271.2,3.476,3.476,0,0,1,3.154,3.444c.12,4.574.078,9.153.131,13.73.008.78-.482.638-.929.639-3.519,0-7.037.009-10.556-.005a14.115,14.115,0,0,0-2.652.247,5.113,5.113,0,0,0-4.173,6.9,9.036,9.036,0,0,0,3.458,4.579c3.752,2.833,8.119,4.305,12.562,5.563a143.186,143.186,0,0,0,22.075,4.074c6.055.727,12.134,1.207,18.221,1.576Z" transform="translate(0 3.001)" fill="#2484c6"/>
    <path id="Path_1317" data-name="Path 1317" d="M848.928,350.214a5.932,5.932,0,0,1,4.553-2.486c3.175-.158,5.091,1.5,5.208,4.68.068,1.862.016,3.728.018,5.592,0,.462-.094,1.064.559,1.073.586.008,1.329.587,1.767-.308.5-1.015,1.01-1.161,1.922-.313a4.3,4.3,0,0,0,3.758,1.122,1.3,1.3,0,0,0,1.2-.974c.165-.691-.3-1.02-.792-1.28-.595-.314-1.23-.555-1.844-.833-.768-.347-1.565-.645-2.3-1.058-1.842-1.041-2.65-2.474-2.408-4.09a3.972,3.972,0,0,1,3.467-3.393,8.2,8.2,0,0,1,5.337.434,2.776,2.776,0,0,1,1.6,3.375c-.1.451-.363.383-.641.387-.551.009-1.1-.019-1.653.009-.517.027-.788-.016-.87-.694-.109-.906-.989-.928-1.7-.947-.768-.021-1.6.039-1.959.868-.3.7.233,1.129.786,1.382,1.111.509,2.254.947,3.382,1.419a5.724,5.724,0,0,1,2.62,1.929,3.863,3.863,0,0,1-1.856,5.7,7.761,7.761,0,0,1-7.714-.83c-.246-.159-.469-.352-.707-.522-.023-.017-.08.013-.239.043.484,1.671-.546,1.648-1.768,1.628-3.514-.054-3.515-.019-3.515-3.532,0-1.651.019-3.3,0-4.957-.034-2.36-1.459-3.292-3.656-2.364a4.021,4.021,0,0,0-2.471,3.944c-.049,1.99-.042,3.983,0,5.973.017.715-.191.923-.917.935-2.665.043-2.665.072-2.665-2.581,0-2.416-.021-4.83.013-7.244.01-.817-.158-1.348-1.113-1.217-.513.07-.61-.186-.649-.653-.2-2.364-.216-2.363,2.1-2.363.34,0,.679,0,1.018,0C848.343,348.09,848.68,348.392,848.928,350.214Z" transform="translate(27.273 12.141)" fill="#050505"/>
    <path id="Path_1318" data-name="Path 1318" d="M838.457,322.308c0-4.959.021-9.917-.019-14.876-.008-.881.217-1.187,1.124-1.133a31.037,31.037,0,0,0,3.939,0c.978-.067,1.188.265,1.183,1.2-.041,7.035-.022,14.07-.022,21.106,0,2.839-.032,5.68.02,8.518.016.8-.22,1.013-.993.979-1.4-.061-2.8-.07-4.194,0-.843.044-1.063-.217-1.057-1.05C838.477,332.14,838.457,327.223,838.457,322.308Z" transform="translate(25.76 0)" fill="#91bd3f"/>
    <path id="Path_1319" data-name="Path 1319" d="M921.8,322.19c0,4.918-.032,9.836.026,14.754.013.992-.282,1.217-1.205,1.16a30.589,30.589,0,0,0-3.94,0c-.954.065-1.191-.219-1.186-1.178.04-8.9.023-17.807.023-26.711,0-1.018.038-2.037-.013-3.052-.034-.682.215-.877.873-.857,1.441.041,2.886.07,4.323-.009.913-.049,1.126.259,1.119,1.138C921.775,312.353,921.8,317.272,921.8,322.19Z" transform="translate(48.351 0.001)" fill="#91bd3f"/>
    <path id="Path_1320" data-name="Path 1320" d="M825.831,360.786c0,2.156-.036,4.01.017,5.861.022.769-.184,1-.983,1-2.524,0-2.524.035-2.524-2.51,0-4.238-.006-8.474.008-12.712,0-.788-.01-1.49-1.108-1.338-.446.061-.548-.175-.6-.586-.3-2.276-.178-2.43,2.038-2.43.34,0,.68.018,1.018,0,1.044-.069,1.8.263,1.953,1.536a6.008,6.008,0,0,1,6.862-1.4c2.908,1.154,4.339,4.619,3.7,8.642a6.418,6.418,0,0,1-5.85,5.585A5.785,5.785,0,0,1,825.831,360.786Zm6.9-5.606c.022-2.5-1.229-4.229-3.14-4.344-2.017-.12-3.371,1.084-3.736,3.321-.4,2.462.7,4.652,2.593,5.17a2.7,2.7,0,0,0,1.37.052C831.667,358.95,832.707,357.477,832.726,355.18Z" transform="translate(20.507 12.139)" fill="#070707"/>
    <path id="Path_1321" data-name="Path 1321" d="M900.468,360.8c-3.646,3.1-8.464,1.708-9.9-2.756a9.383,9.383,0,0,1,0-5.867,6.1,6.1,0,0,1,10.071-2.827c.723-1.018,3.78-1.783,4.933-1.254a.455.455,0,0,1,.268.5c0,.636-.013,1.273.005,1.907.012.435-.177.643-.6.586-1.091-.145-1.111.525-1.107,1.332.021,4.662-.022,9.325.036,13.987.012,1.013-.268,1.275-1.261,1.245-2.33-.067-2.332-.016-2.333-2.319q0-2.1-.007-4.2A1.687,1.687,0,0,0,900.468,360.8Zm.19-5.75c-.022-2.417-1.292-4.114-3.154-4.213-1.994-.106-3.327,1.1-3.723,3.36-.415,2.364.657,4.538,2.5,5.112a2.945,2.945,0,0,0,1.743.022C899.741,358.842,900.677,357.336,900.658,355.047Z" transform="translate(40.905 12.139)" fill="#050505"/>
    <path id="Path_1322" data-name="Path 1322" d="M873.117,347.716c4.185-.158,7.753,2.894,7.905,6.761.18,4.573-2.827,7.786-7.458,7.973a7.448,7.448,0,0,1-8.023-7.2C865.419,351.1,868.652,347.884,873.117,347.716Zm-3.922,7.335a4.085,4.085,0,0,0,3.988,4.336,4.151,4.151,0,0,0,4.274-4.212,4.222,4.222,0,0,0-4.084-4.425A4.148,4.148,0,0,0,869.2,355.051Z" transform="translate(33.705 12.144)" fill="#060606"/>
    <path id="Path_1323" data-name="Path 1323" d="M877.868,355.1c0-4.258,3.2-7.366,7.644-7.4a7.455,7.455,0,0,1,7.8,7.317c.054,4.235-3.3,7.447-7.773,7.442C881.1,362.45,877.873,359.358,877.868,355.1Zm11.79.038a4.114,4.114,0,1,0-4.186,4.253A4.059,4.059,0,0,0,889.658,355.138Z" transform="translate(37.32 12.14)" fill="#050505"/>
    <path id="Path_1324" data-name="Path 1324" d="M816.288,347.7c4.425-.006,7.7,3.113,7.706,7.34.006,4.337-3.226,7.441-7.731,7.419a7.387,7.387,0,1,1,.025-14.759Zm4.141,7.41a4.119,4.119,0,1,0-8.223.025,4.115,4.115,0,1,0,8.223-.025Z" transform="translate(16.998 12.14)" fill="#050505"/>
    <path id="Path_1325" data-name="Path 1325" d="M841.663,355.715c-1.355,0-2.713.05-4.065-.018-.881-.044-.868.353-.68.976a4.249,4.249,0,0,0,5.387,2.533,3.967,3.967,0,0,0,1.49-.676c1.336-1.156,1.457.228,2.007.854.756.86.274,1.249-.458,1.716a8.534,8.534,0,0,1-9.743-.349,7.725,7.725,0,0,1-1.844-9.037,7.048,7.048,0,0,1,8.269-3.784c2.936.786,4.692,3.546,4.489,6.953-.04.676-.275.863-.914.843C844.288,355.687,842.975,355.715,841.663,355.715Zm-4.813-2.506c1.7,0,3.227.019,4.75-.013.38-.009.915.279,1.126-.225.166-.4-.088-.83-.309-1.192a2.528,2.528,0,0,0-2.7-1.243A3.309,3.309,0,0,0,836.849,353.208Z" transform="translate(24.176 12.135)" fill="#060606"/>
    <path id="Path_1326" data-name="Path 1326" d="M915.154,356.019c-.312.225-.024.455.008.673a2.942,2.942,0,0,1-1.646,3.481,3.3,3.3,0,0,1-3.988-.957c-.131-.155-.253-.318-.4-.506a2.283,2.283,0,0,1-2.5,1.768,3,3,0,0,1-1.446-5.673,3.222,3.222,0,0,1,3.052.1,1.027,1.027,0,0,1,.471,1.412c-.266.382-.842.4-1.336-.19-.631-.753-1.4-.369-1.946.26a1.709,1.709,0,0,0,2.257,2.506,1.108,1.108,0,0,1,1.365-.05c0-.327.012-.533,0-.737-.117-1.706.438-2.793,1.711-3.34a3.329,3.329,0,0,1,3.988,1.013c.112.128.138.44.441.269Zm-1.41,1.459a1.69,1.69,0,0,0-1.664-1.712,1.652,1.652,0,0,0-1.584,1.774,1.551,1.551,0,0,0,1.586,1.627A1.624,1.624,0,0,0,913.745,357.477Z" transform="translate(44.847 14.126)" fill="#0e0e0e"/>
    <path id="Path_1327" data-name="Path 1327" d="M912.545,356.044c.022-1.56.7-1.971,2.026-1.09.451.3.556.045.808-.1a1.808,1.808,0,0,1,2.514.247c.325.374.425.252.724-.013a2.087,2.087,0,0,1,2.464-.379c.859.428.83,1.253.938,2.063.112.844-.578,1.922.654,2.518a1.055,1.055,0,0,1-.061.916c-.4.33-.966.124-1.461.12-.41,0-.591-.313-.6-.684-.023-.846,0-1.691-.03-2.536-.017-.493.048-1.106-.639-1.2a1.2,1.2,0,0,0-1.263.857,6.676,6.676,0,0,0-.22,2.754c-.014.507.013.861-.7.856s-.856-.268-.819-.9c.045-.8.013-1.606.01-2.409,0-.468.047-1.018-.532-1.154a1.15,1.15,0,0,0-1.3.759,6.028,6.028,0,0,0-.255,2.744c-.021.538.031.941-.757.96s-.768-.388-.759-.926c.017-.93,0-1.861.005-2.791,0-.528-.046-.983-.767-.639Z" transform="translate(47.48 14.124)" fill="#0e0e0e"/>
    <path id="Path_1328" data-name="Path 1328" d="M805.734,310.309a3.117,3.117,0,0,1,3.126,3.017,3.137,3.137,0,1,1-6.272-.021A3.129,3.129,0,0,1,805.734,310.309Z" transform="translate(15.249 1.179)" fill="#2484c6"/>
    <path id="Path_1329" data-name="Path 1329" d="M795.112,316.53a2.91,2.91,0,0,1-3.016-3.047,2.975,2.975,0,0,1,3-3.1,3.05,3.05,0,0,1,3.114,3.142A3,3,0,0,1,795.112,316.53Z" transform="translate(12.173 1.201)" fill="#2484c6"/>
    <path id="Path_1330" data-name="Path 1330" d="M857.306,316.566a2.926,2.926,0,0,1-3.044-3.008,3.019,3.019,0,0,1,3.077-3.145,3.085,3.085,0,0,1,3.075,3.053A2.974,2.974,0,0,1,857.306,316.566Z" transform="translate(30.399 1.209)" fill="#91bd3f"/>
    <path id="Path_1331" data-name="Path 1331" d="M792.73,313.448a2.949,2.949,0,0,1-2.988,3.082,3,3,0,0,1-3.122-3.1,3.054,3.054,0,0,1,3.081-3.043A3,3,0,0,1,792.73,313.448Z" transform="translate(10.568 1.201)" fill="#2484c6"/>
    <path id="Path_1332" data-name="Path 1332" d="M851.939,316.566a3,3,0,0,1-3.12-3.079,3.088,3.088,0,0,1,3.044-3.074,3.016,3.016,0,0,1,3.093,3.118A2.927,2.927,0,0,1,851.939,316.566Z" transform="translate(28.803 1.209)" fill="#91bd3f"/>
    <path id="Path_1333" data-name="Path 1333" d="M902.849,359.348c-.526.084-.745-.1-.734-.676.012-.555.111-.832.758-.835.675,0,.713.328.735.856C903.63,359.292,903.352,359.419,902.849,359.348Z" transform="translate(44.429 15.113)" fill="#0e0e0e"/>
    <path id="Path_1334" data-name="Path 1334" d="M799.4,349.007l.006-.4c.547.009,1.1,0,1.644.031a23.839,23.839,0,0,1,3.36.365Z" transform="translate(14.313 12.408)" fill="#393939"/>
  </g>
</svg>
