<svg xmlns="http://www.w3.org/2000/svg" xmlns:xlink="http://www.w3.org/1999/xlink" width="220.412" height="52.148" viewBox="0 0 220.412 52.148">
  <defs>
    <radialGradient id="radial-gradient" cx="0.231" cy="1.012" r="0.777" gradientTransform="matrix(0.671, -0.819, 1.095, 0.657, -1.032, 0.537)" gradientUnits="objectBoundingBox">
      <stop offset="0" stop-color="#ff7854"/>
      <stop offset="0.519" stop-color="#fe5764"/>
      <stop offset="1" stop-color="#fd267d"/>
    </radialGradient>
  </defs>
  <g id="Group_378" data-name="Group 378" transform="translate(-892.525 -394.484)">
    <path id="Path_1335" data-name="Path 1335" d="M905.912,415.554c10.04-3.187,11.633-12.431,10.358-20.718,0,0,0-.479.32-.32,9.721,4.782,20.559,14.822,20.559,30.282a21.871,21.871,0,0,1-22.313,21.834c-14.342,0-22.311-10.04-22.311-21.993,0-7.173,4.78-14.344,10.358-17.531,0,0,.479,0,.479.318,0,1.593.637,5.578,2.391,7.969Z" transform="translate(0 0)" fill="url(#radial-gradient)"/>
    <path id="Path_1336" data-name="Path 1336" d="M942.015,437.322l.8-.955,2.391,7.171h-.318c-1.594,1.593-4.144,2.55-7.491,2.55a9.394,9.394,0,0,1-7.012-2.55,9.653,9.653,0,0,1-2.55-7.012V417.24h-5.9v-7.967h5.737v-9.564H936.6v9.564h6.853v7.967h-7.173v17.531c0,.8.32,3.507,2.87,3.507a3.692,3.692,0,0,0,2.868-1.116Zm4.78,7.969V409.432H955.4V445.29H946.8Zm4.144-50.52a5.307,5.307,0,0,1,5.26,5.259,5.243,5.243,0,0,1-5.26,5.419,5.342,5.342,0,0,1,.159-10.678Zm28.368,13.865c7.651,0,11.794,4.144,11.794,11.635v25.02H982.5v-22.95c-.32-3.984-2.391-5.9-6.375-5.9a10.837,10.837,0,0,0-8.446,4.144v24.7h-8.766V409.432h8.766v3.984A16.015,16.015,0,0,1,979.307,408.635Zm41.437,4.462V396.2h8.605V445.61h-8.605v-3.984a14.961,14.961,0,0,1-10.678,4.78c-9.562,0-15.937-7.969-15.937-19.124s6.216-18.647,15.778-18.647a14.722,14.722,0,0,1,10.519,4.462Zm0,7.65a11.781,11.781,0,0,0-8.765-4.144c-5.419,0-9.085,4.3-9.085,10.837,0,6.375,3.505,10.837,8.924,10.837a10.649,10.649,0,0,0,8.448-4.144V420.747Zm29.007-12.112c10.517,0,17.849,7.969,17.849,19.444v2.389h-26.775c.957,5.1,4.78,8.287,10.36,8.287a15.384,15.384,0,0,0,9.563-3.823l.318-.479,4.3,6.057-.318.478a21.35,21.35,0,0,1-14.344,5.259c-11.156,0-19.124-7.969-19.124-18.806s7.969-19.124,18.328-19.124Zm-8.925,15.3h18.168c-.478-5.419-4.78-7.967-9.083-7.967-6.057,0-8.448,4.78-8.926,7.967Zm48.449-15.3h.477v8.926h-.8a5.613,5.613,0,0,0-2.232-.479c-2.868,0-6.853,2.073-8.287,4.144v23.906h-8.926v-35.7h8.926v3.984a14.432,14.432,0,0,1,10.678-4.782Z" transform="translate(23.184 0.226)" fill="#424242"/>
  </g>
</svg>
