<svg xmlns="http://www.w3.org/2000/svg" width="220.528" height="93.118" viewBox="0 0 220.528 93.118">
  <g id="Group_376" data-name="Group 376" transform="translate(-400.405 -363.552)">
    <path id="Path_1299" data-name="Path 1299" d="M440.718,456.667a39.926,39.926,0,0,1-39.9-34.426c-1.117-7.865.157-15.461,2.65-22.89,3.539-10.548,9-19.914,17.361-27.414a32.532,32.532,0,0,1,13.924-7.668c5.928-1.48,11.658-.525,17.248,1.554,10.611,3.947,19.48,10.525,27.369,18.5a67.823,67.823,0,0,1,14.343,20.486c4.721,10.795,2.995,20.568-4.511,29.458-5.934,7.028-13.4,11.987-21.652,15.844a69.526,69.526,0,0,1-22.582,6.448c-.352.035-.7.1-1.057.1C442.844,456.676,441.781,456.667,440.718,456.667ZM445.912,395c-4.017,0-8.035-.012-12.053.011a9.963,9.963,0,0,0-2.193.248,3.447,3.447,0,0,0-2.9,3.46c-.048,2.745.668,4.182,2.792,4.561a42.842,42.842,0,0,0,5.739.237c.91.037,1.4-.273,1.413-1.263.018-1.038-.454-1.356-1.436-1.361-1.518-.008-3.035-.146-4.553-.206-.857-.034-1.082-.51-1.166-1.294a1.248,1.248,0,0,1,1.113-1.485,5.839,5.839,0,0,1,1.409-.084q11.757-.007,23.515,0c.394,0,.79-.017,1.181.022a1.232,1.232,0,0,1,1.113,1.665,1.839,1.839,0,0,1-2.008,1.408q-6.38-.02-12.761,0a3.766,3.766,0,0,0-4.038,3.485c-.045,7.364-.083,14.729.032,22.091a4.09,4.09,0,0,0,2.567,3.978c4.131,1.522,7.088-.786,7.256-4.98.227-5.663.055-11.342.057-17.014,0-1.031-.493-1.466-1.533-1.43-1.146.041-1.309.748-1.308,1.659.006,5.436.016,10.871-.014,16.307a2.707,2.707,0,0,1-2.322,3.086c-.483.068-1.2-.514-1.574-.991a3,3,0,0,1-.553-1.73q-.056-9.807-.007-19.615c.01-1.61.723-2.208,2.317-2.223,1.024-.009,2.048,0,3.072,0,3.283,0,6.567.068,9.848-.019,3.1-.083,4.347-3.543,3.424-6.1-.665-1.837-2.287-2.37-4.024-2.4C454.184,394.953,450.047,395,445.912,395Z" fill="#0eb550"/>
    <path id="Path_1300" data-name="Path 1300" d="M660.833,415.917c-6.559-.046-11.04-4.586-10.982-11.125a11.1,11.1,0,0,1,22.2.192C672.036,411.407,667.363,415.963,660.833,415.917Zm5.181-10.9a5.864,5.864,0,0,0-1.636-4.29,4.959,4.959,0,0,0-5.683-.882,5.787,5.787,0,0,0-2.86,5.893,5.286,5.286,0,0,0,3.986,4.734C663.188,411.189,665.985,408.726,666.014,405.014Z" transform="translate(-51.117 -6.226)"/>
    <path id="Path_1301" data-name="Path 1301" d="M627.007,415.6V394.436c3.056,0,6.071-.043,9.084.024a10.923,10.923,0,0,1,3,.517,4.334,4.334,0,0,1,3.244,3.928,4.66,4.66,0,0,1-2.42,4.969q-.255.142-.5.3c-.029.018-.039.067-.083.146.132.064.258.134.391.188,2.857,1.154,4.033,2.964,3.761,5.792a5.411,5.411,0,0,1-4.774,5.2,23.559,23.559,0,0,1-3.875.233c-2.518.029-5.037,0-7.555-.014C627.2,415.719,627.136,415.661,627.007,415.6Zm5.5-8.544v3.7c1.1,0,2.156.077,3.192-.021a1.822,1.822,0,0,0,1.854-1.775,1.769,1.769,0,0,0-1.733-1.88A28.429,28.429,0,0,0,632.51,407.058Zm.018-7.6V402.7a19.229,19.229,0,0,0,2.65-.027,1.605,1.605,0,0,0-.026-3.195A20.662,20.662,0,0,0,632.527,399.454Z" transform="translate(-46.436 -6.326)"/>
    <path id="Path_1302" data-name="Path 1302" d="M571.893,408.412l4.774,7.319c-2.238,0-4.265.029-6.289-.033-.279-.009-.611-.427-.8-.728-1.038-1.626-2.07-3.257-3.039-4.924a1.329,1.329,0,0,0-1.839-.722v6.339h-5.461V394.386c.81,0,1.62,0,2.43,0,2.284.017,4.571-.017,6.853.071,3.446.133,5.772,1.9,6.589,4.886,1.034,3.781.011,6.829-2.952,8.8A2.339,2.339,0,0,0,571.893,408.412Zm-7.147-8.961v4.808c1.64-.045,3.288.288,4.414-1.2a1.957,1.957,0,0,0,.009-2.43C568.032,399.055,566.36,399.426,564.747,399.451Z" transform="translate(-32.548 -6.318)"/>
    <path id="Path_1303" data-name="Path 1303" d="M595.739,402.727v4.932h-6.667v2.979h9.164v5.049H583.554v-21.2h14.039v4.944h-8.487v3.3Z" transform="translate(-37.531 -6.339)"/>
    <path id="Path_1304" data-name="Path 1304" d="M619.345,394.481v4.906h-8.534v3.265h6.6v5.012h-6.632v2.947H619.9v5.077H605.261V394.481Z" transform="translate(-41.979 -6.338)"/>
    <path id="Path_1305" data-name="Path 1305" d="M535.842,399.476v-5h16.379v4.967H546.9v16.236H541.22v-16.2Z" transform="translate(-27.754 -6.337)"/>
    <path id="Path_1306" data-name="Path 1306" d="M547.329,442.143v-6.229h1.621v13.535h-1.585v-5.528h-7.191v5.515h-1.637V435.892l1.538-.074v6.325Z" transform="translate(-28.306 -14.809)" fill="#727171"/>
    <path id="Path_1307" data-name="Path 1307" d="M579.847,446.373a2.754,2.754,0,0,0,1.719,2.6,3.433,3.433,0,0,0,3.966-.879l.956.766c-.983,1.992-4.378,2.173-5.927,1.306a4.986,4.986,0,0,1-2.093-6.051,4.43,4.43,0,0,1,5.169-2.9c2.214.491,3.485,2.439,3.253,5.156Zm5.411-1.3a2.463,2.463,0,0,0-2.455-2.5,2.65,2.65,0,0,0-2.809,2.5Z" transform="translate(-36.427 -15.893)" fill="#727171"/>
    <path id="Path_1308" data-name="Path 1308" d="M559.81,441.144a4.78,4.78,0,1,1,.008,9.558,4.779,4.779,0,1,1-.008-9.558Zm-3.225,4.779a3.235,3.235,0,1,0,6.468.071,3.237,3.237,0,1,0-6.468-.071Z" transform="translate(-31.68 -15.9)" fill="#727171"/>
    <path id="Path_1309" data-name="Path 1309" d="M598.008,448.633a22.884,22.884,0,0,0,3.349.549c.416.012,1.034-.566,1.2-1.011.091-.242-.489-.9-.9-1.137-.776-.443-1.678-.659-2.478-1.069a2.381,2.381,0,0,1-1.482-2.775,2.711,2.711,0,0,1,2.473-2.022,4.737,4.737,0,0,1,3.723,1.125l-.618.968a14.888,14.888,0,0,0-2.713-.638,1.522,1.522,0,0,0-1.213.816c-.1.321.356,1,.74,1.228a21.756,21.756,0,0,0,2.679,1.2,2.181,2.181,0,0,1,1.453,2.317,2.487,2.487,0,0,1-1.862,2.323,5.3,5.3,0,0,1-5.082-1.2l.716-1.018Z" transform="translate(-40.344 -15.898)" fill="#727171"/>
    <path id="Path_1310" data-name="Path 1310" d="M568.774,441.627v-1.132l1.108-.225v-3l1.609-.281v3.317h3.042l.111,1.379h-3.079c0,1.986-.035,3.859.018,5.73.02.7.532,1.032,1.236.939.459-.06.91-.18,1.419-.284l.367,1.106c-2.407,1.585-4.519.6-4.658-2.177-.084-1.687-.016-3.382-.016-5.146Z" transform="translate(-34.502 -15.05)" fill="#727171"/>
    <path id="Path_1311" data-name="Path 1311" d="M593.914,449.385h-1.341V435.314h1.341Z" transform="translate(-39.379 -14.706)" fill="#727171"/>
    <path id="Path_1312" data-name="Path 1312" d="M453.222,403.1c4.135,0,8.272-.044,12.406.021,1.737.027,3.359.56,4.024,2.4.924,2.555-.326,6.015-3.424,6.1-3.28.088-6.565.019-9.848.019-1.024,0-2.048-.008-3.072,0-1.594.015-2.307.613-2.317,2.223q-.059,9.808.007,19.615a3,3,0,0,0,.553,1.73c.375.478,1.092,1.059,1.574.991a2.706,2.706,0,0,0,2.322-3.086c.03-5.436.021-10.871.014-16.307,0-.91.162-1.618,1.308-1.659,1.04-.037,1.533.4,1.533,1.43,0,5.672.169,11.351-.057,17.014-.168,4.194-3.125,6.5-7.256,4.98a4.09,4.09,0,0,1-2.567-3.978c-.114-7.362-.076-14.727-.032-22.091a3.766,3.766,0,0,1,4.038-3.485q6.381-.015,12.761,0a1.839,1.839,0,0,0,2.008-1.408,1.232,1.232,0,0,0-1.113-1.665c-.39-.039-.787-.022-1.181-.022q-11.758,0-23.514,0a5.839,5.839,0,0,0-1.409.084,1.248,1.248,0,0,0-1.113,1.485c.083.783.309,1.259,1.166,1.294,1.518.06,3.035.2,4.553.206.982.006,1.454.324,1.436,1.361-.017.991-.5,1.3-1.413,1.263a42.837,42.837,0,0,1-5.739-.237c-2.124-.378-2.839-1.815-2.792-4.561a3.447,3.447,0,0,1,2.9-3.46,9.968,9.968,0,0,1,2.193-.248C445.187,403.085,449.2,403.1,453.222,403.1Z" transform="translate(-7.31 -8.101)" fill="#fff"/>
  </g>
</svg>
