<svg xmlns="http://www.w3.org/2000/svg" width="223.472" height="65.939" viewBox="0 0 223.472 65.939">
  <g id="Group_379" data-name="Group 379" transform="translate(-510.44 -518.989)">
    <path id="Path_1337" data-name="Path 1337" d="M537.68,531.526h10.615v5.587h.1a11.9,11.9,0,0,1,3.982-4.737,10.054,10.054,0,0,1,5.8-1.586c.6,0,1.225.019,1.83.064a10.087,10.087,0,0,1,1.694.274v9.57a19.635,19.635,0,0,0-2.216-.524,14.419,14.419,0,0,0-2.277-.175,11.148,11.148,0,0,0-4.754.839,6.32,6.32,0,0,0-2.691,2.339,8.87,8.87,0,0,0-1.205,3.6,34.866,34.866,0,0,0-.263,4.612V565.6H537.68V531.526" transform="translate(4.604 1.994)" fill="#1d74b9"/>
    <path id="Path_1338" data-name="Path 1338" d="M560.44,533.52h10.335V567.6H560.44Zm-.421-8.964a5.57,5.57,0,1,1,1.63,3.933,5.358,5.358,0,0,1-1.63-3.933" transform="translate(8.379)" fill="#1d74b9"/>
    <path id="Path_1339" data-name="Path 1339" d="M621.528,550.8c-.791,0-1.782-.022-2.969.048a15.079,15.079,0,0,0-3.422.565,7.633,7.633,0,0,0-2.794,1.452,3.367,3.367,0,0,0-1.153,2.717,2.99,2.99,0,0,0,1.607,2.79,6.72,6.72,0,0,0,3.352.907,10.467,10.467,0,0,0,2.968-.422,8.815,8.815,0,0,0,2.55-1.188,5.832,5.832,0,0,0,1.808-1.956,5.664,5.664,0,0,0,.686-2.794V550.8h-2.634m2.634,10.615h-.19a10.588,10.588,0,0,1-4.642,3.853,16.269,16.269,0,0,1-10.688.482,11.5,11.5,0,0,1-3.875-2,9.63,9.63,0,0,1-2.655-3.287,9.994,9.994,0,0,1-.977-4.539,10.41,10.41,0,0,1,1.084-4.961,9.666,9.666,0,0,1,2.932-3.353,14.536,14.536,0,0,1,4.226-2.06,30.771,30.771,0,0,1,4.925-1.084,47.651,47.651,0,0,1,5.1-.42q2.546-.068,4.712-.07a5.444,5.444,0,0,0-1.99-4.434,7.173,7.173,0,0,0-4.715-1.641,10.273,10.273,0,0,0-4.715,1.081,12.937,12.937,0,0,0-3.806,2.969l-5.588-5.728a19.23,19.23,0,0,1,6.845-4.085,24.43,24.43,0,0,1,8.1-1.362,21.162,21.162,0,0,1,7.576,1.153,11.032,11.032,0,0,1,4.75,3.389A12.971,12.971,0,0,1,633,540.8a36.3,36.3,0,0,1,.653,7.509V565.6h-9.5Z" transform="translate(15.328 1.993)" fill="#e47a25"/>
    <path id="Path_1340" data-name="Path 1340" d="M672.119,548.591a9.361,9.361,0,0,0,1.991,6.214,7.774,7.774,0,0,0,11.185,0,10.693,10.693,0,0,0,0-12.431,7.771,7.771,0,0,0-11.185,0,9.372,9.372,0,0,0-1.991,6.217m-9.476,0a19.468,19.468,0,0,1,1.324-7.336,16.94,16.94,0,0,1,3.637-5.619,15.811,15.811,0,0,1,5.432-3.6,18.261,18.261,0,0,1,13.333,0,15.853,15.853,0,0,1,5.435,3.6,16.927,16.927,0,0,1,3.632,5.619,20.9,20.9,0,0,1,0,14.668,16.9,16.9,0,0,1-3.632,5.623,15.8,15.8,0,0,1-5.435,3.6,18.294,18.294,0,0,1-13.333,0,15.758,15.758,0,0,1-5.432-3.6,16.91,16.91,0,0,1-3.637-5.623,19.446,19.446,0,0,1-1.324-7.332" transform="translate(25.724 1.992)" fill="#a31e22"/>
    <path id="Path_1341" data-name="Path 1341" d="M697.736,540.631a4.424,4.424,0,1,1,4.424-4.424,4.422,4.422,0,0,1-4.424,4.424m0-9.864a5.44,5.44,0,1,0,5.441,5.441,5.44,5.44,0,0,0-5.441-5.441" transform="translate(30.736 1.991)" fill="#9c9e9d"/>
    <path id="Path_1342" data-name="Path 1342" d="M697.957,534.723a.7.7,0,0,0-.076-.339.491.491,0,0,0-.253-.22.832.832,0,0,0-.275-.068c-.1-.009-.227-.014-.378-.014h-.441v1.412h.378a2.66,2.66,0,0,0,.468-.034.7.7,0,0,0,.326-.143.589.589,0,0,0,.186-.235.87.87,0,0,0,.064-.36m2.122,3.64h-1.607l-1.464-1.924h-.472v1.924h-1.312v-5.248h2.114a4.746,4.746,0,0,1,.759.056,1.633,1.633,0,0,1,.6.227,1.389,1.389,0,0,1,.447.456,1.355,1.355,0,0,1,.166.7,1.629,1.629,0,0,1-.272.979,1.95,1.95,0,0,1-.726.6Z" transform="translate(31.231 2.388)" fill="#9c9e9d"/>
    <path id="Path_1343" data-name="Path 1343" d="M657.064,531.452v4.566h-.157a6.449,6.449,0,0,0-1.19-1.274,13.929,13.929,0,0,0-2.689-1.792,14.882,14.882,0,0,0-3.352-1.327,17.844,17.844,0,0,0-4.33-.594,14.123,14.123,0,0,0-6.564,1.665,12.581,12.581,0,0,0-4.6,3.724,15.272,15.272,0,0,0-2.588,5.54,27.508,27.508,0,0,0-.738,6.943,26.324,26.324,0,0,0,1.015,7.2,14.971,14.971,0,0,0,2.964,5.721,12.223,12.223,0,0,0,4.957,3.354,16.557,16.557,0,0,0,6.766,1.149,13.874,13.874,0,0,0,4.945-1.06A10.022,10.022,0,0,0,655.822,562h.122v3.3a8.1,8.1,0,0,1-2.046,5.99c-1.518,1.564-3.733,2.4-6.957,2.4a18.7,18.7,0,0,1-5.682-.546,19.226,19.226,0,0,1-6.06-2.717l-5.1,7.482a23.518,23.518,0,0,0,8.121,3.958,34.735,34.735,0,0,0,8.944,1.017c6.634,0,11.329-1.67,14.576-5.012s4.571-8.234,4.571-14.683V531.452h-9.249m-2.612,23.357a7.8,7.8,0,0,1-11.221,0,10.738,10.738,0,0,1,0-12.473,7.8,7.8,0,0,1,11.221,0,10.728,10.728,0,0,1,0,12.473Z" transform="translate(20.224 2.035)" fill="#a31e22"/>
    <path id="Path_1344" data-name="Path 1344" d="M539.49,541.253H529.156v11.407a18.75,18.75,0,0,0,.217,2.55,4.857,4.857,0,0,0,.724,1.99,3.441,3.441,0,0,0,1.668,1.291,8,8,0,0,0,2.967.454,22.287,22.287,0,0,0,2.456-.173,4.654,4.654,0,0,0,2.3-.8V566.7a20.855,20.855,0,0,1-4.027.839,40.6,40.6,0,0,1-4.087.209,24.2,24.2,0,0,1-5.386-.559,12.86,12.86,0,0,1-4.308-1.78,8.635,8.635,0,0,1-2.912-3.179,10.041,10.041,0,0,1-1.067-4.749V541.253H510.44v-8.381H517.7V522.818h11.453v10.055H539.49v8.381" transform="translate(0 0.647)" fill="#1d74b9"/>
    <path id="Path_1345" data-name="Path 1345" d="M570.395,531.419H581.71L590.3,554.6h.138l7.964-23.184h10.546L595.538,565.5H584.433l-14.038-34.078" transform="translate(10.133 2.101)" fill="#e47a25"/>
  </g>
</svg>
