<svg xmlns="http://www.w3.org/2000/svg" width="218.403" height="45.57" viewBox="0 0 218.403 45.57">
  <path id="Path_1367" data-name="Path 1367" d="M622.247,43.678h8.4V70.315c0,14.015-8.956,18.933-21.95,18.933-12.947,0-21.9-4.919-21.9-18.933V44.745c0-.743.371-1.067,1.113-1.067h8.4V69.9c0,8.4,3.713,11.88,12.39,11.88,8.724,0,12.437-3.48,12.437-11.88V44.745C621.133,44,621.5,43.678,622.247,43.678Zm95.086,7.285V62.194h21.254c.371,0,.511.185.371.557l-2.32,5.755a1.169,1.169,0,0,1-1.253.742H722.9c-4.084,0-5.569,1.253-5.569,3.991v7.936H746.1c.371,0,.51.185.371.557l-2.413,5.987a1.169,1.169,0,0,1-1.253.742H711.3c-2.414,0-3.342-.835-3.342-2.645V46.787c0-2.181,1.207-3.109,4.362-3.109H746.1c.371,0,.51.185.371.511l-2.413,6.033a1.169,1.169,0,0,1-1.253.742ZM690.649,76.07c0,8.956-6.311,12.39-15.175,12.39H651.993c-2.46,0-3.341-.835-3.341-2.645V46.787c0-2.181,1.16-3.109,4.362-3.109h19.073c8.353,0,16.427,1.439,16.427,11.369,0,4.27-1.531,7.89-5.2,9.792C688.376,66.185,690.649,70.733,690.649,76.07ZM657.887,62.333h14.9c4.919,0,6.311-1.9,6.311-5.8s-1.392-5.755-6.311-5.755h-14.9Zm23.342,12.9c0-4.13-1.439-6.172-6.729-6.172h-11c-4.084,0-5.615,1.253-5.615,3.991V81.36H674.5C679.79,81.36,681.229,79.318,681.229,75.234ZM804.669,88.46h-8.538a1.267,1.267,0,0,1-1.253-.742l-9.049-16.335h-8.306c-4.084,0-5.615,1.253-5.615,3.991V88.46h-8.168a.97.97,0,0,1-1.113-1.067V46.787c0-2.181,1.206-3.109,4.362-3.109h19.165c11.184,0,17.913,2.924,17.913,13.783,0,8.4-4.038,11.694-9.05,12.993l10.07,17.217C805.272,87.95,805.272,88.46,804.669,88.46ZM794.645,57.646c0-4.548-1.253-6.775-7.1-6.775H771.907V64.422h15.638C793.392,64.422,794.645,62.241,794.645,57.646Z" transform="translate(-586.793 -43.678)"/>
</svg>
