<svg id="Android_phone" data-name="Android phone" xmlns="http://www.w3.org/2000/svg" width="45" height="45.667" viewBox="0 0 45 45.667">
  <g id="E-Commerce_development" data-name="E-Commerce development" transform="translate(-2318.499 -612.622)">
    <path id="Path_1492" data-name="Path 1492" d="M2345.908,652.642c0-1.2-.968-1.612-2.164-1.612l-15.565,0,.016-23.483H2362.4v5.831c0,1.2.327,2.251,1.521,2.251s1.611-1.01,1.611-2.206V616.138a2.3,2.3,0,0,0-2.166-2.316h-36.245a2.165,2.165,0,0,0-2.165,2.165l-.017,35.939a2.165,2.165,0,0,0,2.165,2.165l16.6.156C2344.9,654.247,2345.908,653.837,2345.908,652.642Zm16.494-35.807-.016,7.519h-34.208l.016-7.519Z" transform="translate(-6.444 -1.2)" fill="#fc7754"/>
    <path id="Path_1493" data-name="Path 1493" d="M2335.446,626.014h.239a1.906,1.906,0,1,0,0-3.812h-.239a1.906,1.906,0,0,0,0,3.812Z" transform="translate(-9.056 -4.494)" fill="#fc7754"/>
    <path id="Path_1494" data-name="Path 1494" d="M2344.446,626.014h.24a1.906,1.906,0,1,0,0-3.812h-.24a1.906,1.906,0,0,0,0,3.812Z" transform="translate(-13.155 -4.494)" fill="#fc7754"/>
    <path id="Path_1495" data-name="Path 1495" d="M2353.446,626.014h.239a1.906,1.906,0,1,0,0-3.812h-.239a1.906,1.906,0,1,0,0,3.812Z" transform="translate(-17.255 -4.494)" fill="#fc7754"/>
    <path id="Path_1927" data-name="Path 1927" d="M275.873,114.94h-19.89l-.871-3.822h-5.755c-.681,0-1.038.762-1.038,1.442s.357,1.48,1.038,1.48h3.414l4.508,17.459h14.062c.684,0,.893-.668.893-1.352s-.209-1.4-.893-1.4H259.253l-.348-1.6h13.709Zm-17.579,9.742-1.508-6.864h15.447l-1.675,6.864Z" transform="translate(2087.626 521.717)" fill="#fc7754"/>
    <ellipse id="Ellipse_3" data-name="Ellipse 3" cx="1.719" cy="1.719" rx="1.719" ry="1.719" transform="translate(2345.257 654.85)" fill="#fc7754"/>
    <ellipse id="Ellipse_4" data-name="Ellipse 4" cx="1.719" cy="1.719" rx="1.719" ry="1.719" transform="translate(2355.279 654.85)" fill="#fc7754"/>
  </g>
</svg>
