<svg xmlns="http://www.w3.org/2000/svg" width="54.718" height="36.107" viewBox="0 0 54.718 36.107">
  <g id="Entertainment" transform="translate(1.5 1.5)">
    <g id="Group_443" data-name="Group 443">
      <path id="Path_1498" data-name="Path 1498" d="M2492.9,651.354l-11.393,3.674-12.619-20.038,9.109-7.626,11.941.316Z" transform="translate(-2468.888 -627.364)" fill="none" stroke="#0092ff" stroke-linecap="round" stroke-linejoin="round" stroke-width="3"/>
      <path id="Path_1499" data-name="Path 1499" d="M2537.991,675.045" transform="translate(-2502.151 -651.521)" fill="none" stroke="#0092ff" stroke-linecap="round" stroke-linejoin="round" stroke-width="7"/>
      <path id="Path_1503" data-name="Path 1503" d="M.226.033,0,0" transform="translate(8.076 8.33)" fill="none" stroke="#0092ff" stroke-linecap="round" stroke-width="5"/>
      <line id="Line_2" data-name="Line 2" x1="0.226" y1="0.033" transform="translate(14.541 5.994)" fill="none" stroke="#0092ff" stroke-linecap="round" stroke-linejoin="round" stroke-width="5"/>
      <path id="Path_1500" data-name="Path 1500" d="M2496.186,664.538a2.025,2.025,0,0,0,2.055.551c1.155-.427,1.174-1.944,1.174-1.944" transform="translate(-2482.028 -645.492)" fill="none" stroke="#0092ff" stroke-linecap="round" stroke-linejoin="round" stroke-width="5"/>
      <path id="Path_1501" data-name="Path 1501" d="M2537.176,665.863l-11.71-2.621.448-23.355,11.973-1.882,9.953,6.282Z" transform="translate(-2496.122 -632.756)" fill="none" stroke="#0092ff" stroke-linecap="round" stroke-linejoin="round" stroke-width="3"/>
      <line id="Line_3" data-name="Line 3" x1="0.173" y1="0.142" transform="translate(36.252 11.796)" fill="none" stroke="#0092ff" stroke-linecap="round" stroke-linejoin="round" stroke-width="5"/>
      <line id="Line_4" data-name="Line 4" x1="0.173" y1="0.142" transform="translate(43.036 13.071)" fill="none" stroke="#0092ff" stroke-linecap="round" stroke-linejoin="round" stroke-width="5"/>
      <path id="Path_1502" data-name="Path 1502" d="M2540.632,678.005a1.89,1.89,0,0,0-1.382-1.55,2.359,2.359,0,0,0-2.115.989" transform="translate(-2501.739 -652.218)" fill="none" stroke="#0092ff" stroke-linecap="round" stroke-linejoin="round" stroke-width="5"/>
    </g>
  </g>
</svg>
