<svg id="Android_phone" data-name="Android phone" xmlns="http://www.w3.org/2000/svg" width="45" height="46.498" viewBox="0 0 45 46.498">
  <g id="Group_318" data-name="Group 318" transform="translate(0.124 -0.624)">
    <path id="Path_2482" data-name="Path 2482" d="M808.54,613.291a12.031,12.031,0,0,0-11.983.263,12.489,12.489,0,0,0-4.448,4.334,12.489,12.489,0,0,0-4.448-4.334,12.03,12.03,0,0,0-11.983-.263c-2.268,1.31-6.072,4.7-6.069,12.7.008,18.669,20.556,31.5,21.431,32.04a1.9,1.9,0,0,0,1.993-3.244c-.2-.12-19.61-12.27-19.617-28.8,0-4.512,1.478-7.853,4.166-9.405a8.225,8.225,0,0,1,8.175.264,8.6,8.6,0,0,1,4.375,7.639,1.9,1.9,0,0,0,1.9,1.9c.025,0,.048-.007.073-.007s.048.007.073.007a1.9,1.9,0,0,0,1.9-1.9,8.6,8.6,0,0,1,4.375-7.639,8.222,8.222,0,0,1,8.175-.264c2.689,1.553,4.168,4.894,4.166,9.405,0,9-5.8,16.668-10.654,21.515a1.9,1.9,0,1,0,2.69,2.7c5.368-5.356,11.768-13.9,11.772-24.208C814.613,617.993,810.809,614.6,808.54,613.291Z" transform="translate(-769.733 -611.194)" fill="#ffc603"/>
  </g>
</svg>
