<svg id="Android_phone" data-name="Android phone" xmlns="http://www.w3.org/2000/svg" width="45" height="45.845" viewBox="0 0 45 45.845">
  <g id="Group_318" data-name="Group 318" transform="translate(0.254 -1.247)">
    <g id="Group_1019" data-name="Group 1019" transform="translate(-153.03 -707.727)">
      <g id="Group_651" data-name="Group 651" transform="translate(152.776 708.974)">
        <g id="Group_1027" data-name="Group 1027" transform="translate(0 0)">
          <path id="Path_2495" data-name="Path 2495" d="M184.766,127.647v36.568l22.408,9.277,22.592-9.272V127.661l-22.583,9.267Zm42.39,4.79V162.12l-18.037,7.6V140.036Zm-39.411,0,17.753,7.6v29.683l-17.753-8.024Z" transform="translate(-184.766 -127.647)" fill="#fc7754"/>
          <g id="Group_1026" data-name="Group 1026" transform="translate(5.688 13.708)">
            <g id="Group_1020" data-name="Group 1020">
              <path id="Path_2496" data-name="Path 2496" d="M199.89,144.35a1.854,1.854,0,0,1-.63-.109l-9.25-3.313a1.868,1.868,0,0,1,1.26-3.517l9.251,3.313a1.868,1.868,0,0,1-.63,3.627Z" transform="translate(-188.772 -137.301)" fill="#fc7754"/>
            </g>
            <g id="Group_1021" data-name="Group 1021" transform="translate(0 6.104)">
              <path id="Path_2497" data-name="Path 2497" d="M199.89,148.649a1.854,1.854,0,0,1-.63-.109l-9.25-3.313a1.868,1.868,0,0,1,1.26-3.517l9.251,3.313a1.868,1.868,0,0,1-.63,3.627Z" transform="translate(-188.772 -141.6)" fill="#fc7754"/>
            </g>
            <g id="Group_1022" data-name="Group 1022" transform="translate(0 12.209)">
              <path id="Path_2498" data-name="Path 2498" d="M199.89,152.948a1.856,1.856,0,0,1-.63-.111l-9.25-3.311a1.868,1.868,0,0,1,1.26-3.517l9.251,3.311a1.869,1.869,0,0,1-.63,3.628Z" transform="translate(-188.772 -145.899)" fill="#fc7754"/>
            </g>
            <g id="Group_1023" data-name="Group 1023" transform="translate(20.635)">
              <path id="Path_2499" data-name="Path 2499" d="M205.173,144.35a1.868,1.868,0,0,1-.63-3.627l9.251-3.313a1.868,1.868,0,0,1,1.26,3.517l-9.25,3.313A1.853,1.853,0,0,1,205.173,144.35Z" transform="translate(-203.304 -137.301)" fill="#fc7754"/>
            </g>
            <g id="Group_1024" data-name="Group 1024" transform="translate(20.635 6.104)">
              <path id="Path_2500" data-name="Path 2500" d="M205.173,148.649a1.868,1.868,0,0,1-.63-3.627l9.251-3.313a1.868,1.868,0,0,1,1.26,3.517l-9.25,3.313A1.855,1.855,0,0,1,205.173,148.649Z" transform="translate(-203.304 -141.6)" fill="#fc7754"/>
            </g>
            <g id="Group_1025" data-name="Group 1025" transform="translate(20.635 12.209)">
              <path id="Path_2501" data-name="Path 2501" d="M205.173,152.948a1.869,1.869,0,0,1-.63-3.628l9.251-3.311a1.868,1.868,0,0,1,1.26,3.517l-9.25,3.311A1.856,1.856,0,0,1,205.173,152.948Z" transform="translate(-203.304 -145.899)" fill="#fc7754"/>
            </g>
          </g>
        </g>
      </g>
    </g>
  </g>
</svg>
