<svg xmlns="http://www.w3.org/2000/svg" width="40.433" height="50" viewBox="0 0 40.433 50">
  <g id="Android_phone" data-name="Android phone" transform="translate(0 0)">
    <g id="Group_318" data-name="Group 318" transform="translate(0.124 2.376)">
      <g id="Group_1018" data-name="Group 1018" transform="translate(-1154.124 -1004.376)">
        <path id="Path_2494" data-name="Path 2494" d="M473.748,160.739h2.462a1.124,1.124,0,0,0,1.138-1.124V132.1l.6.565a1.9,1.9,0,0,0,2.76-.158,2.093,2.093,0,0,0-.152-2.877l-17.625-16.471a2.7,2.7,0,0,0-3.715-.006l-17.782,16.471a2.092,2.092,0,0,0-.163,2.876,1.9,1.9,0,0,0,2.76.17l.238-.221V160.17l.016.441.025.759a1.058,1.058,0,0,0,1.037,1.044h30.96a1.06,1.06,0,0,0,1.037-1.081V157.9a1.125,1.125,0,0,0-1.126-1.124h-2.229c-.621,0-.559.5-.559,1.124l-.309,0H448.734V128.991l12.36-10.957,11.894,10.576v31C472.988,160.23,473.133,160.731,473.748,160.739Z" transform="translate(713.222 889.587)" fill="#fc7754"/>
        <g id="project_estimation" data-name="project estimation" transform="translate(1169.757 1021.422)">
          <path id="Path_1705" data-name="Path 1705" d="M1601.652,970.531h3.773a1.579,1.579,0,0,0,0-3.159h-.636v-2.283a1.579,1.579,0,0,0-3.159,0v2.284c-2.06.008-3.611,1.2-3.611,2.778v3.165c0,1.584,1.561,2.779,3.632,2.779h1.72a1.669,1.669,0,0,1,.474.063v2a1.685,1.685,0,0,1-.474.063H1599.6a1.579,1.579,0,0,0,0,3.159h2.031v2.54a1.579,1.579,0,0,0,3.159,0v-2.745A2.808,2.808,0,0,0,1607,978.6v-2.887c0-1.585-1.562-2.779-3.633-2.779h-1.72a1.7,1.7,0,0,1-.473-.063v-2.28A1.7,1.7,0,0,1,1601.652,970.531Z" transform="translate(-1598.02 -963.51)" fill="#fc7754"/>
        </g>
      </g>
    </g>
  </g>
</svg>
