<svg id="Restaurants" xmlns="http://www.w3.org/2000/svg" width="37.672" height="39.141" viewBox="0 0 37.672 39.141">
  <path id="Path_1470" data-name="Path 1470" d="M1556.281,619.823c.056,0,.111,0,.167,0a3.775,3.775,0,0,0,2.521-1.039l7.03-6.446a1.29,1.29,0,0,0,.067-1.842,1.336,1.336,0,0,0-1.869-.066l-7.057,6.47a.453.453,0,0,0-.087.084c-.376.333-1.318.465-2.812-.588l6.841-6.671a1.29,1.29,0,0,0,.01-1.843,1.338,1.338,0,0,0-1.871-.009l-6.9,6.729a3.008,3.008,0,0,1-.745-2.012,3.322,3.322,0,0,1,1.235-2.114,1.319,1.319,0,0,0,.129-.106l5.517-5.182a1.289,1.289,0,0,0,.045-1.842,1.337,1.337,0,0,0-1.87-.044l-5.466,5.134a5.813,5.813,0,0,0-2.226,3.947,5.609,5.609,0,0,0,1.5,4.061l-15.508,15.124a1.289,1.289,0,0,0-.009,1.842,1.337,1.337,0,0,0,1.871.009l15.557-15.17A6.583,6.583,0,0,0,1556.281,619.823Z" transform="translate(-1534.533 -602.94)" fill="#0092ff"/>
  <path id="Path_1471" data-name="Path 1471" d="M1584.1,632.459a1.336,1.336,0,0,0-1.869-.074l-14.988,13.621a7.2,7.2,0,0,0-8.453.444A14.525,14.525,0,0,0,1555,652.1c-1.107,2.865-1.039,5.249.192,6.712a4.985,4.985,0,0,0,3.982,1.538,11.588,11.588,0,0,0,2.578-.318,16.1,16.1,0,0,0,6.1-2.8,6.929,6.929,0,0,0,1.284-9.395l14.887-13.53A1.289,1.289,0,0,0,1584.1,632.459Zm-17.934,22.759a13.668,13.668,0,0,1-5.013,2.273c-1.906.438-3.372.309-3.922-.345-.571-.678-.477-2.258.243-4.123a12.149,12.149,0,0,1,3-4.566,4.464,4.464,0,0,1,2.836-1.01q.211,0,.424.02a4.448,4.448,0,0,1,3.016,1.57A4.35,4.35,0,0,1,1566.164,655.218Z" transform="translate(-1546.776 -621.206)" fill="#0092ff"/>
</svg>
