<svg xmlns="http://www.w3.org/2000/svg" width="45" height="45.007" viewBox="0 0 45 45.007">
  <g id="Android_phone" data-name="Android phone" transform="translate(0)">
    <g id="Group_318" data-name="Group 318" transform="translate(0.124 -1.572)">
      <g id="Custom_social_networking" data-name="Custom social networking" transform="translate(-711.214 -436.464)">
        <path id="Path_1460" data-name="Path 1460" d="M1246.826,658.95a6.569,6.569,0,1,0-9.423.017,8.506,8.506,0,0,0-5.182,7.329,1.418,1.418,0,0,0,1.395,1.434h.028a1.428,1.428,0,0,0,1.422-1.39c.015-.546.339-5.339,7.05-5.38,6.774-.026,7.349,5.067,7.392,5.64a1.423,1.423,0,0,0,1.419,1.334c.03,0,.06,0,.09,0a1.422,1.422,0,0,0,1.331-1.508A8.872,8.872,0,0,0,1246.826,658.95Zm-4.719-8.285a3.724,3.724,0,0,1,0,7.449h0a3.724,3.724,0,0,1,0-7.449Z" transform="translate(-508.69 -195.683)" fill="#ffc603"/>
        <path id="Path_2105" data-name="Path 2105" d="M114.594,154.049a4.035,4.035,0,0,0-1.427.259l-4.61-4.68a15.186,15.186,0,0,0-.714-18.873l4.568-4.5a4.2,4.2,0,1,0-2.714-3.924,4.233,4.233,0,0,0,.252,1.434l-4.673,4.61a15.162,15.162,0,0,0-18.866.707l-4.5-4.561a4.2,4.2,0,1,0-3.924,2.707,4.03,4.03,0,0,0,1.427-.252l4.61,4.673a15.16,15.16,0,0,0,.714,18.873l-4.568,4.5a4.2,4.2,0,1,0,2.714,3.924,4.233,4.233,0,0,0-.252-1.434l4.673-4.61a15.162,15.162,0,0,0,18.866-.707l4.5,4.561a4.2,4.2,0,1,0,3.924-2.707Zm-18.306-2.043a11.367,11.367,0,1,1,11.367-11.367A11.38,11.38,0,0,1,96.287,152.007Z" transform="translate(637.299 319.899)" fill="#ffc603"/>
      </g>
    </g>
  </g>
</svg>
