<svg xmlns="http://www.w3.org/2000/svg" width="37.495" height="37.495" viewBox="0 0 37.495 37.495">
  <path id="Path_2483" data-name="Path 2483" d="M1719.263,612.333a18.747,18.747,0,1,0,18.747,18.747A18.769,18.769,0,0,0,1719.263,612.333Zm14.476,23.031-5.219,1.2-3.188-3.3,1.21-4.917,3.281-1.791,4.938,2.372a15.5,15.5,0,0,1-.443,6.413A1.54,1.54,0,0,0,1733.74,635.364Zm-15.73-16.172-.247,4.582-4.425,2.462-3.545-1.184L1708.224,620a15.686,15.686,0,0,1,5.647-3.611Zm-1.166,27.35a15.6,15.6,0,0,1-7.972-3.774l1.412-5.026h5.749l3.524,4.135Zm3.5.146,2.444-4.2a1.55,1.55,0,0,0-.16-1.784l-4.7-5.514a1.548,1.548,0,0,0-1.179-.544h-7.638a1.549,1.549,0,0,0-1.491,1.13l-1.192,4.243a15.611,15.611,0,0,1-.531-17.065l1.173,3.778a1.549,1.549,0,0,0,.989,1.01l4.946,1.652a1.549,1.549,0,0,0,1.244-.116l5.769-3.209a1.548,1.548,0,0,0,.794-1.27l.341-6.311a1.55,1.55,0,0,0-.678-1.366l-2.417-1.637c.4-.031.8-.051,1.207-.051a15.673,15.673,0,0,1,14.406,9.538l-3.22-1.546a1.547,1.547,0,0,0-1.413.036l-4.577,2.5a1.548,1.548,0,0,0-.762.99l-1.578,6.41a1.549,1.549,0,0,0,.39,1.446l4.391,4.546a1.549,1.549,0,0,0,1.114.473,1.525,1.525,0,0,0,.348-.04l4.542-1.047A15.666,15.666,0,0,1,1720.342,646.689Z" transform="translate(-1700.516 -612.333)" fill="#0092ff"/>
</svg>
