<svg xmlns="http://www.w3.org/2000/svg" width="50.425" height="45.744" viewBox="0 0 50.425 45.744">
  <g id="Android_phone" data-name="Android phone" transform="translate(0.204 0.2)">
    <g id="Group_318" data-name="Group 318" transform="translate(0.124 -0.624)">
      <g id="Travel_and_Tourism" data-name="Travel and Tourism" transform="translate(-0.124 0.624)">
        <g id="Global_buyer_Access" data-name="Global buyer Access" transform="translate(6.763 6.729)">
          <g id="Group_635" data-name="Group 635">
            <path id="Path_1958" data-name="Path 1958" d="M22.665,8.449A15.766,15.766,0,0,0,6.955,23.167a.263.263,0,0,0,0,.069c-.021.316-.03.637-.03.959A15.76,15.76,0,0,0,27.534,39.166a1.483,1.483,0,1,0-.914-2.822h0a12.821,12.821,0,0,1-8.146-.082l.043-.04c-.529-.647-.86-2.428-1.209-4.315-.484-2.6-3.9-6.714-5.286-7.2a1.146,1.146,0,0,1,.331.153,32.48,32.48,0,0,1-2.324-2.566A12.684,12.684,0,0,1,13.9,14.907a8.9,8.9,0,0,1,2.017,3.333,12.8,12.8,0,0,1,.243,2.317A5.964,5.964,0,0,0,16.323,22,11.412,11.412,0,0,0,18.2,25.43a3.9,3.9,0,0,0,2.524,1.1,2.122,2.122,0,0,0,.9-.189,5.12,5.12,0,0,0,2.275-3.4c.247-.634,2.264-2.7,4.037-2.852A46.586,46.586,0,0,0,34.3,18.872,12.769,12.769,0,0,1,35.39,23.04a1.484,1.484,0,0,0,2.961-.208c0-.019,0-.039,0-.058A15.658,15.658,0,0,0,22.665,8.449ZM10.979,27.481c.742.607,3.11,3.346,3.411,4.968.12.632.228,1.217.337,1.743a12.76,12.76,0,0,1-4.551-7.31A3.276,3.276,0,0,0,10.979,27.481Zm16.7-10.354c-3.119.267-6.381,3.456-6.7,5.245a2.759,2.759,0,0,1-.495,1.082c-.054-.03-.1-.054-.142-.079a9.528,9.528,0,0,1-1.146-2.106,3.329,3.329,0,0,1-.069-.781,15.254,15.254,0,0,0-.291-2.8,11.2,11.2,0,0,0-2.546-4.568,12.8,12.8,0,0,1,16.387,3.09,38.881,38.881,0,0,1-4.992.914Z" transform="translate(-6.917 -8.449)" fill="#ffc603" stroke="#ffc603" stroke-width="0.4"/>
            <path id="Path_1959" data-name="Path 1959" d="M6.957,18.269a.532.532,0,0,0,0,.069.224.224,0,0,1-.034-.04Z" transform="translate(-6.918 -3.552)" fill="#ffc603" stroke="#ffc603" stroke-width="0.4"/>
          </g>
          <g id="Group_636" data-name="Group 636" transform="translate(13.338 19.55)">
            <path id="Path_1960" data-name="Path 1960" d="M18.229,26.273a1.481,1.481,0,0,1-1.32-.811l-.928-1.809A1.483,1.483,0,1,1,18.622,22.3h0l.928,1.81a1.486,1.486,0,0,1-1.319,2.16Z" transform="translate(-15.818 -21.494)" fill="#ffc603" stroke="#ffc603" stroke-width="0.4"/>
          </g>
        </g>
        <path id="Path_2276" data-name="Path 2276" d="M16.3,6.328h.1c.566-.051,1.185-.1,1.752-.1h.154a1.219,1.219,0,0,0,1.133-1.134,1.143,1.143,0,0,0-1.133-1.133h-.205a13.189,13.189,0,0,0-1.959.154,1.077,1.077,0,0,0-.989,1.157c0,.027.006.054.01.081A1.119,1.119,0,0,0,16.3,6.328Z" transform="translate(3.952 -3.959)" fill="#ffc603" stroke="#ffc603" stroke-width="0.4"/>
        <path id="Path_2277" data-name="Path 2277" d="M7.836,10.708a1.141,1.141,0,0,0,.773-.309,16.775,16.775,0,0,1,1.443-1.286,1.1,1.1,0,0,0-1.392-1.7h0q-.834.681-1.6,1.442A1.093,1.093,0,0,0,7.007,10.4l.055.055A1.264,1.264,0,0,0,7.836,10.708Z" transform="translate(-0.256 -2.361)" fill="#ffc603" stroke="#ffc603" stroke-width="0.4"/>
        <path id="Path_2278" data-name="Path 2278" d="M3.445,19.266h.207a1.151,1.151,0,0,0,1.082-.98c.1-.619.205-1.286.36-1.9a1.113,1.113,0,1,0-2.165-.517c-.154.67-.309,1.391-.412,2.113a1.114,1.114,0,0,0,.911,1.286Z" transform="translate(-2.358 1.551)" fill="#ffc603" stroke="#ffc603" stroke-width="0.4"/>
        <path id="Path_2279" data-name="Path 2279" d="M11.713,7.812a1.452,1.452,0,0,0,.463-.1,19.309,19.309,0,0,1,1.8-.721,1.125,1.125,0,0,0-.772-2.113h0c-.67.258-1.34.516-1.959.824a1.114,1.114,0,0,0-.522,1.484l.006.012A1.01,1.01,0,0,0,11.713,7.812Z" transform="translate(1.69 -3.537)" fill="#ffc603" stroke="#ffc603" stroke-width="0.4"/>
        <path id="Path_2280" data-name="Path 2280" d="M20.755,6.51c.619.154,1.238.309,1.857.516a.871.871,0,0,0,.361.051A1.1,1.1,0,0,0,24,6.3a1.061,1.061,0,0,0-.628-1.361c-.031-.012-.061-.021-.093-.03-.67-.207-1.391-.412-2.061-.566a1.123,1.123,0,0,0-1.34.824A1.2,1.2,0,0,0,20.755,6.51Z" transform="translate(6.302 -3.78)" fill="#ffc603" stroke="#ffc603" stroke-width="0.4"/>
        <path id="Path_2281" data-name="Path 2281" d="M30.918,16.683a1.142,1.142,0,0,0,1.08.824.475.475,0,0,0,.258-.051A1.105,1.105,0,0,0,33.04,16.1l-.01-.039c-.205-.67-.412-1.391-.67-2.061a1.125,1.125,0,0,0-2.113.772h0C30.506,15.447,30.711,16.065,30.918,16.683Z" transform="translate(11.443 0.681)" fill="#ffc603" stroke="#ffc603" stroke-width="0.4"/>
        <path id="Path_2282" data-name="Path 2282" d="M4.936,22.677c-.1-.619-.207-1.289-.258-1.9a1.187,1.187,0,0,0-1.238-1.03A1.147,1.147,0,0,0,2.409,20.98a13.788,13.788,0,0,0,.309,2.113,1.115,1.115,0,0,0,1.133.928h.207A1.2,1.2,0,0,0,4.936,22.677Z" transform="translate(-2.405 3.91)" fill="#ffc603" stroke="#ffc603" stroke-width="0.4"/>
        <path id="Path_2283" data-name="Path 2283" d="M29.259,12.569a1.15,1.15,0,0,0,.928.516.982.982,0,0,0,.619-.207,1.142,1.142,0,0,0,.31-1.545q-.6-.881-1.286-1.7a1.135,1.135,0,0,0-1.753,1.443A10.727,10.727,0,0,1,29.259,12.569Z" transform="translate(10.266 -1.337)" fill="#ffc603" stroke="#ffc603" stroke-width="0.4"/>
        <path id="Path_2284" data-name="Path 2284" d="M24.788,8.154c.566.361,1.082.721,1.6,1.082a1.179,1.179,0,0,0,.722.205,1.076,1.076,0,0,0,.875-.463,1.125,1.125,0,0,0-.207-1.547c-.566-.412-1.185-.824-1.75-1.185a1.15,1.15,0,0,0-1.547.361,1.091,1.091,0,0,0,.267,1.518Z" transform="translate(8.503 -2.898)" fill="#ffc603" stroke="#ffc603" stroke-width="0.4"/>
        <path id="Path_2285" data-name="Path 2285" d="M17.786,32.812c-.619-.051-1.289-.1-1.9-.205a1.123,1.123,0,0,0-.4,2.209l.04.006a15.592,15.592,0,0,0,2.113.207h.1a1.109,1.109,0,0,0,.051-2.216Z" transform="translate(3.654 10.316)" fill="#ffc603" stroke="#ffc603" stroke-width="0.4"/>
        <path id="Path_2286" data-name="Path 2286" d="M22.078,32.276c-.619.154-1.238.309-1.857.412a1.115,1.115,0,0,0,.205,2.216h.16c.721-.1,1.391-.31,2.113-.465a1.106,1.106,0,0,0,.782-1.353l-.01-.037a1.07,1.07,0,0,0-1.28-.806A.991.991,0,0,0,22.078,32.276Z" transform="translate(6.008 10.13)" fill="#ffc603" stroke="#ffc603" stroke-width="0.4"/>
        <path id="Path_2287" data-name="Path 2287" d="M25.973,30.393a17.839,17.839,0,0,1-1.648,1.031,1.148,1.148,0,0,0-.412,1.545,1.162,1.162,0,0,0,.979.568.985.985,0,0,0,.516-.156,21.016,21.016,0,0,0,1.8-1.133,1.141,1.141,0,0,0,.309-1.545,1.107,1.107,0,0,0-1.533-.318Z" transform="translate(8.246 9.127)" fill="#ffc603" stroke="#ffc603" stroke-width="0.4"/>
        <path id="Path_2288" data-name="Path 2288" d="M13.434,32.057a18.1,18.1,0,0,1-1.752-.824,1.107,1.107,0,0,0-1.031,1.959c.62.309,1.289.619,1.959.928a1.492,1.492,0,0,0,.463.1,1.109,1.109,0,0,0,.361-2.162Z" transform="translate(1.412 9.576)" fill="#ffc603" stroke="#ffc603" stroke-width="0.4"/>
        <path id="Path_2289" data-name="Path 2289" d="M8.216,28.593a1.13,1.13,0,1,0-1.648,1.545c.516.516,1.031,1.031,1.545,1.494a1.085,1.085,0,0,0,.773.258,1.221,1.221,0,0,0,.824-.36,1.138,1.138,0,0,0-.1-1.6C9.144,29.521,8.681,29.056,8.216,28.593Z" transform="translate(-0.482 8.145)" fill="#ffc603" stroke="#ffc603" stroke-width="0.4"/>
        <path id="Path_2290" data-name="Path 2290" d="M5.776,24.982a1.131,1.131,0,0,0-2.062.928c.309.62.619,1.289.979,1.9a1.166,1.166,0,0,0,.98.568.88.88,0,0,0,.516-.154A1.152,1.152,0,0,0,6.6,26.681C6.341,26.115,6.033,25.55,5.776,24.982Z" transform="translate(-1.802 6.191)" fill="#ffc603" stroke="#ffc603" stroke-width="0.4"/>
        <path id="Path_2291" data-name="Path 2291" d="M6.621,10.82a1.147,1.147,0,0,0-1.545.36L3.994,13.037a1.113,1.113,0,0,0,.5,1.49l.012.006a.946.946,0,0,0,.516.1A1.156,1.156,0,0,0,6,14.015c.309-.566.619-1.133.979-1.7A1.107,1.107,0,0,0,6.621,10.82Z" transform="translate(-1.67 -0.618)" fill="#ffc603" stroke="#ffc603" stroke-width="0.4"/>
        <path id="Path_2292" data-name="Path 2292" d="M40.941,30.83l-3.8-6.1,1.5-3.429a3.91,3.91,0,0,0,0-3.105.831.831,0,0,0-1.07-.481,3.944,3.944,0,0,0-2.3,2.143l-1.5,3.429L26.7,24.567a1.189,1.189,0,0,0-.91.751l-.8,1.821a.236.236,0,0,0,.133.3.243.243,0,0,0,.081.016l6.961-.321L30.5,31.9l-2.73.375a.818.818,0,0,0-.7.537l-.214.535a.241.241,0,0,0,.13.312l.031.009,2.73.751a1.088,1.088,0,0,0,.7,1.124,1.155,1.155,0,0,0,1.286-.268l2.356,1.5a.256.256,0,0,0,.321-.106l.214-.535a.837.837,0,0,0-.106-.857L32.91,33.027l2.41-4.443,4.5,5.355a.227.227,0,0,0,.319.019.221.221,0,0,0,.055-.073l.8-1.821A1.119,1.119,0,0,0,40.941,30.83Z" transform="translate(8.845 2.871)" fill="#ffc603" stroke="#ffc603" stroke-width="0.4"/>
      </g>
    </g>
  </g>
</svg>
