<svg xmlns="http://www.w3.org/2000/svg" width="33.703" height="30.792" viewBox="0 0 33.703 30.792">
  <g id="noun_diagram_1248070" transform="translate(-6.403 -7.052)">
    <path id="Path_16" data-name="Path 16" d="M31.333,34.885v3.848H23a1.926,1.926,0,0,0-1.924,1.924v3.206c0,.355,1.283.355,1.283,0V40.657A.642.642,0,0,1,23,40.015H40.953a.642.642,0,0,1,.641.641v3.206c0,.355,1.283.355,1.283,0V40.657a1.926,1.926,0,0,0-1.924-1.924H32.616V34.885" transform="translate(-8.72 -16.822)" fill="#ffb302" stroke="#ffb400" stroke-width="1"/>
    <path id="Path_17" data-name="Path 17" d="M43.555,16.616H35.764a2.2,2.2,0,0,1-2.195-2.195V9.747a2.2,2.2,0,0,1,2.195-2.195h7.791a2.2,2.2,0,0,1,2.194,2.195v4.675A2.2,2.2,0,0,1,43.555,16.616ZM35.764,8.825a.923.923,0,0,0-.922.922v4.675a.923.923,0,0,0,.922.922h7.791a.923.923,0,0,0,.922-.922V9.747a.923.923,0,0,0-.922-.922Z" transform="translate(-16.411)" fill="#ffb302" stroke="#ffb400" stroke-width="1"/>
    <path id="Path_18" data-name="Path 18" d="M16.889,70.518H9.1A2.2,2.2,0,0,1,6.9,68.323V63.65A2.2,2.2,0,0,1,9.1,61.455h7.791a2.2,2.2,0,0,1,2.195,2.195v4.673A2.2,2.2,0,0,1,16.889,70.518ZM9.1,62.728a.923.923,0,0,0-.922.922v4.673a.923.923,0,0,0,.922.922h7.791a.923.923,0,0,0,.922-.922V63.65a.923.923,0,0,0-.922-.922Z" transform="translate(0 -33.174)" fill="#ffb302" stroke="#ffb400" stroke-width="1"/>
    <path id="Path_19" data-name="Path 19" d="M70.256,70.518H62.464a2.2,2.2,0,0,1-2.194-2.195V63.65a2.2,2.2,0,0,1,2.194-2.195h7.792A2.2,2.2,0,0,1,72.45,63.65v4.673A2.2,2.2,0,0,1,70.256,70.518Zm-7.791-7.79a.923.923,0,0,0-.921.922v4.673a.922.922,0,0,0,.921.922h7.792a.922.922,0,0,0,.921-.922V63.65a.923.923,0,0,0-.921-.922Z" transform="translate(-32.844 -33.174)" fill="#ffb302" stroke="#ffb400" stroke-width="1"/>
  </g>
</svg>
