<svg xmlns="http://www.w3.org/2000/svg" width="33.769" height="32.365" viewBox="0 0 33.769 32.365">
  <g id="Group_2512" data-name="Group 2512" transform="translate(11919.03 7779.687)">
    <path id="Path_14701" data-name="Path 14701" d="M122.025,49.613a11.9,11.9,0,1,0,8.4,3.485,11.886,11.886,0,0,0-8.4-3.485Zm0,21.96a10.086,10.086,0,1,1,7.121-2.954,10.077,10.077,0,0,1-7.121,2.954Zm5.124-12.6-5.675,7.365a.9.9,0,0,1-.717.353h0a.906.906,0,0,1-.717-.355l-3.139-4.1h0a.9.9,0,0,1,1.438-1.1L120.76,64.3l4.955-6.431h0a.905.905,0,1,1,1.434,1.1Zm10.019,5.612a4.731,4.731,0,0,0,1.742-3.085,4.731,4.731,0,0,0-1.742-3.085,4.969,4.969,0,0,1-1.133-1.467A5.148,5.148,0,0,1,136.078,55a4.662,4.662,0,0,0-.393-3.432,4.682,4.682,0,0,0-3.164-1.441,5.1,5.1,0,0,1-1.838-.549,5.048,5.048,0,0,1-1.07-1.56,4.7,4.7,0,0,0-2.368-2.586,4.626,4.626,0,0,0-3.346.683,5.2,5.2,0,0,1-1.873.651,5.2,5.2,0,0,1-1.872-.651,4.625,4.625,0,0,0-3.346-.683,4.7,4.7,0,0,0-2.369,2.586h0a5.041,5.041,0,0,1-1.07,1.56,5.089,5.089,0,0,1-1.838.548,4.688,4.688,0,0,0-3.165,1.441A4.663,4.663,0,0,0,107.972,55h0a5.149,5.149,0,0,1,.043,1.942,4.968,4.968,0,0,1-1.133,1.467,4.731,4.731,0,0,0-1.742,3.085,4.731,4.731,0,0,0,1.742,3.085,4.969,4.969,0,0,1,1.133,1.467,5.149,5.149,0,0,1-.043,1.942,4.662,4.662,0,0,0,.393,3.432,4.682,4.682,0,0,0,3.164,1.441,5.1,5.1,0,0,1,1.838.549,5.047,5.047,0,0,1,1.07,1.56,4.7,4.7,0,0,0,2.368,2.586,4.625,4.625,0,0,0,3.346-.683h0a5.2,5.2,0,0,1,1.873-.651,5.2,5.2,0,0,1,1.873.651,6.225,6.225,0,0,0,2.565.8,2.521,2.521,0,0,0,.781-.121,4.7,4.7,0,0,0,2.369-2.586h0a5.042,5.042,0,0,1,1.07-1.56,5.084,5.084,0,0,1,1.838-.548,4.688,4.688,0,0,0,3.165-1.441,4.663,4.663,0,0,0,.393-3.432,5.148,5.148,0,0,1-.043-1.942,4.972,4.972,0,0,1,1.133-1.467Zm-1.306-1.254a6.058,6.058,0,0,0-1.548,2.162,6.265,6.265,0,0,0-.03,2.74,3.6,3.6,0,0,1-.062,2.128c-.3.412-1.177.572-2.025.725h0a4.5,4.5,0,0,0-4.179,3.034c-.411.766-.836,1.559-1.333,1.72-.455.15-1.243-.229-2-.594a4.668,4.668,0,0,0-5.309,0c-.761.365-1.549.741-2,.594-.5-.161-.921-.953-1.332-1.72a4.5,4.5,0,0,0-4.18-3.034c-.848-.154-1.725-.314-2.025-.725a3.6,3.6,0,0,1-.062-2.128,6.265,6.265,0,0,0-.03-2.74,6.058,6.058,0,0,0-1.548-2.162c-.609-.634-1.238-1.289-1.238-1.831s.629-1.2,1.237-1.831a6.058,6.058,0,0,0,1.548-2.162,6.265,6.265,0,0,0,.03-2.74,3.6,3.6,0,0,1,.063-2.128c.3-.412,1.177-.572,2.025-.725h0a6.2,6.2,0,0,0,2.58-.865,6.14,6.14,0,0,0,1.6-2.168c.411-.767.836-1.559,1.333-1.72.455-.15,1.243.229,2,.594a4.669,4.669,0,0,0,5.309,0c.761-.365,1.548-.741,2-.594.5.161.921.953,1.332,1.72a6.144,6.144,0,0,0,1.6,2.168,6.2,6.2,0,0,0,2.58.865c.848.154,1.725.314,2.025.725a3.6,3.6,0,0,1,.062,2.128,6.265,6.265,0,0,0,.03,2.74,6.058,6.058,0,0,0,1.548,2.162c.608.634,1.237,1.289,1.237,1.831s-.628,1.2-1.237,1.831Z" transform="translate(-12024.171 -7825.002)" fill="#0092ff"/>
  </g>
</svg>
