<svg xmlns="http://www.w3.org/2000/svg" width="31" height="30.969" viewBox="0 0 31 30.969">
  <g id="Group_103930" data-name="Group 103930" transform="translate(-1040.039 -4475.869)">
    <path id="Path_64207" data-name="Path 64207" d="M84.952-.012a15.231,15.231,0,1,0,10.42,26.324l-.673-.673h0A14.273,14.273,0,1,1,84.476.952v1.9A12.327,12.327,0,0,0,76.55,6.144l.673.673h0a11.4,11.4,0,0,1,15.458,0l.673-.673h0a12.327,12.327,0,0,0-7.926-3.289V.952A14.291,14.291,0,0,1,99.218,14.742h-1.9a12.327,12.327,0,0,0-3.289-7.926l-.673.673h0A11.418,11.418,0,1,1,74.842,20.527l-.861.407a12.37,12.37,0,0,0,23.333-5.241h1.9a14.226,14.226,0,0,1-3.847,9.272l.673.673h0A15.219,15.219,0,0,0,84.952-.013Z" transform="translate(970.605 4476.132)" fill="#fe784e" stroke="#ff7847" stroke-width="0.5"/>
    <path id="Path_64208" data-name="Path 64208" d="M125.8,110.261A12.351,12.351,0,0,0,123.5,123.52l.86-.407a11.349,11.349,0,0,1-.891-3.974h2.142a9.281,9.281,0,0,0,18.538,0h-.954a8.34,8.34,0,0,1-7.839,7.839v-2.147a6.187,6.187,0,1,0-6.643-6.643h.954a5.236,5.236,0,1,1,0,.952h-.954a6.195,6.195,0,0,0,5.691,5.692v2.147a8.329,8.329,0,1,1,8.791-8.791h.954a9.281,9.281,0,0,0-18.538,0h-2.142a11.378,11.378,0,0,1,3.01-7.253Z" transform="translate(920.68 4372.688)" fill="#fe784e" stroke="#ff7847" stroke-width="0.5"/>
  </g>
</svg>
