<svg xmlns="http://www.w3.org/2000/svg" width="127.777" height="57.515" viewBox="0 0 127.777 57.515">
  <g id="Group_2239" data-name="Group 2239" transform="translate(-2940.678 2986.252)">
    <g id="Group_2237" data-name="Group 2237" transform="translate(2998.884 -2968.911)">
      <path id="Path_14769" data-name="Path 14769" d="M3659.821-2762.233c.533-.389.933-.786,1.417-1.078a6.133,6.133,0,0,1,4.168-.787,6.9,6.9,0,0,1,5.471,5.618,8.786,8.786,0,0,1-.557,5.438,6.467,6.467,0,0,1-6.586,3.991,5.786,5.786,0,0,1-3.359-1.368c-.153-.126-.314-.243-.55-.426,0,.4-.015.717,0,1.032.017.273-.063.384-.359.378-.88-.017-1.761-.015-2.641,0-.309.005-.384-.11-.384-.407q.012-10.781.012-21.561c0-.357-.18-.817.085-1.047.234-.2.677-.051,1.027-.057.609-.009,1.22.017,1.828-.01.345-.015.433.1.431.434-.013,2.68-.009,5.36-.01,8.04C3659.82-2763.475,3659.821-2762.907,3659.821-2762.233Zm3.9,1.084a3.649,3.649,0,0,0-3.414,1.856,5.251,5.251,0,0,0-.57,3.949,3.823,3.823,0,0,0,2.472,3.068,3.778,3.778,0,0,0,4.761-1.679,5.224,5.224,0,0,0,.263-4.723A3.694,3.694,0,0,0,3663.724-2761.149Z" transform="translate(-3656.399 2772.594)" fill="#305290"/>
      <path id="Path_14770" data-name="Path 14770" d="M4183.918-2749.877h-1.849a10.445,10.445,0,0,0-1.218.01,1.087,1.087,0,0,1-1.073-.541c-1.116-1.456-2.263-2.889-3.4-4.329-.075-.095-.162-.18-.325-.359v.628c0,1.408-.006,2.816.007,4.224,0,.286-.082.376-.366.372-.894-.014-1.789-.019-2.682,0-.344.008-.434-.11-.432-.443q.016-5.1.006-10.194,0-5.99-.006-11.981c0-.525,0-.525.533-.525.826,0,1.653.018,2.479-.008.37-.012.474.095.473.471-.015,4.2-.011,8.394-.012,12.591v.839a6.415,6.415,0,0,0,.891-1.02c1.032-1.3,2.05-2.611,3.074-3.917a.518.518,0,0,1,.434-.251c1.083.009,2.167.005,3.251.007a.78.78,0,0,1,.158.053c-.408.527-.793,1.038-1.191,1.539q-2.1,2.646-4.215,5.283c-.175.219-.231.392-.036.636q2.188,2.735,4.361,5.482C4183.131-2750.865,4183.484-2750.422,4183.918-2749.877Z" transform="translate(-4130.603 2773.022)" fill="#305290"/>
      <path id="Path_14771" data-name="Path 14771" d="M3974.7-2668.268c.438-.308.748-.625,1.13-.848a5.477,5.477,0,0,1,5.466-.167,4.254,4.254,0,0,1,2.256,3.37,12.8,12.8,0,0,1,.163,2.14c-.007,2.721-.01,5.443.006,8.163,0,.358-.091.468-.45.458-.852-.025-1.707-.021-2.559,0-.308.006-.385-.1-.384-.4.009-2.708,0-5.415,0-8.122a5.318,5.318,0,0,0-.33-1.947,1.812,1.812,0,0,0-1.354-1.166,4.1,4.1,0,0,0-1.812-.011,2.606,2.606,0,0,0-1.961,2.452,11.624,11.624,0,0,0-.171,2.1c.006,2.22-.005,4.44.009,6.66,0,.339-.094.443-.43.435-.839-.02-1.68-.015-2.52,0-.287,0-.4-.063-.4-.382q.015-6.8,0-13.605c0-.307.094-.391.4-.384q1.279.029,2.56,0c.3-.006.418.082.391.39C3974.677-2668.875,3974.7-2668.609,3974.7-2668.268Z" transform="translate(-3945.74 2678.316)" fill="#30528f"/>
      <path id="Path_14772" data-name="Path 14772" d="M4325.173-2651.554c.492-.6.919-1.136,1.354-1.664,1.417-1.719,2.832-3.44,4.262-5.148a.536.536,0,0,0-.02-.819q-2.666-3.207-5.3-6.436c-.077-.093-.146-.191-.22-.288.1-.133.231-.069.342-.07,1-.006,2,0,3.006-.01a.682.682,0,0,1,.613.293c1.119,1.421,2.258,2.826,3.394,4.234.318.4.33.4.63.007,1.083-1.394,2.209-2.755,3.25-4.183a.75.75,0,0,1,.674-.357c.96.024,1.922.009,2.884.012.1,0,.239-.054.3.057.071.13-.055.223-.127.313q-1.86,2.341-3.725,4.678c-.487.613-.957,1.239-1.454,1.844a.427.427,0,0,0-.014.633c.848,1.051,1.684,2.111,2.523,3.168q1.322,1.662,2.643,3.327c.079.1.21.219.138.354-.064.119-.224.052-.338.052-.921,0-1.842-.019-2.762.014a.839.839,0,0,1-.777-.4c-.936-1.3-1.965-2.535-2.958-3.793-.179-.226-.291-.629-.58-.619-.237.008-.366.389-.542.6-.979,1.2-1.959,2.4-2.911,3.624a1.264,1.264,0,0,1-1.178.584C4327.278-2651.594,4326.275-2651.554,4325.173-2651.554Z" transform="translate(-4270.786 2674.7)" fill="#30528e"/>
      <path id="Path_14773" data-name="Path 14773" d="M3882.155-2657.74c0,2.233-.006,4.465.006,6.7,0,.349-.066.5-.464.484-.8-.034-1.6-.034-2.4,0-.44.019-.477-.192-.476-.538q.01-6.089,0-12.178c0-.433,0-.866,0-1.3,0-.25.093-.362.363-.358.853.013,1.706.02,2.559,0,.325-.009.412.1.411.413C3882.15-2662.259,3882.155-2660,3882.155-2657.74Z" transform="translate(-3860.738 2673.722)" fill="#305391"/>
      <path id="Path_14774" data-name="Path 14774" d="M3875.011-2763.864a2.132,2.132,0,0,1,2.127,2.219,2.194,2.194,0,0,1-2.2,2.136,2.2,2.2,0,0,1-2.156-2.23A2.145,2.145,0,0,1,3875.011-2763.864Z" transform="translate(-3855.183 2764.609)" fill="#31528d"/>
    </g>
    <g id="Group_2238" data-name="Group 2238" transform="translate(2940.678 -2986.252)">
      <path id="Path_14775" data-name="Path 14775" d="M2966.809-2770.117l-.037.017-.449.039a31.393,31.393,0,0,1-4.97-.087,29.127,29.127,0,0,1-9.739-2.769,29,29,0,0,1-8.38-6.091,27.788,27.788,0,0,1-2.494-2.993c-.115-.159-.062-.177.1-.189a28.921,28.921,0,0,1,6.281.183,29.113,29.113,0,0,1,10.206,3.422,28.854,28.854,0,0,1,7.079,5.522c.663.707,1.285,1.448,1.877,2.215A3.723,3.723,0,0,1,2966.809-2770.117Z" transform="translate(-2940.678 2798.871)" fill="#b702b9"/>
      <path id="Path_14776" data-name="Path 14776" d="M3261.992-2770.117l.037.017.449.039a31.394,31.394,0,0,0,4.97-.087,29.123,29.123,0,0,0,9.738-2.769,29,29,0,0,0,8.381-6.091,27.79,27.79,0,0,0,2.494-2.993c.115-.159.061-.177-.1-.189a28.927,28.927,0,0,0-6.282.183,29.115,29.115,0,0,0-10.206,3.422,28.858,28.858,0,0,0-7.079,5.522c-.662.707-1.285,1.448-1.876,2.215A3.717,3.717,0,0,0,3261.992-2770.117Z" transform="translate(-3235.862 2798.871)" fill="#fef365"/>
      <path id="Path_14777" data-name="Path 14777" d="M2966.809-2633.874l-.037-.017-.449-.039a31.393,31.393,0,0,0-4.97.087,29.127,29.127,0,0,0-9.739,2.769,29,29,0,0,0-8.38,6.09,27.812,27.812,0,0,0-2.494,2.993c-.115.159-.062.177.1.19a28.905,28.905,0,0,0,6.281-.183,29.106,29.106,0,0,0,10.206-3.421,28.861,28.861,0,0,0,7.079-5.523c.663-.707,1.285-1.447,1.877-2.215A3.725,3.725,0,0,0,2966.809-2633.874Z" transform="translate(-2940.678 2662.635)" fill="#5f5ba8"/>
      <path id="Path_14778" data-name="Path 14778" d="M3262.088-2633.914l.037-.017.449-.039a31.365,31.365,0,0,1,4.97.087,29.125,29.125,0,0,1,9.738,2.769,28.994,28.994,0,0,1,8.381,6.09,27.762,27.762,0,0,1,2.494,2.994c.115.159.061.177-.1.189a28.91,28.91,0,0,1-6.282-.183,29.109,29.109,0,0,1-10.206-3.421,28.854,28.854,0,0,1-7.079-5.522c-.663-.707-1.285-1.448-1.876-2.215A3.743,3.743,0,0,1,3262.088-2633.914Z" transform="translate(-3235.949 2662.672)" fill="#37b677"/>
      <path id="Path_14779" data-name="Path 14779" d="M3220.261-2632.69l-.03.027-.22.394a31.343,31.343,0,0,0-1.961,4.567,29.125,29.125,0,0,0-1.475,10.017,29,29,0,0,0,2.111,10.143,27.813,27.813,0,0,0,1.705,3.5c.1.17.136.128.213-.01a28.925,28.925,0,0,0,2.413-5.8,29.113,29.113,0,0,0,1.072-10.71,28.846,28.846,0,0,0-2.128-8.722c-.372-.9-.792-1.766-1.249-2.621A3.708,3.708,0,0,0,3220.261-2632.69Z" transform="translate(-3194.128 2661.443)" fill="#01bdf2"/>
      <path id="Path_14780" data-name="Path 14780" d="M3217.261-2986.252l-.03.027-.22.394a31.34,31.34,0,0,0-1.961,4.567,29.116,29.116,0,0,0-1.475,10.017,29,29,0,0,0,2.111,10.143,27.777,27.777,0,0,0,1.705,3.5c.1.17.136.129.212-.01a28.9,28.9,0,0,0,2.413-5.8,29.114,29.114,0,0,0,1.072-10.711,28.863,28.863,0,0,0-2.128-8.722c-.372-.894-.792-1.766-1.249-2.621A3.713,3.713,0,0,0,3217.261-2986.252Z" transform="translate(-3191.373 2986.252)" fill="#f16a4d"/>
    </g>
  </g>
</svg>
