<svg id="Layer_1" data-name="Layer 1" xmlns="http://www.w3.org/2000/svg" viewBox="0 0 229.27 45.2"><defs><style>.cls-1{fill:#2b4a98;}.cls-2{fill:#0bb6e8;}</style></defs><title>appinventivs-clients</title><g id="Al_Futtaim" data-name="Al Futtaim"><path id="Path_1166" data-name="Path 1166" class="cls-1" d="M165.09,18.82l-1.48,3.7h-.37v-3.7h-3.71V14h-8.15v4.82H148V14h-7.78v4.82H129.64c0,3.89-.06,15.2-.06,15.2h-5.26V18.82h-12.6V14.37h12.6V8.81H103.93V39.2h7.78V24.38h5.43V34l2.75,5.12h1.17s0,.07,0,.09h15.48V24.38h3.71V39.2H148V24.38h3.34V39.2h8.15V24.38h3.34V34.76l2.22,4.44h18.17V18.82Zm10,15.2h-4.45V24.38h4.45Z"/><path id="Path_1167" data-name="Path 1167" class="cls-1" d="M93.92,24h7.79V29.2H93.92V24"/><path id="Path_1168" data-name="Path 1168" class="cls-1" d="M225.88,18.82l2.22,4.45V39.2h-7.78V24.38H217V39.2H209.2V24.38h-3.71V39.2h-7.78V18.74s21.87.08,28.17.08"/><path id="Path_1169" data-name="Path 1169" class="cls-1" d="M186.59,18.82h7.79V39.2h-7.79V18.82"/><path id="Path_1170" data-name="Path 1170" class="cls-1" d="M186.59,8.81h7.79v5.56h-7.79V8.81"/><path id="Path_1171" data-name="Path 1171" class="cls-1" d="M83.91,8.81H91.7V39.2H83.91V8.81"/><path id="Path_1172" data-name="Path 1172" class="cls-1" d="M66.64,9,56.82,38.3h7.44l3.37-9.25h5.51v9.44h7.18V8.93Zm2.83,15,3.67-10.06V24Z"/><path id="Path_1173" data-name="Path 1173" class="cls-2" d="M25.66,1,1.17,25.72l5.52,6,6.24-6,6.24,6L13.41,38l6.24,6.24,6-6.24,6,6.24L37.91,38l-5.76-6.24,6.24-6,6.24,6,5.52-6Zm0,24.07-6-5.59,6-6,6,6Z"/></g></svg>