<svg xmlns="http://www.w3.org/2000/svg" width="131.934" height="43.259" viewBox="0 0 131.934 43.259">
  <g id="Group_2240" data-name="Group 2240" transform="translate(-169.295 -378.863)">
    <path id="path2998" d="M201.732,394.14h-15.4v4.568h10.919c-.539,6.406-5.869,9.138-10.9,9.138a12.2,12.2,0,0,1,.014-24.4,11.848,11.848,0,0,1,8.231,3.3l3.2-3.312a16.262,16.262,0,0,0-11.593-4.571,16.783,16.783,0,1,0,.243,33.562c8.984,0,15.561-6.155,15.561-15.256a13.681,13.681,0,0,0-.279-3.03Z" transform="translate(0 0)" fill="#386db4"/>
    <path id="path3000" d="M246.685,402.149a10.787,10.787,0,1,0,10.824,10.824,10.659,10.659,0,0,0-10.824-10.824Zm.063,4.237a6.563,6.563,0,1,1-6.173,6.527,6.2,6.2,0,0,1,6.173-6.527Z" transform="translate(-32.343 -11.317)" fill="#d01b28"/>
    <path id="path3005" d="M292.571,402.149a10.787,10.787,0,1,0,10.824,10.824,10.659,10.659,0,0,0-10.824-10.824Zm.063,4.237a6.563,6.563,0,1,1-6.173,6.527,6.2,6.2,0,0,1,6.173-6.527Z" transform="translate(-54.644 -11.317)" fill="#f7b300"/>
    <path id="path3007" d="M338.04,402.171c-5.8,0-10.356,5.079-10.356,10.779a10.641,10.641,0,0,0,10.256,10.8,7.125,7.125,0,0,0,5.916-2.621v2.127c0,3.721-2.259,5.95-5.67,5.95a5.982,5.982,0,0,1-5.522-3.84l-4.146,1.733a10.379,10.379,0,0,0,9.7,6.353c5.765,0,10.159-3.631,10.159-11.247V402.82h-4.523v1.827a7.631,7.631,0,0,0-5.816-2.475Zm.42,4.229c2.843,0,5.762,2.428,5.762,6.573,0,4.214-2.913,6.536-5.825,6.536-3.091,0-5.967-2.51-5.967-6.5,0-4.141,2.987-6.613,6.031-6.613Z" transform="translate(-76.98 -11.328)" fill="#386db4"/>
    <path id="path3011" d="M397.557,402.121c-5.469,0-10.062,4.352-10.062,10.773a10.432,10.432,0,0,0,10.588,10.824,10.943,10.943,0,0,0,9.036-4.734L403.39,416.5a6.036,6.036,0,0,1-5.285,2.969,5.549,5.549,0,0,1-5.291-3.269l14.464-6-.751-1.759a9.766,9.766,0,0,0-8.97-6.32Zm.189,4.149a4.3,4.3,0,0,1,3.992,2.3l-9.659,4.037a5.992,5.992,0,0,1,5.668-6.341Z" transform="translate(-106.049 -11.304)" fill="#d01b28"/>
    <path id="path3015" d="M374.079,412.829h4.751V381.034h-4.751Z" transform="translate(-99.529 -1.055)" fill="#4baa3f"/>
  </g>
</svg>
