<svg xmlns="http://www.w3.org/2000/svg" width="141.983" height="35.776" viewBox="0 0 141.983 35.776">
  <g id="Group_2236" data-name="Group 2236" transform="translate(725.923 1681.383)">
    <path id="Path_14766" data-name="Path 14766" d="M-465.573-1638.391c-.036-.535-.056-1.139-.68-1.341-.746-.241-.878.434-1.123.88a11.484,11.484,0,0,1-2.628,3.826c-1.15.913-1.438.827-1.833-.581-.489-1.742-.223-3.523-.278-5.286a14.9,14.9,0,0,0-1.458-6.864c-1.523-2.784-4.673-3.129-6.881-.857a11.452,11.452,0,0,0-2.347,3.634c-.633,1.513-1.306,3.01-2.127,4.891a9.418,9.418,0,0,1-.447-3.385,12.873,12.873,0,0,0-.584-4.285c-.6-1.569-2.256-2.93-3.365-2.59-1.549.474-1.5,2.01-1.581,3.219a45.149,45.149,0,0,0-.032,6.6,6.759,6.759,0,0,1-2.308,5.427c-.287.3-.553.765-1.044.646-.6-.145-.546-.731-.6-1.193a37.22,37.22,0,0,1,.158-7.39,8.773,8.773,0,0,0-1.029-4.814c-.682-1.343-2.3-2.243-3.464-1.727a2.266,2.266,0,0,1-2.236-.266c-4.107-2.088-8.158-.763-10.219,3.344a12.638,12.638,0,0,0-1.352,6.39c.058,1.141-.624,1.618-1.516,2.011a1.559,1.559,0,0,1-1.805-.133c-.822-.671-.489-1.419-.283-2.2a20.981,20.981,0,0,0,.972-6.822,2.553,2.553,0,0,0-2.431-2.566,2.333,2.333,0,0,0-2.753,1.911,10.441,10.441,0,0,0,.209,7.7,4.2,4.2,0,0,1-.335,4.416c-.261.387-.4,1.035-.965.955s-.55-.742-.628-1.188c-.567-3.272-1.445-6.492-1.517-9.848a4.161,4.161,0,0,0-3.011-4.3c-1.913-.592-2.68.012-2.454,1.985a71.368,71.368,0,0,0,.975,7.493c.511,2.281-.477,3.832-1.845,5.341-.37.407-.711,1.148-1.393.872-.6-.245-.554-1.012-.6-1.572a24.553,24.553,0,0,1,.12-5.3,10.1,10.1,0,0,0-.853-6.431c-.773-1.43-2.344-2.336-3.577-1.767a2.025,2.025,0,0,1-2.076-.265c-4.165-2.181-8.389-.733-10.416,3.506a15.418,15.418,0,0,0-1.193,7.546,7.366,7.366,0,0,0,5.321,7.283,3.664,3.664,0,0,0,5.028-2.157c.377-.875.684-1.78,1.118-2.921a4.273,4.273,0,0,1,.432.719c.712,2.953,3.16,3.846,5.664,4.381,2.2.471,3.64-1.009,4.744-2.709.6-.92.856-.5,1.333.119,2.464,3.184,5.79,2.935,7.721-.54a1.048,1.048,0,0,0,.077-.141c.54-1.471,1.307-2.366,3.085-1.548a3.2,3.2,0,0,0,2.237-.067c.665-.213.986,0,1.234.608a7.535,7.535,0,0,0,4.387,4.057c2.553,1.077,4.538.235,5.577-2.357.307-.765.579-1.544.89-2.379.638.454.586.995.778,1.417,1.028,2.261,4.885,4.087,7.088,3.4,1.247-.389,2.064-2.155,2.917-1.954,1.064.251,1.909,1.572,3.21,1.956,1.915.564,2.8.172,3.3-1.617.616-2.165,1.181-4.346,1.86-6.492.857-2.711,1.683-5.455,3.656-7.645.271-.3.528-.825,1.018-.611.52.227.234.753.178,1.152a48.666,48.666,0,0,0-.484,9.307,6.491,6.491,0,0,0,6.768,5.939C-468.325-1631.773-465.365-1635.323-465.573-1638.391Zm-73.164-8.782c-1.275,3.63-1.966,7.446-3.552,10.969-.315.7-.813,1.784-1.592,1.586-.949-.242-.541-1.452-.711-2.225a21.38,21.38,0,0,1,2.2-8.515,5.838,5.838,0,0,1,2.611-2.551C-539.077-1648.237-538.447-1648-538.737-1647.173Zm20.491,4.042a4.918,4.918,0,0,1,.2-4.109A8.018,8.018,0,0,1-518.246-1643.132Zm16.948-3.927c-1,3.337-2.031,6.665-3.064,9.991a3.21,3.21,0,0,1-.445.855c-.452.651-.875,1.784-1.613,1.607-.922-.221-.571-1.456-.816-2.219.47-3.176.8-6.339,2.627-9.076a5.317,5.317,0,0,1,2.264-2.019C-501.538-1648.27-501.007-1648.032-501.3-1647.059Z" transform="translate(-118.378 -20.611)" fill="#046bee"/>
    <path id="Path_14767" data-name="Path 14767" d="M-712.13-1662.718a9.153,9.153,0,0,0-1.125-.138c-1.366-.014-1.264-.57-.6-1.439,1.729-2.265,3.427-4.552,5.143-6.825a41.375,41.375,0,0,0,4.024-6.593c.509-1.029.727-2.192-.344-3.1-1.091-.92-2.118-.444-3.092.251a5.9,5.9,0,0,0-.841.753,84.786,84.786,0,0,0-6.115,6.867,23.117,23.117,0,0,1-3.525,3.793c-.17-1.529-.293-2.737-.439-3.942a25.3,25.3,0,0,0-1.287-6.122c-.486-1.263-2.157-2.419-3.132-2.128-1.243.372-1.154,1.59-1.268,2.538-.3,2.446-.494,4.906-.671,7.365a135.373,135.373,0,0,0-.237,20.234c.286,3.67,2.446,4.379,5.184,4.915,1.7.333,2.678-.8,2.437-2.521-.089-.637-.191-1.272-.275-1.91-.584-4.436.322-6.186,3.961-7.656,1.466-.592,1.731-.4,1.587,1.15-.222,2.4-.471,4.8-.666,7.2s.348,3.132,2.712,3.813c.519.149,1.039.3,1.562.43,2.511.644,4.452-.54,4.882-3.033a32.174,32.174,0,0,0,.472-3.828C-703.492-1658.406-706.45-1661.951-712.13-1662.718Z" transform="translate(0)" fill="#046bee"/>
    <path id="Path_14768" data-name="Path 14768" d="M-620.49-1650.153a4.664,4.664,0,0,0-5.108.909c-.622.661-1.08,1.964-1.7,2.022-1.03.1-.92-1.459-1.63-2.1a2.879,2.879,0,0,0-2.458-.986c-.89.187-.783,1.187-.913,1.891a53.428,53.428,0,0,0-.914,8.957,5.76,5.76,0,0,1-1.878,4.262c-.329.325-.625.893-1.173.7-.6-.214-.559-.869-.577-1.388a34.835,34.835,0,0,1,.177-6.589,8.73,8.73,0,0,0-1.133-5.579,2.79,2.79,0,0,0-3.385-1.561,2.675,2.675,0,0,1-2.233-.261c-2.58-1.179-5.149-1.593-7.645.287-2.737,2.062-3.641,5.009-3.914,8.176-.462,5.367,1.219,8.356,5.337,9.877a3.692,3.692,0,0,0,5.141-2.2c.369-.864.671-1.756,1-2.618.226.069.293.068.318.1a1.075,1.075,0,0,1,.16.271c1.71,4.479,5.853,5.74,9.582,2.861.616-.476.8-.173,1.134.217a5.3,5.3,0,0,0,3.1,1.639c1.094.218,2.082-.04,2.16-1.465a33.077,33.077,0,0,1,1.733-8.489c.974-2.964,2.193-5.861,5.014-7.682C-619.482-1649.438-619.833-1649.809-620.49-1650.153Zm-22.723,3.217c-1.048,3.1-2.058,6.207-2.857,9.38a4.71,4.71,0,0,1-.728,1.428c-.413.607-.828,1.666-1.526,1.465-.9-.258-.641-1.433-.806-2.182a25.117,25.117,0,0,1,2.043-8.131,6.539,6.539,0,0,1,2.7-2.91c.328-.179.7-.354,1.063-.079C-642.938-1647.673-643.091-1647.293-643.212-1646.936Z" transform="translate(-47.805 -20.573)" fill="#046bee"/>
  </g>
</svg>
