<svg id="Layer_1" data-name="Layer 1" xmlns="http://www.w3.org/2000/svg" xmlns:xlink="http://www.w3.org/1999/xlink" viewBox="0 0 168.58 33.33"><defs><style>.cls-1{fill:url(#linear-gradient);}.cls-2{fill:url(#linear-gradient-2);}.cls-3{fill:url(#linear-gradient-3);}.cls-4{fill:url(#linear-gradient-4);}.cls-5{fill:url(#linear-gradient-5);}.cls-6{fill:url(#linear-gradient-6);}.cls-7{fill:url(#linear-gradient-7);}</style><linearGradient id="linear-gradient" x1="16.86" y1="29.32" x2="16.86" y2="0.27" gradientUnits="userSpaceOnUse"><stop offset="0" stop-color="#0cb27c"/><stop offset="1" stop-color="#1dcd6e"/></linearGradient><linearGradient id="linear-gradient-2" x1="49.38" y1="29.32" x2="49.38" y2="0.27" xlink:href="#linear-gradient"/><linearGradient id="linear-gradient-3" x1="129.42" y1="29.32" x2="129.42" y2="0.27" xlink:href="#linear-gradient"/><linearGradient id="linear-gradient-4" x1="156.47" y1="29.32" x2="156.47" y2="0.27" xlink:href="#linear-gradient"/><linearGradient id="linear-gradient-5" x1="104.2" y1="29.32" x2="104.2" y2="0.27" xlink:href="#linear-gradient"/><linearGradient id="linear-gradient-6" x1="84.9" y1="29.32" x2="84.9" y2="0.27" xlink:href="#linear-gradient"/><linearGradient id="linear-gradient-7" x1="70.47" y1="29.32" x2="70.47" y2="0.27" xlink:href="#linear-gradient"/></defs><title>appinventivs-clients</title><g id="logo_melltoo" data-name="logo melltoo"><path id="Path_1216" data-name="Path 1216" class="cls-1" d="M16.84,3.07c2.44-1.77,5-3,7.94-2.52a10.48,10.48,0,0,1,8.69,10.07c.14,6.15.07,12.3,0,18.45,0,2.25-1.42,3.74-3.33,3.74s-3.32-1.48-3.34-3.73c0-5.69,0-11.39,0-17.09,0-2.7-1.18-4.22-3.25-4.26s-3.38,1.53-3.39,4.34c0,5.47,0,10.94,0,16.4,0,2.8-1.29,4.4-3.43,4.33s-3.22-1.6-3.23-4.3c0-5.39,0-10.79,0-16.18,0-3.05-1.15-4.62-3.36-4.59S6.9,9.31,6.89,12.43c0,5.39,0,10.78,0,16.18,0,2.65-1.24,4.18-3.32,4.2S.21,31.27.2,28.64c0-5.46.09-10.93,0-16.4C.07,7.67,1.59,4.05,5.52,1.77S13.2.31,16.84,3.07Z"/><path id="Path_1217" data-name="Path 1217" class="cls-2" d="M45,23.58c1.74,2.65,3.5,3.34,6,2.55.49-.16,1-.39,1.45-.52a3,3,0,0,1,3.85,1.76c.79,1.65.19,3-1.29,4-3.35,2.25-9.15,1.86-12.72-.88a11.78,11.78,0,0,1-4.14-13.61c2-5,7-8.33,11.91-7.9a12.7,12.7,0,0,1,11.1,10c.65,3.34-.44,4.64-3.93,4.65C53.26,23.59,49.29,23.58,45,23.58Zm0-5.68h8.63c-2.62-3.45-5.93-3.47-8.63,0Z"/><path id="Path_1218" data-name="Path 1218" class="cls-3" d="M129.47,32.77a11.86,11.86,0,0,1-12-11.71v-.18a12.24,12.24,0,0,1,12-12c6.27-.08,11.84,5.49,11.88,11.9a11.92,11.92,0,0,1-11.84,12ZM129.3,15.4A5.39,5.39,0,0,0,124,20.8V21a5.64,5.64,0,0,0,5.51,5.5A5.71,5.71,0,0,0,135,21a5.62,5.62,0,0,0-5.68-5.55Z"/><path id="Path_1219" data-name="Path 1219" class="cls-4" d="M168.42,20.94a12,12,0,1,1,0-.22Zm-17.42,0a5.53,5.53,0,1,0,5.51-5.54h-.12a5.44,5.44,0,0,0-5.4,5.47V21Z"/><path id="Path_1220" data-name="Path 1220" class="cls-5" d="M100.17,8c3,0,5.53,0,8.1,0,2.3,0,3.62,1.32,3.59,3.37s-1.44,3.31-3.69,3.34c-2.57,0-5.15,0-7.92,0a53.87,53.87,0,0,0,0,6.48A5.64,5.64,0,0,0,109.18,25c1-.65,2.36-1.34,3.35-1.11A3.81,3.81,0,0,1,115,26.42a4.56,4.56,0,0,1-1.37,3.47c-3.75,3.37-8.13,3.77-12.64,1.88a11.43,11.43,0,0,1-7.38-10.45c-.3-5.82-.12-11.67-.07-17.5A3.3,3.3,0,0,1,96.73.45a3.42,3.42,0,0,1,3.42,3.21C100.27,5,100.17,6.36,100.17,8Z"/><path id="Path_1221" data-name="Path 1221" class="cls-6" d="M78.89,14.31c0-3,0-6.06,0-9.1,0-2.87,1.17-4.48,3.23-4.53s3.29,1.56,3.3,4.42c0,6,0,12,0,18,0,1.93.51,3.15,2.65,3.38a3,3,0,0,1,2.87,3.2,1.64,1.64,0,0,1,0,.22c0,1.75-1.56,2.95-3.54,3-4.55.06-8.3-3.85-8.46-9-.1-3.18,0-6.37,0-9.55Z"/><path id="Path_1222" data-name="Path 1222" class="cls-7" d="M70.94,14c0,3,0,6.06,0,9.1,0,1.91.52,3.14,2.68,3.36a3,3,0,0,1,2.88,3.22,1.23,1.23,0,0,1,0,.2,3.34,3.34,0,0,1-3.57,3,8.55,8.55,0,0,1-8.36-8.07c-.17-6.9-.1-13.8,0-20.69A3.25,3.25,0,0,1,67.6.68h.07A3.14,3.14,0,0,1,70.9,3.73a2.26,2.26,0,0,1,0,.26c.1,3.33,0,6.67,0,10Z"/></g></svg>