<svg xmlns="http://www.w3.org/2000/svg" width="134.26" height="38.544" viewBox="0 0 134.26 38.544">
  <g id="Group_2242" data-name="Group 2242" transform="translate(-352.4 -294.136)">
    <path id="Path_14799" data-name="Path 14799" d="M414.2,313.352a8.1,8.1,0,0,1-.27-1.723V300.173h4.59v22.069l-14.691-12.165a6.769,6.769,0,0,1-1.251-1.416,6.7,6.7,0,0,1,.231,1.535l0,11.548h-4.59V299.761l14.557,11.923a8.778,8.778,0,0,1,1.427,1.668Z" transform="translate(19.965 2.451)" fill="#828f99"/>
    <path id="Path_14800" data-name="Path 14800" d="M441.685,300.048c7.268,0,9.133,2.867,9.133,6.989,0,2.991-2.2,5.912-6.635,6.261l-.487.023a1.878,1.878,0,0,1,.877.508l8.052,7.789H446.4l-11.239-11.413h5.6c5.012,0,5.156-2.64,5.193-3.311.093-1.71-.455-3.083-4.28-3.083h-6.4v17.806h-4.772V300.048Z" transform="translate(34.035 2.576)" fill="#828f99"/>
    <path id="Path_14801" data-name="Path 14801" d="M413.8,311.238c0-9.038,7.565-11.41,13.922-11.41a33.611,33.611,0,0,1,7.17.728l.009,4.583a24.043,24.043,0,0,0-7.179-1.337c-6.026,0-8.953,2.34-8.953,7.436,0,4.174,3.154,6.831,8.953,6.831a24.569,24.569,0,0,0,7.641-1.281l-.007,4.444a37.978,37.978,0,0,1-7.634.811c-6.791,0-13.922-3.3-13.922-10.805Z" transform="translate(26.754 2.48)" fill="#828f99"/>
    <path id="Path_14802" data-name="Path 14802" d="M383.136,300.435l4.474,4.214c-.121.055-.261.122-.426.207a8.469,8.469,0,0,0-.938.569,18.035,18.035,0,0,0-2.93,2.646l-8.745,9.256a15.877,15.877,0,0,1-4.442,3.5l-4.475-4.215c.122-.056.263-.121.426-.207a8.05,8.05,0,0,0,.936-.57,18,18,0,0,0,2.93-2.645l8.744-9.241a15.97,15.97,0,0,1,4.447-3.516Z" transform="translate(5.775 2.745)" fill="#57ac33"/>
    <path id="Path_14803" data-name="Path 14803" d="M371.586,325.53a11.362,11.362,0,0,0,5.029-1.034,14.739,14.739,0,0,0,2.063-1.34,23.583,23.583,0,0,0,2.494-2.254l8.755-9.229c2.207-2.327,3.535-3.044,4.339-3.328l4.492,4.254c-.938,1-12.115,12.907-12.115,12.907-.764.821-1.566,1.615-2.111,2.118-.524.482-1.421,1.2-1.885,1.542a17.86,17.86,0,0,1-10.87,3.487c-10.712,0-19.378-8.721-19.378-18.762,0-12.457,9.733-19.686,18.6-19.686a18.591,18.591,0,0,1,6.619.962,25.552,25.552,0,0,1,3.668,1.644,19.789,19.789,0,0,0-3.676,3.319l-1.795,1.928a12.6,12.6,0,0,0-4.6-.727,12,12,0,0,0-11.684,12.343,12.154,12.154,0,0,0,12.057,11.854Z" transform="translate(0 0.026)" fill="#57ac33"/>
    <path id="Path_14804" data-name="Path 14804" d="M384.014,302.294a14.931,14.931,0,0,0-2.063,1.341,23.386,23.386,0,0,0-2.492,2.253l-8.757,9.229c-2.207,2.327-3.533,3.044-4.339,3.327l-4.492-4.25c.939-1,12.116-12.909,12.116-12.909.764-.821,1.565-1.615,2.109-2.118.524-.484,1.423-1.2,1.887-1.543a17.874,17.874,0,0,1,10.872-3.487c10.712,0,19.377,8.721,19.377,18.761,0,12.46-9.733,19.686-18.6,19.686a18.521,18.521,0,0,1-6.619-.962,25.961,25.961,0,0,1-3.677-1.645,20.461,20.461,0,0,0,3.683-3.315l1.8-1.93a12.564,12.564,0,0,0,4.6.726A12,12,0,0,0,401.1,313.114a12.155,12.155,0,0,0-12.059-11.852,11.362,11.362,0,0,0-5.028,1.032Z" transform="translate(4.127 0)" fill="#57ac33"/>
  </g>
</svg>
