<svg id="Layer_1" data-name="Layer 1" xmlns="http://www.w3.org/2000/svg" xmlns:xlink="http://www.w3.org/1999/xlink" viewBox="0 0 190.67 63"><defs><style>.cls-1{fill:none;}.cls-2{clip-path:url(#clip-path);}.cls-3{fill:#394155;}.cls-4{fill:#4a5358;}</style><clipPath id="clip-path"><rect class="cls-1" width="190.67" height="63"/></clipPath></defs><title>appinventivs-clients</title><g class="cls-2"><g id="logo_roammate" data-name="logo roammate"><g id="Text"><path id="Path_1230" data-name="Path 1230" class="cls-3" d="M73.55,26.82a8.86,8.86,0,0,0-2.89.45,6.33,6.33,0,0,0-3.34,2.43,8.48,8.48,0,0,0-1.36,5,8.42,8.42,0,0,0,1.36,5.16,6.63,6.63,0,0,0,4.56,2.28,9.91,9.91,0,0,0,5.31-.91,7,7,0,0,0,2.43-2.74,11.08,11.08,0,0,0-.15-8.8C78.56,27.88,76.59,26.82,73.55,26.82Zm-.15,3a2.93,2.93,0,0,1,1.21.16,3,3,0,0,1,1.82,1.82,6.65,6.65,0,0,1,.3,2.73,5.07,5.07,0,0,1-.15,1.82,3.48,3.48,0,0,1-2.42,2.74,2.62,2.62,0,0,1-1.52,0c-1.67-.3-2.58-1.82-2.58-4.56,0-2.43.76-4,2.12-4.55a8.3,8.3,0,0,1,1.22-.15Z"/><path id="Path_1231" data-name="Path 1231" class="cls-3" d="M90,26.82a11.94,11.94,0,0,0-4.71,1.06,1.07,1.07,0,0,0-.76.61c-.15.3-.15.3-.15,1.06a1.93,1.93,0,0,0,.15,1.06c.3.61.46.61,1.52,0a7.48,7.48,0,0,1,3.34-.91c1.06,0,2.12.16,2.43.61a3,3,0,0,1,.6,2.13V33h-.6c-3.19.16-4.86.3-6.07,1.07a3.91,3.91,0,0,0-2.13,3.64A4.91,4.91,0,0,0,84,39.88a3.26,3.26,0,0,0,1.52,1.67,6.59,6.59,0,0,0,1.82.6h0A8.41,8.41,0,0,0,90.1,42a5.56,5.56,0,0,0,2.43-1.37c.45-.3.45-.3.45.46,0,.61.15.61.46.76h2.12c.61-.15.46.3.46-5.32,0-3.94,0-5.16-.15-5.61a3.49,3.49,0,0,0-1.22-2.58c-.91-.92-2.13-1.37-4.25-1.52Zm2.42,8.8v2.43l-.6.46a3.39,3.39,0,0,1-1.52.91,2.9,2.9,0,0,1-2-.15,2.23,2.23,0,0,1-.76-.91,2.14,2.14,0,0,1,0-1.37,1.79,1.79,0,0,1,1.06-1.06,4.8,4.8,0,0,1,2.43-.3Z"/><path id="Path_1232" data-name="Path 1232" class="cls-4" d="M157.66,27a8.35,8.35,0,0,0-2.12.15c-2,.46-3.34,1.06-3.65,1.67a2.64,2.64,0,0,0,.15,2.13c.16.3.46.3,1.37-.15a11.56,11.56,0,0,1,2.73-.92,6,6,0,0,1,2.43.16,1.83,1.83,0,0,1,1.07,1.06,5.45,5.45,0,0,1,.15,2.13c0,.15-.3.15-1.37.15a8.15,8.15,0,0,0-2,.15q-5.47.45-5.47,4.55a4.89,4.89,0,0,0,.46,2.13,4.53,4.53,0,0,0,3.49,2.28,6.72,6.72,0,0,0,3.49-.46,4.73,4.73,0,0,0,1.52-1.06c.15-.15.3-.3.45-.3a1.44,1.44,0,0,1,.15.61,1.16,1.16,0,0,0,.16.75,4.58,4.58,0,0,0,2.88,0c.15-.15.15-.6.15-5.61,0-6.08,0-5.92-.6-7a4.35,4.35,0,0,0-3.19-2.27,10.26,10.26,0,0,0-2.28-.16Zm.91,8.65h1.22v2.43l-.46.46a4.26,4.26,0,0,1-1.67,1.06,4.37,4.37,0,0,1-2,0,1.29,1.29,0,0,1-.91-1.06,2.14,2.14,0,0,1,0-1.37,1.82,1.82,0,0,1,1.06-1.06,4.69,4.69,0,0,1,2.73-.46Z"/><path id="Path_1233" data-name="Path 1233" class="cls-4" d="M184.08,27a4.76,4.76,0,0,0-3,.61,6.86,6.86,0,0,0-3.8,5.31,14.78,14.78,0,0,0,0,3.64c.46,3.65,2.43,5.47,6.08,5.77a15.12,15.12,0,0,0,4.55-.3c1.37-.3,1.82-.6,2-1.06a4.74,4.74,0,0,0,0-2.12c-.15-.3-.45-.3-1.36,0a9.76,9.76,0,0,1-3.34.6,3.88,3.88,0,0,1-2.43-.45,3.11,3.11,0,0,1-1.52-2.89v-.45h4.4c4.25,0,4.4,0,4.56-.15.45-.3.6-1.07.45-2.59-.3-2.73-1.36-4.55-3.49-5.46a6.44,6.44,0,0,0-3-.46Zm-.15,2.58a2.4,2.4,0,0,1,1.06.15,2.6,2.6,0,0,1,1.67,2.74V33h-2.88c-2.58,0-2.89,0-2.89-.15a10,10,0,0,1,.3-1.52,2.85,2.85,0,0,1,1.67-1.82Z"/><path id="Path_1234" data-name="Path 1234" class="cls-4" d="M171,42.15A3.63,3.63,0,0,1,168.29,40c-.3-.91-.3-1.06-.46-5.47v-4.1h-.91c-1.06,0-1.06-.15-1.21-.6a4.53,4.53,0,0,1,.15-2.13c.15-.3.15-.3,1.21-.3h.76V25.76c0-1.82,0-1.82.61-2a12.49,12.49,0,0,1,1.37-.16,3.37,3.37,0,0,1,1.82.3v3.34c0,.15.15.15,1.52.15h1.67c.15.15.3.46.3,1.22s0,1.51-.3,1.67c-.15.15-.3.15-1.67.15s-1.52,0-1.52.15v7c.15.92.3,1.37.76,1.52a3.51,3.51,0,0,0,1.82,0c.15,0,.46-.15.61-.15.3,0,.3.3.3,1.37s-.15,1.36-.61,1.67a6.67,6.67,0,0,1-3.49.15Z"/><path id="Path_1235" data-name="Path 1235" class="cls-3" d="M56.54,42c-.3,0-.6-.15-.6-.3V34.56c0-6.68,0-7,.15-7.14s.45-.3,1.52-.3,1.36,0,1.67.3a3.61,3.61,0,0,1,.15.92v.76l.45-.46a5.63,5.63,0,0,1,2.28-1.82,3.22,3.22,0,0,1,2.43.3,3.71,3.71,0,0,1,.3,2c0,1.52-.15,1.82-1.06,1.52-1.37-.45-2.28,0-3.19,1.37a3.23,3.23,0,0,0-.76.76c-.14.15-.14.61-.14,4.55v4.4l-.16.16c-.15.15-.3.15-.6.3A13.12,13.12,0,0,1,56.55,42Z"/><path id="Path_1236" data-name="Path 1236" class="cls-3" d="M100.72,42c-.29,0-.6-.15-.6-.3V34.56c0-6.07,0-7,.15-7.14s.61-.3,1.67-.3,1.37,0,1.52.3v1.67a2.42,2.42,0,0,0,.6-.45,5.55,5.55,0,0,1,4.1-1.82,4,4,0,0,1,3.8,1.82c.16.3.31.45.46.45a2.67,2.67,0,0,0,.61-.45A6.27,6.27,0,0,1,115.91,27a7.45,7.45,0,0,1,2.58,0c1.82.45,2.89,1.67,3.34,3.8.15.61.15.91.15,5.62v5.16c-.15.45-.45.45-1.82.45-1.21,0-1.36,0-1.67-.15l-.3-.15V37c0-4.1,0-4.71-.15-5.16a1.83,1.83,0,0,0-2-1.67,1.59,1.59,0,0,0-.91.15,5.81,5.81,0,0,0-1.67,1.37l-.46.6V41.7c-.15.3-.45.3-1.52.45s-1.82,0-2-.3l-.15-.15V32.44a3,3,0,0,0-1.22-2.13,1.59,1.59,0,0,0-.91-.15,1.4,1.4,0,0,0-1.06.3,8.76,8.76,0,0,0-1.82,1.67c-.46.15-.46.3-.46,4.86v4.7l-.15.16a.59.59,0,0,1-.46.15,7.45,7.45,0,0,1-2.58,0Z"/><path id="Path_1237" data-name="Path 1237" class="cls-4" d="M126.84,42a1.9,1.9,0,0,1-.46-.15l-.15-.15V27.43l.16-.16a4.25,4.25,0,0,1,2.73,0c.15.16.15.16.15.92,0,1.06,0,1.06.61.45a5.78,5.78,0,0,1,2-1.37,5.05,5.05,0,0,1,5.62.76c.15.16.45.61.61.76a2.43,2.43,0,0,1,.3.46,1.15,1.15,0,0,0,.45-.45A5.8,5.8,0,0,1,144.3,27a4.23,4.23,0,0,1,3.34,3.34c.3,1.07.3,1.67.3,6.53,0,5.16,0,5-.46,5.16a7.82,7.82,0,0,1-2.73,0,1.2,1.2,0,0,1-.45-.15l-.15-.15v-9a2.64,2.64,0,0,0-1.22-2.28,1.67,1.67,0,0,0-.91-.15c-.91,0-1.21.15-2.28,1.21l-.75.76V37c0,4.4,0,4.71-.16,4.86a2.17,2.17,0,0,1-1.36.3c-1.07,0-1.82,0-2-.3l-.15-.15V37c0-5,0-5-.45-5.77a2.09,2.09,0,0,0-2.74-.76A5.57,5.57,0,0,0,130.33,32l-.3.3V41.7a.54.54,0,0,1-.3.15,9.28,9.28,0,0,1-2.88.15Z"/></g><g id="Icon"><path id="Path_1238" data-name="Path 1238" class="cls-3" d="M2.5,62.76h0a1.84,1.84,0,0,1,.72-.47A14.68,14.68,0,0,0,7,58.48c.23-.48.83-1.55.83-1.67l-.48-.48A23.4,23.4,0,0,1,3,51,22.26,22.26,0,0,1,.12,42.64C0,41.92,0,39.3,0,38.83v-.36l.36-.12c.12-.12.47-.24.6-.36a17.61,17.61,0,0,1,7.5-1.9c1.19.12,1.9.36,2.26,1.07a.9.9,0,0,1,.12.6c0,.36,0,.36-.36,1A8.29,8.29,0,0,1,8.7,40.62C7.27,41.81,7,42.52,7.39,43.48c.24.47.71,1,2.62,2.38,4.16,3.1,4.88,3.57,6.19,3.45a3.38,3.38,0,0,0,1.55-.47,1.92,1.92,0,0,0,.83-.84c.24-.47.72-1.78,1.43-3.81s1.31-3.81,1.79-5a6.39,6.39,0,0,1,.95-1.9.4.4,0,0,1,.12.23,19.55,19.55,0,0,1,.48,3.22,15,15,0,0,0,.95,4.53,2,2,0,0,0,1.43,1.19c1.07.12,1.78-.48,2.62-2.27.35-.83.6-1.42,1.43-3.93.95-3,1.31-3.81,1.43-3.69s.11.48.23,1.07c.48,3.22,1.43,5.6,2.5,6.55a2.47,2.47,0,0,0,3,.24c1.43-.71,3.1-2.62,4.64-5.24.24-.36.72-1.19,1.08-1.9a48.83,48.83,0,0,1,2.85-4.9h.12s-.35.84-.83,1.91l-1.31,2.62-.36.83v.84a21.59,21.59,0,0,1-1.67,9.88,22.75,22.75,0,0,1-6.66,8.69,21.85,21.85,0,0,1-16.32,4.41,24.55,24.55,0,0,1-4.05-1c-.48-.12-.83-.24-.95-.24a3.13,3.13,0,0,0-.84.36A24.19,24.19,0,0,1,3,63c-.36-.12-.48-.12-.48-.24Z"/><path id="Path_1239" data-name="Path 1239" class="cls-3" d="M21.79,17.63a21.67,21.67,0,0,0-21,16.31c.12,0,.24-.12.48-.12a24,24,0,0,1,6.07-1.43,10.47,10.47,0,0,1,2.74,0,5.44,5.44,0,0,1,3.21,2,4.28,4.28,0,0,1,.6,3.1,5.41,5.41,0,0,1-1.54,2.26c-.36.36-.72.83-.84.95a2,2,0,0,0-.35.84,9.3,9.3,0,0,0,2.5,1.9c1.19.72,1.31.84,1.66.84a1.51,1.51,0,0,0,1.55-.72c.48-.6.83-1.55,1.43-3.93a21.84,21.84,0,0,1,1.31-3.93,9.68,9.68,0,0,1,1.9-3.33,2.94,2.94,0,0,1,2-1,1.58,1.58,0,0,1,1.43.72c.83.83,1.07,1.67,1.67,5.36.11,1.07.23,1.9.23,1.9a18.61,18.61,0,0,0,.6-1.78,23.24,23.24,0,0,1,1.79-4.77,5.62,5.62,0,0,1,2-2.62,2.41,2.41,0,0,1,1.79.12c.83.48,1.19,1.31,1.67,3.93s.83,4.29,1.31,5c.35.48.47.48,1.31-.24a16.65,16.65,0,0,0,3.1-3.69c.47-.83,1.19-1.78,1.78-2.62L44.19,30h-.12l-1.91,2.27A21.41,21.41,0,0,0,21.79,17.63Z"/><path id="Path_1240" data-name="Path 1240" class="cls-3" d="M21.56,0l-.48.24V.48L21,.6v.47l.24.24A40.91,40.91,0,0,1,20.36,10H20a1.85,1.85,0,0,0,.35.48,12.73,12.73,0,0,1-1.19,3.33v.12H18.7c.35.48-.12.48-.12.48l.24.24a9.77,9.77,0,0,1-1.08,1.55v.24L16.44,7.5l-2.15-1,1.79,11.79v.83l-1.79.72-.24-1L12.51,8.22,13.93,7l-.11-.48L12,8.1l1.55,10.72-2-7.27-2-2.5L8.69,6.91,5.83,3.69,5,7.74,4.88,8l.72,2.14-.72,3,2.86,9.65,4.41-.84,1.55-1.78.23,1.54,2.86-1.54.84-2.74a7.17,7.17,0,0,0-.12,1.31l2.5-.12,2.26-.12,3.1.24V17.63c.83.6,2.38,1.66,2.38,1.66l2.15-17L27,3.57l-1.56,13v-.11a8.33,8.33,0,0,1-1.07-1.67l.24-.36c-.36,0-.36-.24-.12-.47h-.48a32.09,32.09,0,0,1-1.19-3.46L23.1,10h-.36A37.81,37.81,0,0,1,22,1.19l.12-.12V.6L22,.36V.12L21.55,0Zm18,1.9L38.35,3.57l-3.57,11.2c1.07.47.11,2.26.11,2.26a.73.73,0,0,1-.11.48l.95.23a.48.48,0,0,1,.24-.47c.11-2.15,1.19-1.79,1.19-1.79l2.5-11.43L39.54,1.9Zm-9.17.36L30.25,3l1.91,1.55L31,19.89l.84.95-.24.6,4.88,3.45.6-.6.24-.83-.6-.12.12-.72-.12-.24.12-.6-3.93-1.07v-.24l3.69,1,.72-2.62-4.17-1.07v.11l-.12.48.12-.6.6-7.5L32.52,9.4l.35-5.24-2.5-1.91ZM21.56,7.5l.11.12v.24L21.56,8l.11.12.12.47-.12.12.12.12v.6h-.12l.12.24v.24h-.6V9.65l.12-.24h-.12v-.6l.12-.12-.12-.12.12-.47L21.43,8l-.12-.12V7.62l.24-.12Zm-14.3.24a.11.11,0,0,1,.12.11h0l.36,1.19c0,.12,0,.12-.12.12H7.5c-.12,0-.12,0-.12-.12L7,7.86c0-.12,0-.12.12-.12ZM6.55,8a.11.11,0,0,1,.12.11h0L7,9.29c0,.12,0,.12-.12.12H6.79c-.12,0-.12,0-.12-.12L6.31,8.1c0-.12,0-.12.12-.12Zm-.83.12a.1.1,0,0,1,.11.11h0l.36,1.2c0,.11,0,.11-.12.11H6c-.12,0-.12,0-.12-.11L5.48,8.22c0-.12,0-.12.12-.12Zm25.72,1-2,1.07-.72,9.05.36.12.6-8.81,1.54-.84.24-.6Zm-23.58.6,1.79,2.26L5.24,13.22l.48-3,2.14-.6Zm13.22,1.43h1s.23,1.78.35,2.62H20.6s.36-1.67.48-2.62ZM9.77,12.15,11.19,17,6.67,18.34,5.24,13.46Zm-.24.24L5.6,13.58l.12.35,4.05-1.19Zm.24.71H9.65l1.07,3.81.24-.12Zm-.48.24-.72.24a3.72,3.72,0,0,1,1,.47l-.24-.71Zm-1.19.6a1.55,1.55,0,1,0,1.55,1.55A1.58,1.58,0,0,0,8.1,13.94Zm-1.43.24-.6.12.12.47a1.14,1.14,0,0,1,.48-.6Zm-.83,0-.12.12,1.07,3.8L7,18l-1.2-3.81Zm3,.47-.6.72v.12a.23.23,0,0,1-.24.23.23.23,0,0,1-.23-.23l-.84-.24h.84l.12-.12h0l1-.48Zm26,.48-.48,1.55s0,.23-.36.47l.72.24.12-.24s-.12-.12,0-.35a7.81,7.81,0,0,1,.35-.84.78.78,0,0,0-.35-.83Zm2.38.6c-.6,0-.72.71-.72.71a4.05,4.05,0,0,0-.12.84.23.23,0,0,1-.22.24h0v.23l.71.24a.62.62,0,0,1-.12-.6l.48-1.67ZM10,16a2,2,0,0,1-.83,1.19l1.07-.36Zm11.44.12a2.32,2.32,0,0,1,2.5,1.54,30.71,30.71,0,0,0-4.89,0,2.79,2.79,0,0,1,2.39-1.54ZM6.91,17l.24.6.95-.24A2,2,0,0,1,6.91,17Zm4.4.24a.11.11,0,0,1,.12.11h0l.36,1.31c0,.11,0,.11-.12.11l-.24.12c-.12,0-.12,0-.12-.12L11,17.51c0-.11,0-.11.12-.11Zm22.39.12v.11l3.34.84v-.12Zm-23.22.11a.11.11,0,0,1,.12.11h0L11,18.94c0,.12,0,.12-.12.12l-.24.11c-.12,0-.12,0-.12-.11l-.35-1.32c0-.11,0-.11.12-.11Zm-1,.35a.12.12,0,0,1,.12.12h0L10,19.29c0,.12,0,.12-.12.12H9.77c-.12,0-.12,0-.12-.12L9.29,18c0-.12,0-.12.12-.12Zm-.83.24h0l.47,1.43c0,.12,0,.12-.12.12l-.23.12c-.12,0-.12,0-.12-.12l-.36-1.31c0-.12,0-.12.12-.12Zm24.77.12,3.45,1-.47,1.91L33,20.13Zm-25.6.12a.13.13,0,0,1,.12.11H8l.35,1.31c0,.12,0,.12-.12.12L8,20c-.12,0-.12,0-.12-.12l-.36-1.31c0-.12,0-.12.12-.12ZM7,18.58H7L7.51,20c0,.12,0,.12-.12.12H7.27c-.12,0-.12,0-.12-.12L6.8,18.7c0-.12,0-.12.11-.12Zm4.29.71a.12.12,0,0,1,.12.12h0l.36,1.31c0,.12,0,.12-.12.12h-.12c-.12,0-.12,0-.12-.12l-.36-1.31c0-.12,0-.12.12-.12Zm-.83.24h0L11,21c0,.12,0,.12-.12.12h-.12c-.11,0-.11,0-.11-.12l-.36-1.31c0-.12,0-.12.12-.12Zm-.84.24h0l.47,1.43c0,.12,0,.12-.12.12H9.88c-.12,0-.12,0-.12-.12l-.35-1.31c0-.12,0-.12.12-.12ZM8.7,20a.12.12,0,0,1,.12.11h0l.36,1.31c0,.11,0,.11-.12.11H8.94c-.12,0-.12,0-.12-.11l-.36-1.31c0-.12,0-.12.12-.12Zm-.83.23h0l.47,1.43c0,.12,0,.12-.12.12H8.1c-.12,0-.12,0-.12-.12l-.35-1.31c0-.12,0-.12.12-.12ZM51.57,22h-.35L49.78,23.7H48.47l.24-.36V23.1h-.24l-.6.6H47l.36-.48V23h-.24l-.72.71H45l-.36.48,3,.71.83.48L46.8,28.23H45.37l-.47.35,1.31.48v.36l.12.12.24-.12.83,1.07.24-.48-.48-1.43,2.26-2.5.72.6,1.54,2.62.36-.48-.36-1.31.48-.83v-.24h-.24l-.36.47L51,26.2l.48-.72v-.23l-.36.12-.24.35-.35-1.31,1.19-1.78-.12-.6Z"/></g></g></g></svg>