<svg id="PWA_from_Scratch" data-name="PWA from Scratch" xmlns="http://www.w3.org/2000/svg" width="50" height="48.499" viewBox="0 0 50 48.499">
  <g id="Development">
    <path id="Path_1882" data-name="Path 1882" d="M818.521,1417.057l-6.449-7.236v-18.537a1.721,1.721,0,0,0-3.443,0v17.471H772.4V1386h10.792a13.165,13.165,0,0,0,12.887,11.761h.211a13.079,13.079,0,0,0,9.161-3.713,1.721,1.721,0,1,0-2.4-2.472,9.727,9.727,0,1,1,.214-13.753,1.722,1.722,0,0,0,2.472-2.4,13.17,13.17,0,0,0-22.467,7.129H770.678a1.721,1.721,0,0,0-1.721,1.721v26.207a1.693,1.693,0,0,0,.031.3c.005.03.013.059.02.089a1.708,1.708,0,0,0,.066.213c.01.028.02.056.031.083a1.773,1.773,0,0,0,.14.258c.009.014.021.026.031.04a1.793,1.793,0,0,0,.117.152l6.885,7.724a1.721,1.721,0,0,0,1.285.576h39.672a1.721,1.721,0,0,0,1.285-2.866Zm-40.186-.576-3.817-4.282h35.06l3.817,4.282Z" transform="translate(-768.957 -1371.424)" fill="#fc7754"/>
    <path id="Path_1883" data-name="Path 1883" d="M822.422,1391.153a1.721,1.721,0,1,0,0-3.443h-.272a6.521,6.521,0,0,0-.647-1.5l.212-.212a1.721,1.721,0,1,0-2.435-2.434l-.236.236a6.513,6.513,0,0,0-1.471-.6v-.345a1.721,1.721,0,0,0-3.443,0v.345a6.525,6.525,0,0,0-1.472.6l-.236-.236a1.721,1.721,0,0,0-2.434,2.434l.212.212a6.5,6.5,0,0,0-.672,1.594h-.346a1.721,1.721,0,1,0,0,3.443h.346a6.5,6.5,0,0,0,.729,1.688l-.269.269a1.721,1.721,0,1,0,2.434,2.434l.332-.332a6.527,6.527,0,0,0,1.376.543V1396a1.721,1.721,0,0,0,3.443,0v-.149a6.512,6.512,0,0,0,1.594-.672l.114.114a1.721,1.721,0,0,0,2.435-2.434l-.137-.138a6.508,6.508,0,0,0,.623-1.57Zm-6.571,1.5a3.113,3.113,0,0,1-2.3-5.221,1.786,1.786,0,0,0,.161-.131c.039-.039.068-.084.1-.126a3.116,3.116,0,1,1,2.032,5.478Z" transform="translate(-788.524 -1376.361)" fill="#fc7754"/>
  </g>
</svg>
