<svg id="PWA_from_Scratch" data-name="PWA from Scratch" xmlns="http://www.w3.org/2000/svg" width="50.002" height="48.769" viewBox="0 0 50.002 48.769">
  <g id="PWA_from_Scratch-2" data-name="PWA from Scratch">
    <g id="Group_1032" data-name="Group 1032" transform="translate(-41.667 -54.628)">
      <path id="Path_2513" data-name="Path 2513" d="M41.667,100.7V56.758c.209-.721-.1-2.053,1.671-2.13q23.649.015,47.3.007c1.065.071,1.03,1.508,1.03,2.424q0,14.351,0,28.7,0,7.4,0,14.79c0,.677.107,2.833-1.029,2.833-.113.008-.228,0-.342,0q-23.6,0-47.2.008C41.71,103.455,41.877,101.421,41.667,100.7ZM88.124,71.855H45.566V99.512H88.124Zm0-13.914H45.566V68.28H88.124Z" transform="translate(0 0)" fill="#0092ff"/>
      <path id="Path_2514" data-name="Path 2514" d="M85.943,146.748l-3.87-4.452q-1.344-1.547-2.689-3.093c-.46-.531-.108-1.151.349-1.561a1.118,1.118,0,0,1,1.639,0c2.374,2.72,5.19,5.721,7.556,8.449a1.042,1.042,0,0,1,.008,1.531c-2.366,2.727-5.19,5.521-7.563,8.242a1.144,1.144,0,0,1-1.639,0c-.46-.411-.816-1.02-.35-1.558q3.1-3.576,6.209-7.144C85.7,147.039,85.8,146.915,85.943,146.748Z" transform="translate(-28.78 -62.817)" fill="#0092ff"/>
      <path id="Path_2515" data-name="Path 2515" d="M130.393,209.93c1.692,0,3.384-.006,5.076,0a1.117,1.117,0,0,1,1.051,1,1.471,1.471,0,0,1-.468,1.454,1.108,1.108,0,0,1-.6.19q-5.028.017-10.055,0a1.346,1.346,0,0,1,.02-2.651C127.074,209.925,128.734,209.93,130.393,209.93Z" transform="translate(-63.629 -119.283)" fill="#0092ff"/>
      <path id="Path_2516" data-name="Path 2516" d="M183.867,77.161c0,.65.008,1.3,0,1.95a1.029,1.029,0,0,1-1.123,1.124q-2,.013-4,0a1.04,1.04,0,0,1-1.126-1.126q-.013-2,0-4a1.036,1.036,0,0,1,1.128-1.123q2-.012,4,0a1.036,1.036,0,0,1,1.124,1.124c.005.341,0,.683,0,1.024S183.867,76.819,183.867,77.161Zm-2.1-1.095c-.633,0-1.244-.011-1.853.014-.075,0-.2.193-.2.3a14.331,14.331,0,0,0,0,1.457c.006.111.156.3.246.308.593.028,1.188.014,1.809.014Z" transform="translate(-105.694 -14.005)" fill="#0092ff"/>
      <path id="Path_2517" data-name="Path 2517" d="M217.995,76.619c.579.525,1.04.912,1.465,1.335a1.044,1.044,0,0,1,.075,1.589,1.058,1.058,0,0,1-1.556-.127l-1.269-1.245c-.423.42-.844.844-1.269,1.262a1.045,1.045,0,1,1-1.472-1.466c.427-.424.883-.818,1.446-1.337-.531-.48-.989-.866-1.414-1.286a1.053,1.053,0,1,1,1.481-1.461c.207.207.409.419.614.629l.648.664c.341-.366.663-.726,1-1.073.7-.723,1.3-.84,1.8-.364s.423,1.091-.3,1.8C218.889,75.889,218.486,76.2,217.995,76.619Z" transform="translate(-133.394 -13.598)" fill="#0092ff"/>
      <path id="Path_2518" data-name="Path 2518" d="M144.557,94.221c-.666,0-1.333.006-2,0a1.03,1.03,0,0,1-1.119-1.024,1,1,0,0,1,1.091-1.045q2.023-.015,4.046,0a1.043,1.043,0,0,1,1.108,1.042,1.056,1.056,0,0,1-1.128,1.027C145.889,94.227,145.223,94.221,144.557,94.221Z" transform="translate(-77.836 -27.99)" fill="#0092ff"/>
    </g>
  </g>
</svg>
