<svg id="PWA_from_Scratch" data-name="PWA from Scratch" xmlns="http://www.w3.org/2000/svg" width="45" height="54.126" viewBox="0 0 45 54.126">
  <g id="Group_1033" data-name="Group 1033">
    <g id="Group_869" data-name="Group 869" transform="translate(-85.082 -127.101)">
      <g id="Group_866" data-name="Group 866" transform="translate(85.082 127.101)">
        <path id="Path_2337" data-name="Path 2337" d="M91.431,163.424a3.13,3.13,0,0,1-2.612-1.4,22.5,22.5,0,1,1,38.158-1.011,3.129,3.129,0,1,1-5.391-3.177,16.243,16.243,0,1,0-27.551.729,3.13,3.13,0,0,1-2.6,4.86Z" transform="translate(-85.082 -127.101)" fill="#0092ff"/>
      </g>
      <g id="Group_867" data-name="Group 867" transform="translate(93.295 165.059)">
        <path id="Path_2338" data-name="Path 2338" d="M119,175.816H97.4a3.129,3.129,0,1,1,0-6.258H119a3.129,3.129,0,1,1,0,6.258Z" transform="translate(-94.268 -169.558)" fill="#0092ff"/>
      </g>
      <g id="Group_868" data-name="Group 868" transform="translate(97.839 174.969)">
        <path id="Path_2339" data-name="Path 2339" d="M115,186.9H102.48a3.129,3.129,0,0,1,0-6.258H115a3.129,3.129,0,0,1,0,6.258Z" transform="translate(-99.351 -180.642)" fill="#0092ff"/>
      </g>
    </g>
    <path id="Path_1723" data-name="Path 1723" d="M2360.686,957.757h-3.8a1.59,1.59,0,0,0,0,3.18h2.047v2.557a1.59,1.59,0,1,0,3.18,0V960.73a2.826,2.826,0,0,0,2.229-2.591v-2.906c0-1.6-1.572-2.8-3.658-2.8h-1.731a1.7,1.7,0,0,1-.477-.063v-2.295a1.685,1.685,0,0,1,.477-.064h3.8a1.59,1.59,0,0,0,0-3.18h-.64v-2.3a1.59,1.59,0,1,0-3.18,0v2.3c-2.075.008-3.636,1.207-3.636,2.8v3.186c0,1.6,1.573,2.8,3.657,2.8h1.731a1.7,1.7,0,0,1,.478.063v2.015A1.708,1.708,0,0,1,2360.686,957.757Z" transform="translate(-2336.93 -931.995)" fill="#0092ff"/>
  </g>
</svg>
