<svg id="PWA_from_Scratch" data-name="PWA from Scratch" xmlns="http://www.w3.org/2000/svg" width="35" height="59.079" viewBox="0 0 35 59.079">
  <path id="SaaS_maintenance" data-name="SaaS maintenance" d="M663.129,1082.016a2.506,2.506,0,0,0-3.467-.729,3.091,3.091,0,0,0-1.2,1.889c-.06.4-1.558,9.821-9.186,9.821-7.648,0-9.3-9.426-9.373-9.856a2.787,2.787,0,0,0-4.9-1.126c-3.571,5.47-7.067,18.046,4.452,27.385l1.376,28.175a2.5,2.5,0,0,0,2.5,2.383c.042,0,.083,0,.125,0a2.5,2.5,0,0,0,2.38-2.624l-1.432-29.326a2.506,2.506,0,0,0-1.008-1.889c-7.125-5.292-7.38-11.656-6.345-16.059,2.153,4.06,6.01,7.949,12.224,7.949,6.022,0,9.783-3.644,11.921-7.563.938,4.37.5,10.5-6.46,15.674a2.506,2.506,0,0,0-1.008,1.889l-1.431,29.326a2.5,2.5,0,0,0,2.38,2.624c.042,0,.083,0,.125,0a2.5,2.5,0,0,0,2.5-2.383l1.376-28.175C670.2,1100.062,666.7,1087.486,663.129,1082.016Z" transform="translate(-631.567 -1080.88)" fill="#ffc603"/>
</svg>
