<svg xmlns="http://www.w3.org/2000/svg" width="47.996" height="61.198" viewBox="0 0 47.996 61.198">
  <g id="PWA_from_Scratch" data-name="PWA from Scratch" transform="translate(0.496 0.5)">
    <g id="Group_1034" data-name="Group 1034">
      <path id="Path_2519" data-name="Path 2519" d="M86.547,155.16c-1.11,0-2.227-.005-3.336-.018a2.65,2.65,0,0,1-2.762-2.686q-.121-.995-.238-1.989c-.247-2.09-.5-4.252-.821-6.356a16.523,16.523,0,0,0-3.583-7.637c-1.818-2.37-3.846-4.673-5.807-6.9l-.82-.931a1.42,1.42,0,1,1,2.132-1.875l.817.93c1.994,2.262,4.054,4.6,5.93,7.048a19.482,19.482,0,0,1,4.137,8.94c.324,2.15.582,4.334.832,6.446q.117.99.237,1.981c.01.077.019.139.029.189,2.081.024,4.2.017,6.253.01l.875,0c0-.006,0-.012,0-.018.05-.443.1-.885.158-1.327.14-1.153.284-2.343.367-3.5a23.3,23.3,0,0,1,4.3-12.211c.163-.225.322-.452.483-.68a25.713,25.713,0,0,1,1.552-2.05c2.2-2.543,4.42-5.054,6.6-7.462a10.083,10.083,0,0,0,2.958-5.544c.027-.211.038-.364.042-.475-.107-.011-.255-.018-.458-.018q-7.324,0-14.647,0l-17.23-.006q-3.76,0-7.523.01c-.071,0-.133,0-.186.006,0,.032.008.066.014.1a1.42,1.42,0,0,1-2.81.41,3.045,3.045,0,0,1,.536-2.453,3.087,3.087,0,0,1,2.435-.907q3.767-.013,7.532-.009H83.5l8.282.006q7.325,0,14.648,0a2.828,2.828,0,0,1,3.229,3.7,13.123,13.123,0,0,1-3.667,7.081c-2.163,2.392-4.369,4.888-6.557,7.416-.483.558-.918,1.175-1.378,1.828-.167.237-.333.473-.5.707a20.234,20.234,0,0,0-3.773,10.749c-.087,1.229-.236,2.457-.379,3.643q-.08.654-.156,1.307a2.661,2.661,0,0,1-2.756,2.535l-.931,0C88.568,155.157,87.56,155.16,86.547,155.16Z" transform="translate(-63.99 -94.962)" fill="#ffc603" stroke="#ffc603" stroke-width="1"/>
      <path id="Path_2520" data-name="Path 2520" d="M83.6,63.58a6.39,6.39,0,1,1,6.391-6.39A6.4,6.4,0,0,1,83.6,63.58Zm0-9.942A3.552,3.552,0,1,0,87.15,57.19,3.556,3.556,0,0,0,83.6,53.638Z" transform="translate(-73.31 -48.867)" fill="#ffc603" stroke="#ffc603" stroke-width="1"/>
      <path id="Path_2521" data-name="Path 2521" d="M139.877,79.156a6.39,6.39,0,1,1,6.391-6.391A6.4,6.4,0,0,1,139.877,79.156Zm0-9.942a3.552,3.552,0,1,0,3.552,3.552A3.556,3.556,0,0,0,139.877,69.214Z" transform="translate(-112.989 -59.849)" fill="#ffc603" stroke="#ffc603" stroke-width="1"/>
      <path id="Path_2522" data-name="Path 2522" d="M186.4,57.029a6.39,6.39,0,1,1,6.391-6.39A6.4,6.4,0,0,1,186.4,57.029Zm0-9.941a3.552,3.552,0,1,0,3.552,3.552A3.556,3.556,0,0,0,186.4,47.088Z" transform="translate(-145.788 -44.248)" fill="#ffc603" stroke="#ffc603" stroke-width="1"/>
      <circle id="Ellipse_22" data-name="Ellipse 22" cx="1.419" cy="1.419" r="1.419" transform="translate(1.974 26.787)" fill="#ffc603" stroke="#ffc603" stroke-width="1"/>
    </g>
  </g>
</svg>
