<svg id="PWA_from_Scratch" data-name="PWA from Scratch" xmlns="http://www.w3.org/2000/svg" width="45.333" height="51.192" viewBox="0 0 45.333 51.192">
  <g id="Migration_to_PWA" data-name="Migration to PWA">
    <path id="Path_1814" data-name="Path 1814" d="M2184.652,331.643h23.285a2.288,2.288,0,0,0,2.131-1.4,2.154,2.154,0,0,0-.579-2.426l-6.306-5.613a2.348,2.348,0,0,0-3.234.125,2.152,2.152,0,0,0,.129,3.118l2.005,1.785h-17.432c-4.54,0-4.965-2.984-4.988-3.874V313.064c0-3.911,2-4.313,2.563-4.342h20.881l11.757,11.337v10.9a2.29,2.29,0,0,0,4.577,0V319.144a2.165,2.165,0,0,0-.671-1.56l-13.1-12.63a2.328,2.328,0,0,0-1.617-.646h-21.83c-2.469,0-7.139,1.83-7.139,8.756v10.291C2175.088,325.66,2176.806,331.643,2184.652,331.643Z" transform="translate(-2175.08 -304.308)" fill="#fc7754"/>
    <path id="Path_1815" data-name="Path 1815" d="M2211.329,352.479h-26.2a2.29,2.29,0,0,0-2.114,1.362,2.15,2.15,0,0,0,.5,2.405l5.337,5.146a2.349,2.349,0,0,0,3.236,0,2.152,2.152,0,0,0,0-3.121l-1.429-1.378h20.671c4.209,0,4.5.406,4.5,6.213,0,3.662-2.5,4.6-3.3,4.81h-28.364a4.869,4.869,0,0,1-3.566-1.11,3.836,3.836,0,0,1-.944-2.6c0-.057.007-.113.007-.17v-11.98a2.29,2.29,0,0,0-4.577,0v11.915a8.077,8.077,0,0,0,2.133,5.8,9.218,9.218,0,0,0,6.947,2.548h28.621a2.337,2.337,0,0,0,.409-.036,8.98,8.98,0,0,0,7.215-9.188C2220.409,356.883,2219.758,352.479,2211.329,352.479Z" transform="translate(-2175.076 -321.137)" fill="#fc7754"/>
  </g>
</svg>
