<svg id="PWA_from_Scratch" data-name="PWA from Scratch" xmlns="http://www.w3.org/2000/svg" width="55" height="46.18" viewBox="0 0 55 46.18">
  <g id="Seo_Friendly" data-name="Seo Friendly">
    <path id="Seo_Friendly-2" data-name="Seo Friendly" d="M663.574,1286.243l-6.117-6.1c.032-.038.067-.07.1-.111a14.6,14.6,0,0,0,1.588-2.939c.02-.042.045-.079.063-.123s.036-.109.057-.163c.073-.192.136-.388.2-.583.071-.212.143-.422.2-.637.054-.188.1-.38.143-.571.054-.222.108-.443.152-.667.038-.2.065-.392.094-.589.034-.222.069-.442.092-.665.021-.205.032-.411.045-.617s.029-.433.034-.649,0-.423-.008-.635-.008-.427-.023-.642c0-.057,0-.115-.006-.173-.023-.3-.058-.587-.1-.876-.007-.048-.015-.1-.022-.143-.059-.4-.131-.8-.221-1.187a2.06,2.06,0,0,0,.735-1.576v-20.945a2.038,2.038,0,0,0-2.019-2.057H622.807a2.058,2.058,0,0,0,0,4.115h33.736v14.079a14.339,14.339,0,0,0-2.762-2.4,14.1,14.1,0,0,0-1.494-.877l1.958-6.741h-2.568l-1.244,4.872-1.534-4.872h-2.212l-1.534,4.872-1.26-4.872h-4.925l-1.244,4.872-1.534-4.872h-2.212l-1.534,4.872-1.26-4.872h-4.926l-1.244,4.872-1.534-4.872h-2.212l-1.534,4.872-1.26-4.872h-2.552l2.309,7.95h2.681l1.453-4.921,1.47,4.921h2.681l2.212-7.616,2.213,7.616h2.681l1.453-4.921,1.469,4.921h1.1c-.106.077-.2.165-.307.245-.126.1-.252.2-.374.3-.269.223-.529.458-.782.7-.073.07-.145.14-.216.211-.245.246-.48.5-.707.765-.089.1-.177.206-.262.312q-.267.328-.517.674-.207.287-.4.583c-.1.153-.2.306-.291.464-.14.233-.273.471-.4.712a1.979,1.979,0,0,0-.728-.144H613.217v-18.887a2.019,2.019,0,1,0-4.037,0v20.945a2.038,2.038,0,0,0,2.018,2.057h20.77a14.651,14.651,0,0,0-.058,5.467c.019.112.044.222.066.333s.039.205.062.307a14.5,14.5,0,0,0,2.488,5.494l.008.011a14.551,14.551,0,0,0,1.433,1.663l.055.055c.221.218.448.433.684.638.03.026.062.047.092.073.091.077.186.146.278.22a14.138,14.138,0,0,0,4.512,2.472l.041.013c.329.107.662.2,1,.284.042.011.084.019.126.029.313.073.628.14.946.191.095.016.19.025.285.039.273.038.546.077.821.1s.55.03.827.037c.1,0,.2.014.3.014h.034a13.971,13.971,0,0,0,4.492-.745,2.066,2.066,0,0,0,1.279-2.6,2.01,2.01,0,0,0-2.552-1.3,10.1,10.1,0,0,1-2.586.5c-.232.015-.464.023-.7.023-.108,0-.216,0-.323-.008q-.324-.012-.644-.043-.2-.022-.407-.051c-.177-.025-.353-.054-.528-.089s-.347-.074-.519-.118c-.134-.033-.267-.07-.4-.11q-.306-.092-.608-.2c-.1-.038-.206-.077-.308-.118-.212-.087-.422-.182-.63-.284-.1-.049-.2-.1-.3-.151-.184-.1-.363-.2-.54-.311-.13-.08-.261-.16-.388-.247s-.255-.179-.38-.272c-.164-.122-.327-.248-.486-.381-.088-.073-.173-.149-.258-.226-.171-.154-.338-.312-.5-.476-.079-.081-.155-.163-.231-.246q-.217-.238-.419-.488-.132-.165-.258-.336-.158-.214-.306-.436t-.29-.466q-.1-.176-.2-.357-.156-.29-.293-.591c-.046-.1-.09-.2-.132-.3q-.136-.323-.25-.659c-.037-.107-.073-.213-.106-.321-.062-.2-.117-.4-.167-.608-.037-.151-.073-.3-.1-.456s-.056-.308-.08-.463c-.031-.207-.059-.414-.079-.624-.01-.111-.018-.222-.025-.333-.016-.249-.024-.5-.022-.744q0-.148.007-.3.013-.367.051-.729c.011-.106.024-.213.038-.32.031-.225.069-.447.114-.668.025-.122.051-.244.08-.365.048-.2.1-.4.163-.595.041-.135.084-.271.13-.4.063-.183.132-.362.2-.54.056-.136.114-.271.176-.406.084-.181.171-.36.265-.536q.088-.167.183-.33c.115-.2.235-.4.363-.587.046-.07.094-.139.142-.207.153-.219.314-.432.483-.638.03-.037.061-.073.092-.109.188-.222.383-.436.589-.641.024-.025.05-.048.074-.072q.312-.305.65-.584l.118-.094q.311-.249.643-.475c.076-.051.154-.1.231-.15q.281-.18.574-.342c.125-.069.253-.133.381-.2.158-.078.317-.155.479-.225s.333-.135.5-.2c.145-.053.29-.107.438-.154.168-.054.337-.1.506-.144s.345-.089.52-.126c.135-.028.271-.05.406-.073.22-.036.441-.067.665-.089.1-.01.2-.017.306-.024.249-.017.5-.024.741-.022.1,0,.191,0,.286.007q.36.013.715.052c.107.012.213.025.319.04.218.031.433.07.645.114.125.026.249.054.373.085.191.048.379.1.566.16.14.044.279.09.417.14q.257.093.507.2.213.09.422.19.254.122.5.257c.118.064.233.131.348.2.189.114.374.232.555.357.075.052.149.105.223.159.208.152.412.311.609.479.042.035.082.072.123.108.213.188.419.383.616.588l.082.087c.2.209.385.427.564.652.034.043.066.086.1.129q.242.315.46.649c.051.079.1.159.15.24.117.19.229.384.334.582.068.127.131.258.193.389.077.161.152.323.22.489s.133.338.194.511c.054.152.108.305.156.461s.084.291.122.436q.069.266.125.537c.028.139.055.278.078.418.033.2.058.407.079.613.013.129.029.257.038.385.01.155.013.309.016.464s.009.3.006.452-.014.313-.024.469-.017.293-.032.439-.042.319-.066.478c-.021.141-.04.282-.067.421-.031.16-.07.317-.108.476-.033.138-.065.277-.1.414s-.093.3-.143.447-.094.288-.148.43a10.517,10.517,0,0,1-.963,1.906l-.378-.378a1.993,1.993,0,0,0-2.855.031,2.086,2.086,0,0,0,.03,2.91l9.417,9.4a1.993,1.993,0,0,0,2.855-.031A2.086,2.086,0,0,0,663.574,1286.243Zm-15.061-29.015c-.429-.08-.864-.138-1.3-.177l-.088-.01.664-2.248Zm-7.073-5.13,1.516,5.221-.174.039c-.155.036-.307.077-.46.117-.072.019-.144.038-.216.058-.18.051-.359.108-.536.167l-.113.034-.021.009q-.624.212-1.219.481l-.133.059c-.174.08-.345.165-.515.252Z" transform="translate(-609.18 -1243.591)" fill="#fc7754"/>
  </g>
</svg>
