<svg id="PWA_from_Scratch" data-name="PWA from Scratch" xmlns="http://www.w3.org/2000/svg" width="51.96" height="54.393" viewBox="0 0 51.96 54.393">
  <g id="Securing_the_ecosystem" data-name="Securing the ecosystem">
    <path id="Path_1695" data-name="Path 1695" d="M816.274,945.171a1.892,1.892,0,0,0-1.592-.377l-3.857.839c.041-.564.069-1.129.069-1.695a22.933,22.933,0,0,0-45.684-2.906c-.007.05-.016.1-.019.15a22.886,22.886,0,0,0,13.065,23.546,1.853,1.853,0,0,0,.221.1,22.884,22.884,0,0,0,17.062.771,22.317,22.317,0,0,0,4.118,5.8l2.808,2.856a3.748,3.748,0,0,0,5.259.085l.677-.646a27.81,27.81,0,0,0,8.579-20.037v-7.014A1.9,1.9,0,0,0,816.274,945.171Zm-11.4-10.195a32.817,32.817,0,0,1-7.091,1.838c-5.582.669-10.233,5.541-11.506,9.863-.3,1.01-.608,1.207-.6,1.207-.083.017-.3-.009-.914-.356-.667-.835-2.134-4.28-2.016-5.585a14.155,14.155,0,0,0-2.109-8.468c-1.058-1.785-2.6-3.976-3.546-5.295a19.112,19.112,0,0,1,27.787,6.8Zm-35.68,12.774a8.977,8.977,0,0,0,2.252,1.988c1.483.809,3.983,5.495,3.983,7.046a9.145,9.145,0,0,0,.22,1.812A19.168,19.168,0,0,1,769.192,947.75ZM787.957,963.1a19.035,19.035,0,0,1-7.365-1.476,17.426,17.426,0,0,1-1.375-4.836c0-2.877-3.138-8.837-5.958-10.376-.949-.518-2.841-3.139-4.21-5.484a19.118,19.118,0,0,1,5.139-10.279c.916,1.279,2.268,3.218,3.183,4.763a10.275,10.275,0,0,1,1.595,6.191c-.233,2.571,2.018,8.1,3.733,9.119a5.878,5.878,0,0,0,2.952.962,3.8,3.8,0,0,0,1.4-.264,5.164,5.164,0,0,0,2.861-3.667c.909-3.089,4.47-6.707,8.321-7.169a36.631,36.631,0,0,0,8.078-2.091,19.11,19.11,0,0,1,.793,5.449,19.418,19.418,0,0,1-.172,2.542l-1.811.394-9.562-2.079a1.9,1.9,0,0,0-2.3,1.853v9.124a22.37,22.37,0,0,0,.9,6.293A19.078,19.078,0,0,1,787.957,963.1Zm25.233-9.435a24,24,0,0,1-7.4,17.292l-.647.618-2.779-2.827a18.4,18.4,0,0,1-5.309-12.973V949l7.667,1.668a1.9,1.9,0,0,0,.805,0l3.063-.666a1.888,1.888,0,0,0,.771-.167L813.19,949Z" transform="translate(-765.02 -920.987)" fill="#ffc603"/>
    <path id="Path_1696" data-name="Path 1696" d="M805.85,980.148a1.9,1.9,0,1,0-3.39,1.7l.878,1.755a1.9,1.9,0,1,0,3.39-1.7Z" transform="translate(-782.095 -947.614)" fill="#ffc603"/>
  </g>
</svg>
