<svg id="PWA_from_Scratch" data-name="PWA from Scratch" xmlns="http://www.w3.org/2000/svg" width="48" height="48" viewBox="0 0 48 48">
  <path id="solution" d="M2678.508,1078.022h-22.024a1.977,1.977,0,0,0-1.976,1.976v7.906a1.976,1.976,0,0,0,1.976,1.976h6.494a1.694,1.694,0,1,1,0,3.388h-6.494a1.977,1.977,0,0,0-1.976,1.977v6.494h-3.388v-4.518a5.647,5.647,0,1,0-11.294,0v4.518h-5.365a1.977,1.977,0,0,0-1.977,1.977v20.329a1.976,1.976,0,0,0,1.977,1.976h44.047a1.976,1.976,0,0,0,1.976-1.976V1080A1.976,1.976,0,0,0,2678.508,1078.022Zm-20.047,19.2h4.518a5.647,5.647,0,1,0,0-11.294h-4.518v-3.953h18.071v18.071h-5.365a1.977,1.977,0,0,0-1.977,1.976v6.494a1.694,1.694,0,0,1-3.388,0v-6.494a1.976,1.976,0,0,0-1.976-1.976h-5.365Zm-22.023,8.471h5.365a1.976,1.976,0,0,0,1.976-1.976v-6.494a1.694,1.694,0,0,1,3.389,0v6.494a1.976,1.976,0,0,0,1.976,1.976h5.365v2.259h-4.518a5.647,5.647,0,1,0,0,11.294h4.518v2.823h-18.071Zm40.094,16.376H2658.46v-4.8a1.976,1.976,0,0,0-1.977-1.976h-6.494a1.694,1.694,0,0,1,0-3.388h6.494a1.976,1.976,0,0,0,1.977-1.976V1104h3.388v4.518a5.647,5.647,0,0,0,11.294,0V1104h3.388Z" transform="translate(-2632.484 -1078.022)" fill="#0092ff"/>
</svg>
