<svg id="Layer_2" data-name="Layer 2" xmlns="http://www.w3.org/2000/svg" width="72.896" height="68.782" viewBox="0 0 72.896 68.782">
  <g id="Layer_1" data-name="Layer 1">
    <path id="Path_15127" data-name="Path 15127" d="M9.912,14.7l9.031,5.949L11.1,44.357,37.909,16.337V30.455L9.89,45.887Zm0-2.155V0L36.9,14.872l-9.1,6.682Z" transform="translate(11.426)" fill="#001e51"/>
    <path id="Path_15128" data-name="Path 15128" d="M4.612,28.248H4.1V24.3h0a2.737,2.737,0,0,1-.129.431L2.414,28.2H2.155L.625,24.778A2.393,2.393,0,0,1,.5,24.347h0v3.923H0V23.7H.711l1.444,3.168a3.707,3.707,0,0,1,.194.539h0a1.069,1.069,0,0,1,.216-.56L3.987,23.7h.668Z" transform="translate(0 27.381)" fill="#001e51"/>
    <path id="Path_15129" data-name="Path 15129" d="M3.263,23.909a.323.323,0,0,1,0,.237.323.323,0,0,1-.237,0,.345.345,0,0,1-.237,0,78585.888,78585.888,0,0,0,0-.474.323.323,0,0,1,.237,0,.345.345,0,0,1,.345.345Zm0,4.311h-.6V24.987h.517Z" transform="translate(3.073 27.323)" fill="#001e51"/>
    <path id="Path_15130" data-name="Path 15130" d="M5.7,27.439a1.681,1.681,0,0,1-.884.237,1.573,1.573,0,0,1-.8-.194,1.422,1.422,0,0,1-.539-.582,1.767,1.767,0,0,1-.194-.841,1.81,1.81,0,0,1,.453-1.293,1.616,1.616,0,0,1,1.229-.5,1.66,1.66,0,0,1,.754.172v.539a1.336,1.336,0,0,0-.884-.28,1.035,1.035,0,0,0-.819.366,1.358,1.358,0,0,0-.323.927,1.272,1.272,0,0,0,.3.905,1.035,1.035,0,0,0,.8.323,1.315,1.315,0,0,0,.8-.28Z" transform="translate(3.788 28.039)" fill="#001e51"/>
    <path id="Path_15131" data-name="Path 15131" d="M6.441,24.92a.69.69,0,0,0-.948.216,1.509,1.509,0,0,0-.216.754v1.638H4.76V24.295h.517v.668h0a1.164,1.164,0,0,1,.323-.539.776.776,0,0,1,.517-.194h.3Z" transform="translate(5.499 27.994)" fill="#001e51"/>
    <path id="Path_15132" data-name="Path 15132" d="M8.83,25.9a1.746,1.746,0,0,1-.431,1.25,1.53,1.53,0,0,1-1.164.474,1.509,1.509,0,0,1-1.142-.453,1.7,1.7,0,0,1-.431-1.207A1.767,1.767,0,0,1,6.093,24.7,1.573,1.573,0,0,1,7.3,24.221a1.444,1.444,0,0,1,1.121.453A1.767,1.767,0,0,1,8.83,25.9Zm-.539,0a1.444,1.444,0,0,0-.259-.927.948.948,0,0,0-.776-.323.991.991,0,0,0-.8.345,1.379,1.379,0,0,0-.28.948,1.315,1.315,0,0,0,.3.905.991.991,0,0,0,.8.323.948.948,0,0,0,.776-.323,1.4,1.4,0,0,0,.237-.819Z" transform="translate(6.537 27.981)" fill="#001e51"/>
    <path id="Path_15133" data-name="Path 15133" d="M9.384,26.66a.841.841,0,0,1-.323.69,1.336,1.336,0,0,1-.862.259,1.6,1.6,0,0,1-.8-.194v-.56a1.293,1.293,0,0,0,.841.3c.41,0,.625-.151.625-.453a.41.41,0,0,0-.172-.28,2.328,2.328,0,0,0-.539-.3,1.638,1.638,0,0,1-.582-.323.905.905,0,0,1,.151-1.229,1.228,1.228,0,0,1,.819-.259,1.552,1.552,0,0,1,.69.151v.517a1.207,1.207,0,0,0-.733-.237.647.647,0,0,0-.41.129.409.409,0,0,0-.151.323.431.431,0,0,0,.129.323,1.789,1.789,0,0,0,.5.28,1.832,1.832,0,0,1,.647.41.8.8,0,0,1,.172.453Z" transform="translate(8.549 28.085)" fill="#001e51"/>
    <path id="Path_15134" data-name="Path 15134" d="M11.7,25.9a1.746,1.746,0,0,1-.431,1.25,1.53,1.53,0,0,1-1.164.474,1.509,1.509,0,0,1-1.142-.453,1.7,1.7,0,0,1-.431-1.207A1.767,1.767,0,0,1,8.963,24.7a1.573,1.573,0,0,1,1.207-.474,1.444,1.444,0,0,1,1.121.453A1.767,1.767,0,0,1,11.7,25.9Zm-.539,0a1.444,1.444,0,0,0-.259-.927.948.948,0,0,0-.776-.323.991.991,0,0,0-.8.345,1.379,1.379,0,0,0-.28.948,1.315,1.315,0,0,0,.3.905.991.991,0,0,0,.8.323.948.948,0,0,0,.776-.323,1.4,1.4,0,0,0,.323-.819Z" transform="translate(9.853 27.981)" fill="#001e51"/>
    <path id="Path_15135" data-name="Path 15135" d="M12.164,24.04a.69.69,0,0,0-.345,0c-.366,0-.539.237-.539.69v.5h.69v.431h-.754v2.8H10.7v-2.8H10.16v-.431H10.7v-.517a1.1,1.1,0,0,1,.28-.8.97.97,0,0,1,.733-.3,1.013,1.013,0,0,1,.366,0Z" transform="translate(11.738 27.257)" fill="#001e51"/>
    <path id="Path_15136" data-name="Path 15136" d="M13.017,28.078a1.013,1.013,0,0,1-.5,0c-.56,0-.841-.323-.841-.948V25.211h-.56V24.78h.56v-.8l.517-.172v.948h.819v.431H12.2v1.832a.733.733,0,0,0,.108.453.453.453,0,0,0,.366.129.56.56,0,0,0,.345,0Z" transform="translate(12.847 27.508)" fill="#001e51"/>
    <path id="Path_15137" data-name="Path 15137" d="M7.236,30.824a4.44,4.44,0,0,1-.56,2.155,3.75,3.75,0,0,1-1.595,1.487,5.151,5.151,0,0,1-2.371.517H.21V26.772H2.775a4.742,4.742,0,0,1,3.449,1.035A3.923,3.923,0,0,1,7.236,30.824Zm-1.466,0a2.8,2.8,0,0,0-.8-2.155,3.168,3.168,0,0,0-2.155-.733H1.589v5.927H2.71a3.039,3.039,0,0,0,2.155-.8,3.039,3.039,0,0,0,.905-2.22Z" transform="translate(0.243 30.904)" fill="#001e51"/>
    <path id="Path_15138" data-name="Path 15138" d="M4.809,36.625a3.083,3.083,0,0,1-.819,0V35.483a1.6,1.6,0,0,0,.647.151,1.1,1.1,0,0,0,1.035-.948l.41-.948L3.71,27.81H5.219l1.4,4.181a3.944,3.944,0,0,1,.129.56h0l.151-.56L8.344,27.81H9.7L7.137,34.556a3.793,3.793,0,0,1-.991,1.573A1.983,1.983,0,0,1,4.809,36.625Z" transform="translate(4.286 32.13)" fill="#001e51"/>
    <path id="Path_15139" data-name="Path 15139" d="M10.853,33.87V30.55a2.155,2.155,0,0,0-.28-1.25,1.013,1.013,0,0,0-.905-.41,1.272,1.272,0,0,0-1.013.453,1.7,1.7,0,0,0-.388,1.142v3.362H6.93V27.942H8.266v.948h0a2.155,2.155,0,0,1,1.918-1.1,1.832,1.832,0,0,1,1.466.6,2.759,2.759,0,0,1,.517,1.832V33.87Z" transform="translate(8.006 32.105)" fill="#001e51"/>
    <path id="Path_15140" data-name="Path 15140" d="M13.552,33.918V33.1h0a1.961,1.961,0,0,1-1.746.97,1.918,1.918,0,0,1-1.379-.474,1.681,1.681,0,0,1-.5-1.293,1.832,1.832,0,0,1,.5-1.336,2.392,2.392,0,0,1,1.444-.625L13.6,30.1q0-1.207-1.121-1.207a3.169,3.169,0,0,0-1.056.172,3.3,3.3,0,0,0-.905.474v-1.25a3.406,3.406,0,0,1,.97-.366,4.763,4.763,0,0,1,1.142-.172,2.285,2.285,0,0,1,1.724.6,2.371,2.371,0,0,1,.582,1.724v3.75ZM11.2,32.172a.754.754,0,0,0,.28.6,1.078,1.078,0,0,0,.711.237,1.293,1.293,0,0,0,.991-.41,1.444,1.444,0,0,0,.388-1.035V31.03L12.3,31.2a1.638,1.638,0,0,0-.841.3.862.862,0,0,0-.259.668Z" transform="translate(11.471 32.057)" fill="#001e51"/>
    <path id="Path_15141" data-name="Path 15141" d="M20.431,33.87V30.529a2.155,2.155,0,0,0-.259-1.25,1.035,1.035,0,0,0-.905-.388,1.078,1.078,0,0,0-.884.474,1.9,1.9,0,0,0-.366,1.164v3.319H16.68V30.4q0-1.509-1.164-1.509a1.078,1.078,0,0,0-.905.453,1.94,1.94,0,0,0-.345,1.185v3.319H12.93V27.943h1.336v.905h0a2.155,2.155,0,0,1,1.875-1.056,1.81,1.81,0,0,1,1.056.3,1.681,1.681,0,0,1,.647.862,2.371,2.371,0,0,1,.841-.884,2.285,2.285,0,0,1,1.142-.28,1.789,1.789,0,0,1,1.444.582,2.78,2.78,0,0,1,.5,1.832V33.87Z" transform="translate(14.938 32.104)" fill="#001e51"/>
    <path id="Path_15142" data-name="Path 15142" d="M19.4,27.316a.711.711,0,0,1-.237.539.884.884,0,0,1-1.164,0,.711.711,0,0,1-.237-.539.733.733,0,0,1,.237-.56.841.841,0,0,1,1.164,0,.754.754,0,0,1,.237.56Zm-1.509,8.018V29.406h1.336v5.927Z" transform="translate(20.518 30.641)" fill="#001e51"/>
    <path id="Path_15143" data-name="Path 15143" d="M23.7,33.63a3.341,3.341,0,0,1-1.681.388,3.1,3.1,0,0,1-1.53-.366A2.629,2.629,0,0,1,19.457,32.6a3.147,3.147,0,0,1-.366-1.53,3.664,3.664,0,0,1,.388-1.7A2.759,2.759,0,0,1,20.6,28.22a3.448,3.448,0,0,1,1.7-.41,3.922,3.922,0,0,1,.776,0,2.328,2.328,0,0,1,.647.216V29.3a2.306,2.306,0,0,0-1.358-.474,1.767,1.767,0,0,0-1.358.56,2.155,2.155,0,0,0-.517,1.487,2.026,2.026,0,0,0,.5,1.444,1.767,1.767,0,0,0,1.358.539,2.155,2.155,0,0,0,.69-.129,2.651,2.651,0,0,0,.69-.366Z" transform="translate(22.055 32.108)" fill="#001e51"/>
    <path id="Path_15144" data-name="Path 15144" d="M25.623,32.19a1.617,1.617,0,0,1-.647,1.336,2.694,2.694,0,0,1-1.724.517,4.052,4.052,0,0,1-.8,0,3.578,3.578,0,0,1-.754-.237V32.535a3.039,3.039,0,0,0,.819.41,2.586,2.586,0,0,0,.8.151q.97,0,.97-.647a.625.625,0,0,0,0-.366,1.034,1.034,0,0,0-.323-.28l-.733-.345a3.621,3.621,0,0,1-.862-.474,1.444,1.444,0,0,1-.41-.539,1.832,1.832,0,0,1-.129-.733,1.6,1.6,0,0,1,.517-1.444,2.543,2.543,0,0,1,1.638-.5h.69a2.93,2.93,0,0,1,.625.172v1.207a2.349,2.349,0,0,0-.647-.3,2.5,2.5,0,0,0-.733-.108,1.013,1.013,0,0,0-.625.172.56.56,0,0,0-.237.453.647.647,0,0,0,.172.5,3.061,3.061,0,0,0,.862.453,2.931,2.931,0,0,1,1.164.754,1.53,1.53,0,0,1,.366,1.121Z" transform="translate(25.071 32.082)" fill="#001e51"/>
    <path id="Path_15145" data-name="Path 15145" d="M30.367,32.757a2.285,2.285,0,0,1-.819,1.832,3.384,3.384,0,0,1-2.155.69,5.022,5.022,0,0,1-1.142-.129,2.63,2.63,0,0,1-.841-.323V33.511a2.953,2.953,0,0,0,.905.5,3.19,3.19,0,0,0,1.056.194,1.918,1.918,0,0,0,1.25-.366,1.229,1.229,0,0,0,.474-1.013,1.164,1.164,0,0,0-.539-1.035A2.823,2.823,0,0,0,27,31.421h-.733v-1.1h.69A2.392,2.392,0,0,0,28.32,30a1.1,1.1,0,0,0,.474-.97,1.121,1.121,0,0,0-.366-.905,1.6,1.6,0,0,0-1.056-.323,2.608,2.608,0,0,0-1.638.6V27.175a3.449,3.449,0,0,1,.905-.345,4.72,4.72,0,0,1,1.1-.129,3.082,3.082,0,0,1,1.315.259,1.983,1.983,0,0,1,.862.733,1.918,1.918,0,0,1,.3,1.035,2,2,0,0,1-.431,1.336,2.328,2.328,0,0,1-1.229.733h0a2.328,2.328,0,0,1,1.423.625,1.811,1.811,0,0,1,.388,1.336Z" transform="translate(29.357 30.847)" fill="#001e51"/>
    <path id="Path_15146" data-name="Path 15146" d="M33.94,32.446a2.974,2.974,0,0,1-.345,1.466,2.522,2.522,0,0,1-.97,1.013,2.78,2.78,0,0,1-1.4.366,2.479,2.479,0,0,1-2.155-1.013,4.569,4.569,0,0,1-.754-2.823,6.6,6.6,0,0,1,.431-2.5A3.707,3.707,0,0,1,30,27.294a3.125,3.125,0,0,1,1.875-.582,3.556,3.556,0,0,1,1.466.237v1.207a3.061,3.061,0,0,0-1.379-.388,1.9,1.9,0,0,0-1.638.841,3.858,3.858,0,0,0-.517,2.285h0a1.854,1.854,0,0,1,.733-.733,2.419,2.419,0,0,1,2.78.431A2.673,2.673,0,0,1,33.94,32.446Zm-1.358.108a1.767,1.767,0,0,0-.366-1.185,1.272,1.272,0,0,0-1.013-.431,1.336,1.336,0,0,0-1.013.41,1.423,1.423,0,0,0-.388,1.035,2.155,2.155,0,0,0,.172.862,1.53,1.53,0,0,0,.5.647,1.207,1.207,0,0,0,.733.237,1.228,1.228,0,0,0,.991-.431,1.767,1.767,0,0,0,.388-1.142Z" transform="translate(32.702 30.856)" fill="#001e51"/>
    <path id="Path_15147" data-name="Path 15147" d="M31.54,34.864V33.571a2.931,2.931,0,0,0,1.66.56,2.155,2.155,0,0,0,1.358-.431,1.423,1.423,0,0,0,.517-1.142,1.293,1.293,0,0,0-.517-1.1,2.457,2.457,0,0,0-1.509-.388H31.691l.3-4.311h4.1V27.9h-3l-.129,2.155H33.7a2.867,2.867,0,0,1,2.048.668,2.436,2.436,0,0,1,.711,1.854,2.522,2.522,0,0,1-.819,1.983,3.254,3.254,0,0,1-2.263.754,3.75,3.75,0,0,1-1.832-.453Z" transform="translate(36.439 30.917)" fill="#001e51"/>
  </g>
</svg>
