<svg id="salesforce" xmlns="http://www.w3.org/2000/svg" width="93.991" height="65.771" viewBox="0 0 93.991 65.771">
  <path id="Path_15154" data-name="Path 15154" d="M39.118,7.189a16.484,16.484,0,0,1,26.423,3.48A20.131,20.131,0,0,1,73.724,8.91a20.42,20.42,0,0,1,0,40.839,22.266,22.266,0,0,1-3.977-.382,14.876,14.876,0,0,1-12.963,7.609,14.6,14.6,0,0,1-6.462-1.491A16.918,16.918,0,0,1,18.89,54.72a14.765,14.765,0,0,1-3.212.344A15.757,15.757,0,0,1,0,39.233,15.953,15.953,0,0,1,7.839,25.505,18.259,18.259,0,0,1,39.118,7.189" fill="#00a1e0"/>
  <path id="Path_15155" data-name="Path 15155" d="M35.558,76.724c-.076.153.038.191.038.229a3.821,3.821,0,0,0,.535.306,5.839,5.839,0,0,0,2.791.65c1.912,0,3.136-1.032,3.136-2.677v-.038c0-1.53-1.338-2.065-2.6-2.486l-.153-.038c-.956-.306-1.8-.574-1.8-1.224v-.038c0-.535.5-.918,1.224-.918a5.645,5.645,0,0,1,2.447.612s.191.115.268-.076c.038-.115.344-.956.382-1.071a.216.216,0,0,0-.076-.229A5.267,5.267,0,0,0,39,69h-.191a2.688,2.688,0,0,0-2.983,2.6v.076c0,1.606,1.377,2.141,2.638,2.486l.191.076c.918.268,1.721.535,1.721,1.185v.038c0,.612-.535,1.032-1.338,1.032a4.393,4.393,0,0,1-2.486-.727c-.153-.076-.229-.153-.306-.191a.176.176,0,0,0-.268.076l-.421,1.071Z" transform="translate(-21.945 -42.615)" fill="#fff"/>
  <path id="Path_15156" data-name="Path 15156" d="M109.358,76.724c-.076.153.038.191.038.229a3.821,3.821,0,0,0,.535.306,5.839,5.839,0,0,0,2.791.65c1.912,0,3.136-1.032,3.136-2.677v-.038c0-1.53-1.338-2.065-2.6-2.486l-.153-.038c-.956-.306-1.8-.574-1.8-1.224v-.038c0-.535.5-.918,1.224-.918a5.645,5.645,0,0,1,2.447.612s.191.115.268-.076c.038-.115.344-.956.382-1.071a.216.216,0,0,0-.076-.229A5.267,5.267,0,0,0,112.8,69h-.191a2.688,2.688,0,0,0-2.983,2.6v.076c0,1.606,1.377,2.141,2.638,2.486l.191.076c.918.268,1.721.535,1.721,1.185v.038c0,.612-.535,1.032-1.377,1.032a4.393,4.393,0,0,1-2.486-.727c-.153-.076-.229-.153-.306-.191a.176.176,0,0,0-.268.076l-.382,1.071Z" transform="translate(-67.524 -42.615)" fill="#fff"/>
  <path id="Path_15157" data-name="Path 15157" d="M150.165,73.536a3.9,3.9,0,0,1-.535,2.18,1.989,1.989,0,0,1-3.136,0,4,4,0,0,1-.5-2.18,3.917,3.917,0,0,1,.5-2.18,1.762,1.762,0,0,1,1.568-.765,1.682,1.682,0,0,1,1.568.765,3.991,3.991,0,0,1,.535,2.18m1.606-1.721a4.508,4.508,0,0,0-.727-1.415,3.783,3.783,0,0,0-1.224-.956,4.474,4.474,0,0,0-3.441,0,3.044,3.044,0,0,0-1.224.956,3.557,3.557,0,0,0-.727,1.415,6.567,6.567,0,0,0,0,3.441,4.508,4.508,0,0,0,.727,1.415,3.233,3.233,0,0,0,1.224.918,4.474,4.474,0,0,0,3.441,0,3.331,3.331,0,0,0,1.224-.918,3.557,3.557,0,0,0,.727-1.415,6.567,6.567,0,0,0,0-3.441" transform="translate(-89.06 -42.677)" fill="#fff"/>
  <path id="Path_15158" data-name="Path 15158" d="M188.433,76.251a.154.154,0,0,0-.191-.115,4.469,4.469,0,0,1-.765.229,6.275,6.275,0,0,1-.879.076,2.422,2.422,0,0,1-1.835-.688,3.021,3.021,0,0,1-.688-2.218,3.358,3.358,0,0,1,.612-2.1,2.073,2.073,0,0,1,1.8-.8,5.6,5.6,0,0,1,1.683.229s.115.038.191-.115c.153-.382.229-.688.382-1.109a.153.153,0,0,0-.115-.191,4.811,4.811,0,0,0-1.071-.268,11.012,11.012,0,0,0-1.224-.076,4.432,4.432,0,0,0-1.8.344,3.681,3.681,0,0,0-2.065,2.371,5.073,5.073,0,0,0-.268,1.721,4.6,4.6,0,0,0,1.071,3.212,4.07,4.07,0,0,0,3.174,1.185,5.991,5.991,0,0,0,2.294-.421s.115-.038.076-.191l-.382-1.071Z" transform="translate(-112.529 -42.677)" fill="#fff"/>
  <path id="Path_15159" data-name="Path 15159" d="M202.874,72.718a3.072,3.072,0,0,1,.459-1.3,1.789,1.789,0,0,1,1.568-.8,1.647,1.647,0,0,1,1.53.8,2.726,2.726,0,0,1,.344,1.3Zm5.43-1.147a3.526,3.526,0,0,0-.688-1.262,3.162,3.162,0,0,0-1.032-.8,4.092,4.092,0,0,0-1.568-.306,4.306,4.306,0,0,0-1.8.344,3.938,3.938,0,0,0-1.262.956,3.558,3.558,0,0,0-.727,1.415A6.239,6.239,0,0,0,201,73.636a6.045,6.045,0,0,0,.229,1.721,3.127,3.127,0,0,0,.8,1.377,3.624,3.624,0,0,0,1.377.918,5.179,5.179,0,0,0,1.988.306,5.717,5.717,0,0,0,2.753-.535c.076-.038.115-.076.038-.268l-.344-.994c-.038-.153-.191-.076-.191-.076a5.059,5.059,0,0,1-2.218.421,2.694,2.694,0,0,1-1.874-.65,2.492,2.492,0,0,1-.65-1.8h5.43a.15.15,0,0,0,.153-.153,7.517,7.517,0,0,0-.191-2.333Z" transform="translate(-124.14 -42.739)" fill="#fff"/>
  <path id="Path_15160" data-name="Path 15160" d="M88.774,72.718a3.072,3.072,0,0,1,.459-1.3,1.789,1.789,0,0,1,1.568-.8,1.647,1.647,0,0,1,1.53.8,2.726,2.726,0,0,1,.344,1.3Zm5.43-1.147a3.526,3.526,0,0,0-.688-1.262,3.163,3.163,0,0,0-1.032-.8,4.092,4.092,0,0,0-1.568-.306,4.306,4.306,0,0,0-1.8.344,3.938,3.938,0,0,0-1.262.956,3.557,3.557,0,0,0-.727,1.415,6.238,6.238,0,0,0-.229,1.721,6.044,6.044,0,0,0,.229,1.721,3.127,3.127,0,0,0,.8,1.377,3.624,3.624,0,0,0,1.377.918,5.179,5.179,0,0,0,1.988.306,5.717,5.717,0,0,0,2.753-.535c.076-.038.115-.076.038-.268l-.344-.994c-.038-.153-.191-.076-.191-.076a5.059,5.059,0,0,1-2.218.421,2.7,2.7,0,0,1-1.874-.65,2.492,2.492,0,0,1-.65-1.8h5.43a.15.15,0,0,0,.153-.153,7.516,7.516,0,0,0-.191-2.333Z" transform="translate(-53.671 -42.739)" fill="#fff"/>
  <path id="Path_15161" data-name="Path 15161" d="M57.356,76.212a1.074,1.074,0,0,1-.306-.306,1.285,1.285,0,0,1-.153-.727,1.169,1.169,0,0,1,.5-1.071,2.273,2.273,0,0,1,1.568-.382,10.87,10.87,0,0,1,1.491.115v2.486h0A9.824,9.824,0,0,1,59,76.518a2.543,2.543,0,0,1-1.644-.306m2.18-3.824c-.229,0-.5-.038-.841-.038a5.143,5.143,0,0,0-1.338.191,3.944,3.944,0,0,0-1.147.535,2.52,2.52,0,0,0-.8.879,2.92,2.92,0,0,0-.038,2.524,2.195,2.195,0,0,0,.727.841,3.271,3.271,0,0,0,1.109.5,5.652,5.652,0,0,0,1.453.153,7.74,7.74,0,0,0,1.644-.153c.535-.076,1.185-.229,1.377-.268a2.519,2.519,0,0,0,.382-.115.154.154,0,0,0,.115-.191V72.274a3.036,3.036,0,0,0-.879-2.409,3.714,3.714,0,0,0-2.486-.765,6.047,6.047,0,0,0-1.453.153,5.325,5.325,0,0,0-1.683.612.171.171,0,0,0-.038.229l.382,1.032c.038.153.191.076.191.076a.118.118,0,0,0,.076-.038,5.284,5.284,0,0,1,2.371-.535,2.233,2.233,0,0,1,1.338.344c.306.229.459.574.459,1.3V72.5c-.5-.076-.918-.115-.918-.115" transform="translate(-34.03 -42.677)" fill="#fff"/>
  <path id="Path_15162" data-name="Path 15162" d="M173.448,69.832a.139.139,0,0,0-.077-.191,3.4,3.4,0,0,0-.918-.153,2.783,2.783,0,0,0-1.415.229,2.087,2.087,0,0,0-.918.688v-.65a.165.165,0,0,0-.153-.153h-1.415a.164.164,0,0,0-.153.153v8.107a.164.164,0,0,0,.153.153h1.415a.165.165,0,0,0,.153-.153V73.771a4.865,4.865,0,0,1,.191-1.415,2.019,2.019,0,0,1,.459-.8,1.6,1.6,0,0,1,.688-.421,2.825,2.825,0,0,1,.727-.115,3.426,3.426,0,0,1,.612.076c.115,0,.153-.038.191-.153.115-.229.382-.956.459-1.109" transform="translate(-104.006 -42.912)" fill="#fff"/>
  <path id="Path_15163" data-name="Path 15163" d="M131.283,60.253c-.191-.038-.344-.076-.535-.115a4.164,4.164,0,0,0-.727-.038,2.975,2.975,0,0,0-2.294.841,4.56,4.56,0,0,0-1.109,2.486l-.076.382h-1.224a.2.2,0,0,0-.191.153l-.191,1.147c0,.115.038.191.191.191h1.185l-1.224,6.806a5.212,5.212,0,0,1-.344,1.338,2.369,2.369,0,0,1-.382.765.979.979,0,0,1-.5.382,1.789,1.789,0,0,1-.65.076c-.115,0-.306-.038-.421-.038-.115-.038-.191-.038-.306-.076,0,0-.153-.038-.191.076s-.382.994-.421,1.109a.17.17,0,0,0,.076.229c.153.038.268.076.5.153a3.143,3.143,0,0,0,.8.076,4.7,4.7,0,0,0,1.338-.191,2.587,2.587,0,0,0,.994-.688,3.19,3.19,0,0,0,.688-1.224,12.374,12.374,0,0,0,.5-1.835l1.224-6.959h1.8a.2.2,0,0,0,.191-.153L130.174,64c0-.115-.038-.191-.191-.191h-1.759a5.072,5.072,0,0,1,.306-1.224,1.265,1.265,0,0,1,.382-.574.962.962,0,0,1,.459-.268,2.952,2.952,0,0,1,.574-.076,1.714,1.714,0,0,1,.459.038c.153.038.229.038.268.076.191.038.191,0,.229-.076l.421-1.147a.284.284,0,0,0-.038-.306" transform="translate(-75.263 -37.119)" fill="#fff"/>
  <path id="Path_15164" data-name="Path 15164" d="M79.959,72.278a.165.165,0,0,1-.153.153H78.353a.164.164,0,0,1-.153-.153V60.653a.164.164,0,0,1,.153-.153h1.453a.164.164,0,0,1,.153.153V72.278Z" transform="translate(-48.297 -37.366)" fill="#fff"/>
</svg>
