<svg id="Layer_2" data-name="Layer 2" xmlns="http://www.w3.org/2000/svg" width="95.029" height="85.408" viewBox="0 0 95.029 85.408">
  <g id="Layer_1" data-name="Layer 1" transform="translate(0 0)">
    <g id="STYLE_COLOR" data-name="STYLE COLOR" transform="translate(15.892)">
      <ellipse id="Ellipse_482" data-name="Ellipse 482" cx="18.789" cy="18.789" rx="18.789" ry="18.789" transform="translate(10.858)" fill="#036c70"/>
      <ellipse id="Ellipse_483" data-name="Ellipse 483" cx="16.067" cy="16.067" rx="16.067" ry="16.067" transform="translate(31.11 19.257)" fill="#1a9ba1"/>
      <ellipse id="Ellipse_484" data-name="Ellipse 484" cx="12.848" cy="12.848" rx="12.848" ry="12.848" transform="translate(18.789 37.549)" fill="#37c6d0"/>
      <path id="Path_64192" data-name="Path 64192" d="M31.224,4.73H9.8A18.789,18.789,0,0,0,27.917,28.436a13.111,13.111,0,0,0,1.61,0h0a12.848,12.848,0,0,0-12.5,12.848v1H31.2a2.634,2.634,0,0,0,2.634-2.634V7.452a2.634,2.634,0,0,0-2.6-2.722Z" transform="translate(1.73 9.113)" opacity="0.1" style="isolation: isolate"/>
      <path id="Path_64193" data-name="Path 64193" d="M29.2,5.4H9.384A18.789,18.789,0,0,0,27.91,27.145a13.111,13.111,0,0,0,1.61,0h0A12.848,12.848,0,0,0,17.491,42.978H29.2a2.634,2.634,0,0,0,2.634-2.634V8.034A2.634,2.634,0,0,0,29.2,5.4Z" transform="translate(1.737 10.404)" opacity="0.2" style="isolation: isolate"/>
      <path id="Path_64194" data-name="Path 64194" d="M29.2,5.4H9.384A18.789,18.789,0,0,0,27.91,27.145a13.111,13.111,0,0,0,1.61,0h0A12.848,12.848,0,0,0,17.052,39H29.2a2.634,2.634,0,0,0,2.634-2.634V8.034A2.634,2.634,0,0,0,29.2,5.4Z" transform="translate(1.737 10.404)" opacity="0.2" style="isolation: isolate"/>
      <path id="Path_64195" data-name="Path 64195" d="M27.266,5.4H9.384A18.789,18.789,0,0,0,27.91,27.145a13.112,13.112,0,0,0,1.61,0h0A12.848,12.848,0,0,0,17.052,39H27.237a2.634,2.634,0,0,0,2.634-2.634V8.034a2.634,2.634,0,0,0-2.6-2.634Z" transform="translate(1.737 10.404)" opacity="0.2" style="isolation: isolate"/>
      <path id="Back_Plate" data-name="Back Plate" d="M8.064,5.4H34.4a2.634,2.634,0,0,1,2.634,2.634v26.34A2.634,2.634,0,0,1,34.4,37.008H8.064A2.634,2.634,0,0,1,5.43,34.374V8.034A2.634,2.634,0,0,1,8.064,5.4Z" transform="translate(-5.43 10.404)" fill="#03787c"/>
      <path id="Path_64196" data-name="Path 64196" d="M10.688,16.909a5.268,5.268,0,0,1-1.61-1.727,4.653,4.653,0,0,1-.556-2.371A4.536,4.536,0,0,1,9.575,9.885,6.2,6.2,0,0,1,12.5,8.042a11.853,11.853,0,0,1,3.834-.585,14.633,14.633,0,0,1,5.034.7v3.483a7.9,7.9,0,0,0-2.283-.937,11.063,11.063,0,0,0-2.634-.322,5.853,5.853,0,0,0-2.751.585,1.815,1.815,0,0,0-1.083,1.639,1.668,1.668,0,0,0,.468,1.171,4.185,4.185,0,0,0,1.229.878l2.341,1.024h.322a19.17,19.17,0,0,1,2.927,1.463,5.268,5.268,0,0,1,1.727,1.727,5.063,5.063,0,0,1,.644,2.634,4.888,4.888,0,0,1-1,3.19,5.5,5.5,0,0,1-2.634,1.785,11.941,11.941,0,0,1-3.746.527,19.755,19.755,0,0,1-3.395-.263,11.707,11.707,0,0,1-2.78-.79V22.324a8.78,8.78,0,0,0,2.927,1.317,10.887,10.887,0,0,0,3.073.5,5.268,5.268,0,0,0,2.927-.585,1.873,1.873,0,0,0,.937-1.668,1.785,1.785,0,0,0-.527-1.317A5.356,5.356,0,0,0,16.6,19.543q-.937-.468-2.751-1.229A15.541,15.541,0,0,1,10.688,16.909Z" transform="translate(0.522 14.347)" fill="#fff"/>
    </g>
    <path id="Path_64197" data-name="Path 64197" d="M0,37.829V35.458a3.659,3.659,0,0,0,.761.527,5.853,5.853,0,0,0,.937.38l1,.234H3.6a3.892,3.892,0,0,0,2.254-.38,1.61,1.61,0,0,0,.7-1.4,1.522,1.522,0,0,0-.234-.849,2.488,2.488,0,0,0-.673-.673,6.994,6.994,0,0,0-1-.585l-1.317-.439L2.02,31.507a5.648,5.648,0,0,1-1.054-.849,3.6,3.6,0,0,1-.7-1.317A3.453,3.453,0,0,1,0,28.083a3.19,3.19,0,0,1,.439-1.668,3.717,3.717,0,0,1,1.2-1.2,5.327,5.327,0,0,1,1.639-.7,7.814,7.814,0,0,1,1.873-.234,7.639,7.639,0,0,1,3.19.5v2.283a5.092,5.092,0,0,0-2.927-.849,5.444,5.444,0,0,0-1.024,0,2.927,2.927,0,0,0-.937.293,1.961,1.961,0,0,0-.644.556,1.4,1.4,0,0,0-.263.849,1.61,1.61,0,0,0,.2.819,2.078,2.078,0,0,0,.556.615,5.854,5.854,0,0,0,.907.556l1.258.585a7.346,7.346,0,0,1,1.376.79,6.5,6.5,0,0,1,1.141.937,4.068,4.068,0,0,1,.761,1.112,3.571,3.571,0,0,1-1.288,4.361,5.092,5.092,0,0,1-1.7.673,9.424,9.424,0,0,1-1.99.2H2.927l-1.171-.176L.79,38.122A3.189,3.189,0,0,1,0,37.829Z" transform="translate(0 46.751)" fill="#04777e"/>
    <path id="Path_64198" data-name="Path 64198" d="M12.618,38.723H10.335V33.28q0-2.927-1.961-2.927a2.049,2.049,0,0,0-1.7.849A3.4,3.4,0,0,0,6,33.4v5.327H3.75V24.09H6.033V30.5h0a3.541,3.541,0,0,1,3.249-1.873q3.307,0,3.307,4.039Z" transform="translate(7.225 46.413)" fill="#04777e"/>
    <path id="Path_64199" data-name="Path 64199" d="M15.7,35.8H13.538V34.249h0a3.278,3.278,0,0,1-2.927,1.785,3.161,3.161,0,0,1-2.283-.79,2.927,2.927,0,0,1-.849-2.107q0-2.927,3.249-3.278l2.927-.41a1.815,1.815,0,0,0-2.049-2.078A4.8,4.8,0,0,0,8.417,28.6V26.581a6.966,6.966,0,0,1,3.512-.937A3.307,3.307,0,0,1,15.7,29.332Zm-2.166-4.888-2.078.293A3.307,3.307,0,0,0,10,31.673a1.376,1.376,0,0,0-.5,1.2A1.317,1.317,0,0,0,9.939,33.9a1.756,1.756,0,0,0,1.2.41,2.224,2.224,0,0,0,1.7-.732,2.546,2.546,0,0,0,.673-1.815Z" transform="translate(14.412 49.336)" fill="#04777e"/>
    <path id="Path_64200" data-name="Path 64200" d="M16.936,27.955a1.873,1.873,0,0,0-1.171-.322,2.019,2.019,0,0,0-1.7.907A4.039,4.039,0,0,0,13.394,31V35.74H11.17V25.818h2.254v2.049h0a3.453,3.453,0,0,1,1.024-1.639,2.283,2.283,0,0,1,1.522-.585,1.9,1.9,0,0,1,.937.176Z" transform="translate(21.521 49.396)" fill="#04777e"/>
    <path id="Path_64201" data-name="Path 64201" d="M22.52,31.4H15.73a2.927,2.927,0,0,0,.849,2.136A3.161,3.161,0,0,0,18.8,34.3a4.917,4.917,0,0,0,2.927-.937v1.815a6.673,6.673,0,0,1-3.6.849,4.449,4.449,0,0,1-3.395-1.346,5.414,5.414,0,0,1-1.258-3.8A5.3,5.3,0,0,1,14.852,27.1a4.478,4.478,0,0,1,3.395-1.463,3.922,3.922,0,0,1,3.161,1.317A5.444,5.444,0,0,1,22.52,30.58Zm-2.166-1.58a2.927,2.927,0,0,0-.556-1.873,1.9,1.9,0,0,0-1.551-.673,2.2,2.2,0,0,0-1.639.7,3.249,3.249,0,0,0-.849,1.844Z" transform="translate(25.946 49.376)" fill="#04777e"/>
    <path id="Path_64202" data-name="Path 64202" d="M19.662,33.186V38.22H17.35V24.347h4.244a5.59,5.59,0,0,1,3.717,1.112,3.892,3.892,0,0,1,1.317,3.132,4.361,4.361,0,0,1-1.522,3.336,5.239,5.239,0,0,1-3.746,1.288Zm0-6.965v5.092h1.493a3.307,3.307,0,0,0,2.254-.673,2.458,2.458,0,0,0,.761-1.932q0-2.458-2.927-2.458Z" transform="translate(33.428 46.887)" fill="#04777e"/>
    <path id="Path_64203" data-name="Path 64203" d="M25.975,36.024a4.917,4.917,0,0,1-3.658-1.4,5.034,5.034,0,0,1-1.434-3.688,4.888,4.888,0,0,1,5.327-5.3,4.77,4.77,0,0,1,3.629,1.376,5.268,5.268,0,0,1,1.288,3.8,5.209,5.209,0,0,1-1.4,3.8,5.034,5.034,0,0,1-3.746,1.4Zm0-8.6a2.546,2.546,0,0,0-2.078.937,3.863,3.863,0,0,0-.761,2.546,3.629,3.629,0,0,0,.761,2.458,2.6,2.6,0,0,0,2.078.907,2.458,2.458,0,0,0,2.049-.849,3.892,3.892,0,0,0,.7-2.546,3.951,3.951,0,0,0-.7-2.546,2.458,2.458,0,0,0-2.049-.878Z" transform="translate(40.197 49.347)" fill="#04777e"/>
    <path id="Path_64204" data-name="Path 64204" d="M26.348,26.677a1.346,1.346,0,0,1-.937-.351,1.171,1.171,0,0,1-.38-.907,1.2,1.2,0,0,1,.38-.937,1.346,1.346,0,0,1,.937-.351,1.375,1.375,0,0,1,.966.351,1.242,1.242,0,0,1,0,1.844,1.346,1.346,0,0,1-.966.351Zm1.112,12H25.207V28.725H27.46Z" transform="translate(48.224 46.49)" fill="#04777e"/>
    <path id="Path_64205" data-name="Path 64205" d="M35.706,35.78H33.335V30.19q0-2.927-1.961-2.927a2.136,2.136,0,0,0-1.7.761A2.927,2.927,0,0,0,29,29.956V35.6H26.75V25.859H29V27.5h0a3.541,3.541,0,0,1,3.249-1.873,2.927,2.927,0,0,1,2.458,1.054,4.741,4.741,0,0,1,.849,2.927Z" transform="translate(51.539 49.356)" fill="#04777e"/>
    <path id="Path_64206" data-name="Path 64206" d="M36.632,37.45a3.893,3.893,0,0,1-1.7.322q-2.927,0-2.927-2.78V29.4h-1.7V27.646h1.7V25.334l2.254-.644v2.927H36.6v1.756H34.232v5a1.961,1.961,0,0,0,.322,1.258,1.317,1.317,0,0,0,1.083.38,1.551,1.551,0,0,0,1-.322Z" transform="translate(58.398 47.569)" fill="#04777e"/>
  </g>
</svg>
