<svg xmlns="http://www.w3.org/2000/svg" width="73.156" height="93.997" viewBox="0 0 73.156 93.997">
<g id="Group_649" data-name="Group 649" transform="translate(-150.98 -1536.9)">
<path id="Path_1953" data-name="Path 1953" d="M187.75,1536.9a25.876,25.876,0,0,0-25.846,25.847v5.994a3.5,3.5,0,0,0,3.5,3.5h44.64a3.5,3.5,0,0,0,3.5-3.47l.053-6A25.847,25.847,0,0,0,187.75,1536.9Zm18.825,28.341H168.9v-2.494a18.846,18.846,0,0,1,37.693-.01Z" fill="#0092ff"/>
<path id="Path_1954" data-name="Path 1954" d="M210.1,1576.275H165.4a3.5,3.5,0,0,0-3.5,3.5v30.032a3.5,3.5,0,0,0,3.5,3.5h5.911v14.09a3.5,3.5,0,0,0,7,0v-14.09H196.8v14.09a3.5,3.5,0,0,0,7,0v-14.09h5.416a3.5,3.5,0,1,0,0-7H168.9v-23.032H206.6v17.743a3.5,3.5,0,0,0,7,0v-21.243A3.5,3.5,0,0,0,210.1,1576.275Z" fill="#0092ff"/>
<path id="Path_1955" data-name="Path 1955" d="M220.637,1575.515a3.5,3.5,0,0,0-3.5,3.5v20.7a3.5,3.5,0,0,0,7,0v-20.7A3.5,3.5,0,0,0,220.637,1575.515Z" fill="#0092ff"/>
<path id="Path_1956" data-name="Path 1956" d="M154.48,1575.515a3.5,3.5,0,0,0-3.5,3.5v20.7a3.5,3.5,0,0,0,7,0v-20.7A3.5,3.5,0,0,0,154.48,1575.515Z" fill="#0092ff"/>
<path id="Path_1957" data-name="Path 1957" d="M194.99,1556.37a3.529,3.529,0,0,0-1.03,2.48,4.036,4.036,0,0,0,.07.68,3.756,3.756,0,0,0,.2.65,3.96,3.96,0,0,0,.32.61,3.771,3.771,0,0,0,.97.97,4.3,4.3,0,0,0,.6.32,5.707,5.707,0,0,0,.66.2,4.136,4.136,0,0,0,.68.07,3.562,3.562,0,0,0,2.48-1.031,3.108,3.108,0,0,0,.43-.529,2.751,2.751,0,0,0,.32-.61,3.05,3.05,0,0,0,.2-.65,3.213,3.213,0,0,0,.07-.68,3.52,3.52,0,0,0-1.02-2.48A3.627,3.627,0,0,0,194.99,1556.37Z" fill="#0092ff"/>
<path id="Path_1958" data-name="Path 1958" d="M180.07,1555.939a3.651,3.651,0,0,0-.6-.33,4.722,4.722,0,0,0-.66-.2,3.469,3.469,0,0,0-1.37,0,5.022,5.022,0,0,0-.65.2,3.284,3.284,0,0,0-.6.33,2.884,2.884,0,0,0-.54.431,3.52,3.52,0,0,0-1.02,2.48,3.213,3.213,0,0,0,.07.68,3.051,3.051,0,0,0,.2.65,2.751,2.751,0,0,0,.32.61,3.677,3.677,0,0,0,.43.529,3.562,3.562,0,0,0,2.48,1.031,3.52,3.52,0,0,0,2.47-1.031,3.741,3.741,0,0,0,.44-.529,3.959,3.959,0,0,0,.32-.61,3.05,3.05,0,0,0,.2-.65,3.213,3.213,0,0,0,.07-.68,3.487,3.487,0,0,0-1.03-2.48A3.176,3.176,0,0,0,180.07,1555.939Z" fill="#0092ff"/>
</g>
</svg>