<svg xmlns="http://www.w3.org/2000/svg" width="69.501" height="85" viewBox="0 0 69.501 85">
  <g id="Group_4409" data-name="Group 4409" transform="translate(-179.16 -2343.86)">
    <path id="Path_6340" data-name="Path 6340" d="M149.207,99.58h13.634v12.357a1.866,1.866,0,0,0,1.865,1.865h48.272a1.866,1.866,0,0,0,1.865-1.865V46.889a1.866,1.866,0,0,0-1.865-1.865H199.334V32.667a1.866,1.866,0,0,0-1.865-1.865H149.207a1.866,1.866,0,0,0-1.865,1.865V97.715a1.865,1.865,0,0,0,1.865,1.865Zm61.906-50.826v61.318H166.571V99.58h30.9a1.866,1.866,0,0,0,1.865-1.865V48.754ZM151.072,34.532H195.6V95.85H151.072Z" transform="translate(32.818 2314.058)" fill="#0092ff" stroke="#0092ff" stroke-width="2"/>
    <path id="Path_6341" data-name="Path 6341" d="M200.646,112.281h14.339a1.866,1.866,0,0,0,1.865-1.865V92.347a1.866,1.866,0,0,0-1.865-1.865H200.646a1.866,1.866,0,0,0-1.865,1.865v18.069a1.865,1.865,0,0,0,1.865,1.866Zm1.865-18.069h10.608v14.339H202.511Z" transform="translate(-10.055 2264.317)" fill="#0092ff"/>
    <path id="Path_6342" data-name="Path 6342" d="M334.346,94.212h8.859a1.865,1.865,0,1,0,0-3.73h-8.859a1.865,1.865,0,0,0,0,3.73Z" transform="translate(-121.489 2264.317)" fill="#0092ff"/>
    <path id="Path_6343" data-name="Path 6343" d="M334.346,148.452h8.859a1.865,1.865,0,0,0,0-3.73h-8.859a1.865,1.865,0,0,0,0,3.73Z" transform="translate(-121.489 2219.11)" fill="#0092ff"/>
    <path id="Path_6344" data-name="Path 6344" d="M334.346,202.712h8.859a1.865,1.865,0,1,0,0-3.73h-8.859a1.865,1.865,0,0,0,0,3.73Z" transform="translate(-121.489 2173.886)" fill="#0092ff"/>
    <path id="Path_6345" data-name="Path 6345" d="M200.646,256.952h31.125a1.865,1.865,0,1,0,0-3.73H200.646a1.865,1.865,0,0,0,0,3.73Z" transform="translate(-10.055 2128.679)" fill="#0092ff"/>
    <path id="Path_6346" data-name="Path 6346" d="M200.646,311.209h31.125a1.865,1.865,0,1,0,0-3.73H200.646a1.865,1.865,0,0,0,0,3.731Z" transform="translate(-10.055 2083.458)" fill="#0092ff"/>
    <path id="Path_6347" data-name="Path 6347" d="M233.637,363.6a1.866,1.866,0,0,0-1.865-1.865H200.647a1.865,1.865,0,0,0,0,3.73h31.125A1.865,1.865,0,0,0,233.637,363.6Z" transform="translate(-10.055 2038.24)" fill="#0092ff"/>
  </g>
</svg>
