<svg xmlns="http://www.w3.org/2000/svg" width="91" height="83" viewBox="0 0 91 83">
  <g id="Group_396" data-name="Group 396" transform="translate(-2629 -458)">
    <g id="Group_390" data-name="Group 390">
      <path id="Path_1381" data-name="Path 1381" d="M2648,524.615a3.5,3.5,0,0,1-3.5-3.5V494.65a3.5,3.5,0,0,1,7,0v26.465A3.5,3.5,0,0,1,2648,524.615Z" fill="#0092ff"/>
    </g>
    <g id="Group_391" data-name="Group 391">
      <path id="Path_1382" data-name="Path 1382" d="M2648,488.47a3.843,3.843,0,0,1-.681-.07,3.624,3.624,0,0,1-.659-.2,4.3,4.3,0,0,1-.6-.32,3.7,3.7,0,0,1-.53-.44,3.116,3.116,0,0,1-.44-.53,3.373,3.373,0,0,1-.32-.6,3.306,3.306,0,0,1-.2-.66,3.134,3.134,0,0,1-.069-.68,3.292,3.292,0,0,1,.069-.69,3.034,3.034,0,0,1,.2-.65,3.461,3.461,0,0,1,.32-.61,3.116,3.116,0,0,1,.44-.53,3.078,3.078,0,0,1,.53-.43,3.5,3.5,0,0,1,.6-.33,4.632,4.632,0,0,1,.659-.2,3.463,3.463,0,0,1,1.361,0,4.607,4.607,0,0,1,.66.2,3.458,3.458,0,0,1,.6.33,3.085,3.085,0,0,1,.531.43,3.174,3.174,0,0,1,.44.53,3.472,3.472,0,0,1,.319.61,3.048,3.048,0,0,1,.2.65,3.293,3.293,0,0,1,.07.69,3.135,3.135,0,0,1-.07.68,3.322,3.322,0,0,1-.2.66,3.385,3.385,0,0,1-.319.6,3.174,3.174,0,0,1-.44.53,3.7,3.7,0,0,1-.531.44,4.237,4.237,0,0,1-.6.32,3.611,3.611,0,0,1-.66.2A3.832,3.832,0,0,1,2648,488.47Z" fill="#0092ff"/>
    </g>
    <g id="Group_392" data-name="Group 392">
      <path id="Path_1383" data-name="Path 1383" d="M2668.346,524.615h-.924a11.873,11.873,0,0,1-11.859-11.86V487.021a11.873,11.873,0,0,1,11.859-11.86h.924a11.873,11.873,0,0,1,11.859,11.86v25.734A11.873,11.873,0,0,1,2668.346,524.615Zm-.924-42.454a4.864,4.864,0,0,0-4.859,4.86v25.734a4.864,4.864,0,0,0,4.859,4.86h.924a4.865,4.865,0,0,0,4.859-4.86V487.021a4.865,4.865,0,0,0-4.859-4.86Z" fill="#0092ff"/>
    </g>
    <g id="Group_393" data-name="Group 393">
      <path id="Path_1384" data-name="Path 1384" d="M2696.337,524.063h-8.569a3.5,3.5,0,0,1,0-7h8.569a1.131,1.131,0,0,0,1.163-1.095V504.91a1.132,1.132,0,0,0-1.163-1.1h-3.905a8.138,8.138,0,0,1-8.164-8.1V483.6a8.139,8.139,0,0,1,8.164-8.1H2701a3.5,3.5,0,0,1,0,7h-8.568a1.133,1.133,0,0,0-1.164,1.1v12.123a1.132,1.132,0,0,0,1.164,1.1h3.905a8.139,8.139,0,0,1,8.163,8.1v11.058A8.138,8.138,0,0,1,2696.337,524.063Z" fill="#0092ff"/>
    </g>
    <g id="Group_394" data-name="Group 394">
      <path id="Path_1385" data-name="Path 1385" d="M2708.18,541h-67.36A11.833,11.833,0,0,1,2629,529.18V469.82A11.833,11.833,0,0,1,2640.82,458h67.36A11.833,11.833,0,0,1,2720,469.82v59.36A11.833,11.833,0,0,1,2708.18,541Zm-67.36-76a4.825,4.825,0,0,0-4.82,4.82v59.36a4.825,4.825,0,0,0,4.82,4.82h67.36a4.825,4.825,0,0,0,4.82-4.82V469.82a4.825,4.825,0,0,0-4.82-4.82Z" fill="#0092ff"/>
    </g>
    <g id="Group_395" data-name="Group 395">
      <path id="Path_1386" data-name="Path 1386" d="M2701.5,478.5" fill="none" stroke="#0092ff" stroke-linecap="round" stroke-linejoin="round" stroke-width="7"/>
    </g>
  </g>
</svg>
