<svg xmlns="http://www.w3.org/2000/svg" width="80.493" height="72.007" viewBox="0 0 80.493 72.007">
  <g id="react_native" data-name="react native" transform="translate(-434.871 -115.743)">
    <path id="Path_1961" data-name="Path 1961" d="M470.811,141.736a6.241,6.241,0,1,1-6.24,6.24,6.24,6.24,0,0,1,6.24-6.24" transform="translate(4.306 3.769)" fill="#0092ff"/>
    <path id="Path_1962" data-name="Path 1962" d="M515.364,151.751c0-6.309-6.836-10.958-16.35-13.763.309-1.26.561-2.5.756-3.687,1.443-8.7-.172-14.885-4.534-17.4-5.473-3.16-12.927.458-20.118,7.305-7.191-6.847-14.656-10.465-20.129-7.305-4.362,2.519-5.965,8.7-4.534,17.4.206,1.191.458,2.427.767,3.687-9.515,2.805-16.351,7.454-16.351,13.763s6.836,10.958,16.351,13.763c-.309,1.26-.561,2.5-.767,3.7-1.431,8.7.172,14.884,4.534,17.4a8.759,8.759,0,0,0,4.42,1.134c3.721,0,8.164-2,12.927-5.908q1.391-1.151,2.782-2.473,1.391,1.322,2.782,2.473c4.763,3.9,9.194,5.908,12.927,5.908a8.717,8.717,0,0,0,4.408-1.134c4.362-2.52,5.977-8.7,4.534-17.4-.195-1.2-.447-2.427-.756-3.687C508.529,162.708,515.364,158.071,515.364,151.751Zm-25.591,8.473c.343-.6.676-1.179,1-1.775.4,1.019.767,2.015,1.111,3-1.008.206-2.061.378-3.149.538C489.087,161.4,489.43,160.819,489.774,160.224Zm1-15.16c-.321-.6-.653-1.191-1-1.775s-.687-1.179-1.042-1.763c1.088.16,2.13.344,3.137.538C491.537,143.049,491.17,144.045,490.77,145.064Zm-.046-23.6a3.225,3.225,0,0,1,1.649.389c2.061,1.191,2.725,5.6,1.752,11.519-.172,1.053-.389,2.13-.664,3.24a84.969,84.969,0,0,0-8.839-1.317,84.931,84.931,0,0,0-5.588-7.019C483.82,123.733,488.033,121.466,490.724,121.466Zm-15.606,10.923q1.031,1.168,2.061,2.473-1.031-.034-2.061-.034t-2.061.034Q474.087,133.557,475.118,132.389Zm-17.266-10.534a3.3,3.3,0,0,1,1.66-.389c2.565,0,6.515,2.061,11.015,6.183.229.206.447.412.676.63a85,85,0,0,0-5.6,7.019,84.744,84.744,0,0,0-8.828,1.317c-.275-1.111-.492-2.187-.664-3.24C455.126,127.454,455.8,123.046,457.851,121.855Zm1.534,36.754c.023-.057.046-.1.069-.16.321.6.653,1.179,1,1.775s.687,1.179,1.053,1.763c-1.088-.16-2.141-.332-3.149-.538C458.676,160.522,459.019,159.571,459.385,158.609Zm-1.019-16.545c1.008-.195,2.05-.378,3.126-.538-.355.584-.7,1.168-1.042,1.763s-.676,1.179-1,1.775C459.053,144.045,458.687,143.049,458.366,142.064Zm-5.588,18.022c-7.809-2.313-12.183-5.633-12.183-8.336s4.374-6.011,12.183-8.324a82.661,82.661,0,0,0,3.309,8.324A83.92,83.92,0,0,0,452.779,160.086Zm15.915,17.324c-4.626,3.8-8.782,5.427-10.843,4.248s-2.725-5.6-1.74-11.519c.172-1.053.389-2.141.664-3.252a84.272,84.272,0,0,0,8.8,1.328,86.968,86.968,0,0,0,5.565,7.03C470.332,176.013,469.507,176.746,468.694,177.41Zm.08-14.644c-1.168-1.729-2.29-3.538-3.366-5.4s-2.084-3.733-2.988-5.6c.9-1.866,1.912-3.744,2.988-5.61,1.111-1.912,2.233-3.721,3.355-5.4,2.027-.126,4.145-.195,6.355-.195s4.328.069,6.355.195c1.122,1.683,2.244,3.492,3.343,5.4,1.076,1.866,2.084,3.744,2.988,5.61-.9,1.866-1.912,3.733-2.988,5.6s-2.2,3.675-3.355,5.4c-2.015.126-4.133.195-6.343.195S470.79,162.892,468.774,162.766Zm4.294,5.9c.687.011,1.363.023,2.049.023s1.363-.011,2.05-.023c-.687.847-1.374,1.66-2.05,2.439C474.431,170.323,473.755,169.51,473.068,168.662Zm19.3,13c-2.05,1.179-6.206-.448-10.832-4.248-.813-.664-1.637-1.4-2.45-2.164a86.968,86.968,0,0,0,5.565-7.03,84.272,84.272,0,0,0,8.8-1.328c.275,1.111.492,2.2.664,3.252C495.1,176.059,494.434,180.467,492.373,181.658Zm5.072-21.572a83.763,83.763,0,0,0-3.3-8.336,82.51,82.51,0,0,0,3.3-8.324c7.82,2.313,12.194,5.622,12.194,8.324S505.265,157.774,497.445,160.086Z" transform="translate(0 0)" fill="#0092ff"/>
  </g>
</svg>
