<svg id="Brand_visibility" data-name="Brand visibility" xmlns="http://www.w3.org/2000/svg" width="33.64" height="47.8" viewBox="0 0 33.64 47.8">
  <g id="Problem">
    <path id="Path_1819" data-name="Path 1819" d="M963.9,1239.424a1.691,1.691,0,0,0-.026-.252c0-.018,0-.036-.008-.054a1.657,1.657,0,0,0-.086-.276c-.012-.029-.026-.056-.04-.084a1.65,1.65,0,0,0-.1-.181c-.018-.028-.036-.056-.056-.083a1.69,1.69,0,0,0-.137-.165c-.019-.02-.036-.041-.056-.06s-.01-.012-.016-.018l-12.46-11.73a1.669,1.669,0,0,0-.209-.166c-.017-.012-.036-.021-.053-.032a1.63,1.63,0,0,0-.205-.11c-.028-.013-.057-.025-.086-.036a1.638,1.638,0,0,0-.222-.068c-.022-.005-.043-.012-.065-.017a1.755,1.755,0,0,0-.3-.03l-.02,0h-17.8a1.684,1.684,0,0,0-1.691,1.676v44.447a1.684,1.684,0,0,0,1.691,1.676h30.259a1.684,1.684,0,0,0,1.691-1.676v-32.717C963.9,1239.452,963.9,1239.438,963.9,1239.424Zm-12.456-7.784,6.533,6.151H951.44Zm-17.8,38.868v-41.094h14.417v10.054a1.684,1.684,0,0,0,1.691,1.676h10.77v29.365Z" transform="translate(-930.26 -1226.06)" fill="#fc7754"/>
    <path id="Path_1820" data-name="Path 1820" d="M944.291,1278.07a1.7,1.7,0,0,0,2.39-.06l1.534-1.6,1.535,1.6a1.7,1.7,0,0,0,2.39.06,1.666,1.666,0,0,0,.061-2.37l-1.653-1.725,1.653-1.725a1.666,1.666,0,0,0-.061-2.37,1.7,1.7,0,0,0-2.39.06l-1.535,1.6-1.534-1.6a1.7,1.7,0,0,0-2.39-.06,1.666,1.666,0,0,0-.061,2.37l1.653,1.725-1.653,1.725A1.666,1.666,0,0,0,944.291,1278.07Z" transform="translate(-937.241 -1248.652)" fill="#fc7754"/>
    <path id="Path_1821" data-name="Path 1821" d="M969.291,1278.07a1.7,1.7,0,0,0,2.39-.06l1.534-1.6,1.535,1.6a1.7,1.7,0,0,0,2.39.06,1.666,1.666,0,0,0,.061-2.37l-1.653-1.725,1.653-1.725a1.666,1.666,0,0,0-.061-2.37,1.7,1.7,0,0,0-2.39.06l-1.535,1.6-1.534-1.6a1.7,1.7,0,0,0-2.39-.06,1.666,1.666,0,0,0-.061,2.37l1.653,1.725-1.653,1.725A1.666,1.666,0,0,0,969.291,1278.07Z" transform="translate(-950.165 -1248.652)" fill="#fc7754"/>
    <path id="Path_1822" data-name="Path 1822" d="M954.485,1292.288c-8.526-.079-10.531,4.918-10.612,5.132a1.687,1.687,0,0,0,.977,2.177,1.717,1.717,0,0,0,.608.111,1.665,1.665,0,0,0,1.565-1.07c.055-.125,1.419-3.08,7.425-3,6.128.068,7.683,2.972,7.731,3.064a1.7,1.7,0,0,0,2.238.834,1.67,1.67,0,0,0,.841-2.219C965.166,1297.118,962.9,1292.381,954.485,1292.288Z" transform="translate(-937.24 -1260.567)" fill="#fc7754"/>
  </g>
</svg>
