<svg id="Brand_visibility" data-name="Brand visibility" xmlns="http://www.w3.org/2000/svg" width="40.407" height="41.811" viewBox="0 0 40.407 41.811">
  <path id="Path_1817" data-name="Path 1817" d="M798.147,1240.679c0-8.061-9.063-14.619-20.2-14.619s-20.2,6.558-20.2,14.619c0,6.039,5.087,11.234,12.323,13.461v12.411a1.335,1.335,0,0,0,.016.2c0,.018.007.035.011.052a1.329,1.329,0,0,0,.048.179c.006.018.011.036.018.053a1.3,1.3,0,0,0,.1.207s0,.01.007.014.014.016.019.025a1.306,1.306,0,0,0,.125.159c.011.012.021.025.032.036a1.3,1.3,0,0,0,.169.144l.052.034c.024.016.048.034.073.048s.053.025.079.038l.054.026a1.3,1.3,0,0,0,.209.069l.045.008a1.314,1.314,0,0,0,.18.023l.065,0a1.3,1.3,0,0,0,.216-.014l.043-.009a1.278,1.278,0,0,0,.183-.049l.06-.022a1.287,1.287,0,0,0,.2-.1l6.057-3.715,5.926,3.7.017.01h0c.015.01.032.017.048.025a1.206,1.206,0,0,0,.117.062,1.31,1.31,0,0,0,.531.113,1.327,1.327,0,0,0,.327-.041c.021-.006.041-.018.063-.025a1.333,1.333,0,0,0,.247-.1l0,0a1.3,1.3,0,0,0,.242-.176c.009-.008.018-.014.026-.023a1.305,1.305,0,0,0,.2-.242c0-.006.009-.009.012-.015s0-.008.005-.011a1.317,1.317,0,0,0,.1-.208c.007-.018.013-.037.019-.055a1.291,1.291,0,0,0,.047-.182c0-.016.008-.031.01-.048a1.276,1.276,0,0,0,.016-.194v-12.5C793.181,1251.784,798.147,1246.645,798.147,1240.679Zm-13.878,6.108a8.618,8.618,0,0,0-.612-12.3c7.2.976,11.855,3.7,11.855,6.194C795.511,1243.1,791.118,1245.744,784.269,1246.787Zm-23.893-6.108c0-2.493,4.65-5.214,11.837-6.192a8.617,8.617,0,0,0-.612,12.3C764.762,1245.739,760.376,1243.1,760.376,1240.679Zm17.56,6.25a5.993,5.993,0,1,1,5.988-5.993A6,6,0,0,1,777.936,1246.93Zm.008-18.232c6.271,0,11.782,2.254,14.891,5.635-3.636-1.779-8.876-2.86-14.891-2.86s-11.254,1.081-14.891,2.86C766.162,1230.952,771.672,1228.7,777.943,1228.7Zm5.506,35.475-4.612-2.884c-.03-.018-.061-.033-.091-.049l-.018-.011a1.316,1.316,0,0,0-1.4,0l-4.628,2.926V1254.8a27.577,27.577,0,0,0,10.75-.054Zm-5.506-11.511c-6.271,0-11.782-2.254-14.891-5.636,3.637,1.779,8.876,2.86,14.891,2.86s11.255-1.081,14.891-2.86C789.726,1250.407,784.215,1252.661,777.943,1252.661Z" transform="translate(-757.74 -1226.06)" fill="#0092ff"/>
  <path id="Path_1818" data-name="Path 1818" d="M804.759,1254.92a4,4,0,1,0,4,4A4,4,0,0,0,804.759,1254.92Zm0,5.365a1.364,1.364,0,1,1,1.363-1.364A1.365,1.365,0,0,1,804.759,1260.285Z" transform="translate(-784.563 -1244.045)" fill="#0092ff"/>
</svg>
