<svg id="Loyalty" xmlns="http://www.w3.org/2000/svg" width="37.706" height="36.619" viewBox="0 0 37.706 36.619">
  <path id="Path_1823" data-name="Path 1823" d="M1080.544,1291.235a2.1,2.1,0,0,1,.741-1.853c1.673-1.327,5.728-2.975,14.1.893a1.167,1.167,0,0,1,.689,1.375.481.481,0,0,1-.3.324c-.342.151-1.787.5-6-1.34q-.21-.091-.426-.19a1.467,1.467,0,0,0-1.946.74,1.483,1.483,0,0,0,.736,1.957c.157.071.311.14.462.206,3.9,1.709,6.556,2.133,8.356,1.333a3.418,3.418,0,0,0,1.894-2.074,4.1,4.1,0,0,0-2.245-5.021c-9.3-4.3-14.458-2.66-17.147-.528a5.018,5.018,0,0,0-1.846,4.483l.738,7.123-1.394.146a1.48,1.48,0,0,0,.151,2.951,1.461,1.461,0,0,0,.154-.008l2.858-.3a1.477,1.477,0,0,0,1.31-1.625Z" transform="translate(-1075.643 -1265.319)" fill="#ffc603"/>
  <path id="Path_1824" data-name="Path 1824" d="M1124.178,1293.552l-.037-.123a3.034,3.034,0,0,0-1.572-1.974,3.782,3.782,0,0,0-3.131.11c-3.9,1.584-6.06,2.512-6.082,2.522a1.483,1.483,0,0,0-.773,1.943,1.467,1.467,0,0,0,1.932.777c.021-.009,2.152-.927,6.023-2.5a2.057,2.057,0,0,1,.725-.185.884.884,0,0,1,.057.15l.037.125a7.656,7.656,0,0,1,.313,1.295c-.024.012-.054.025-.091.04l-17.394,6.737-7.054-3.31a1.469,1.469,0,0,0-1.955.715,1.483,1.483,0,0,0,.711,1.966l7.621,3.577a1.466,1.466,0,0,0,1.151.04l17.978-6.964C1125.337,1297.451,1124.583,1294.915,1124.178,1293.552Z" transform="translate(-1086.886 -1268.939)" fill="#ffc603"/>
  <path id="Path_1825" data-name="Path 1825" d="M1120.5,1259.809a1.465,1.465,0,0,0,2.023-.487,1.484,1.484,0,0,0-.484-2.035c-.081-.05-8.128-5.1-8.131-11.906,0-1.709.52-2.953,1.467-3.5a2.912,2.912,0,0,1,2.866.114,3.087,3.087,0,0,1,1.557,2.739,1.475,1.475,0,0,0,1.471,1.48c.011,0,.021,0,.032,0s.021,0,.031,0a1.475,1.475,0,0,0,1.471-1.48,3.087,3.087,0,0,1,1.557-2.739,2.911,2.911,0,0,1,2.866-.114c.947.55,1.468,1.794,1.467,3.5,0,3.671-2.39,6.838-4.394,8.849a1.486,1.486,0,0,0,0,2.093,1.465,1.465,0,0,0,2.081,0c3.438-3.451,5.256-7.234,5.257-10.942,0-3.793-1.84-5.429-2.937-6.067a5.8,5.8,0,0,0-5.809.114,1.614,1.614,0,0,1-3.177,0,5.8,5.8,0,0,0-5.809-.114c-1.1.637-2.939,2.274-2.937,6.067C1110.972,1253.826,1120.113,1259.569,1120.5,1259.809Z" transform="translate(-1096.12 -1238.591)" fill="#ffc603"/>
</svg>
