<svg id="Connectivity_Independent" data-name="Connectivity Independent" xmlns="http://www.w3.org/2000/svg" width="31.316" height="42.425" viewBox="0 0 31.316 42.425">
  <path id="Path_1806" data-name="Path 1806" d="M325.008,1258.853a10.214,10.214,0,0,0,4.9-1.328,1.62,1.62,0,0,0,.631-2.18,1.569,1.569,0,0,0-2.146-.64,6.84,6.84,0,0,1-4.057.893,2.981,2.981,0,0,1-2.3-1.355l-6.8-12.66c-.894-1.665.506-4.266,3.057-5.68a6.818,6.818,0,0,1,4.056-.893,2.98,2.98,0,0,1,2.3,1.354l3.983,7.416a1.568,1.568,0,0,0,2.146.64,1.62,1.62,0,0,0,.631-2.18l-3.983-7.416c-1.774-3.3-6.451-4.068-10.646-1.742s-6.092,6.736-4.318,10.039l6.8,12.66a6.034,6.034,0,0,0,4.674,3A8.3,8.3,0,0,0,325.008,1258.853Z" transform="translate(-311.801 -1231.739)" fill="#fc7754"/>
  <path id="Path_1807" data-name="Path 1807" d="M356.433,1280.86l-6.8-12.66a6.036,6.036,0,0,0-4.675-3,9.382,9.382,0,0,0-4.314.511,1.585,1.585,0,0,0-.856,2.241l.034.064a1.555,1.555,0,0,0,1.9.718,6.313,6.313,0,0,1,2.836-.347,2.981,2.981,0,0,1,2.3,1.354l6.8,12.66c.894,1.664-.506,4.265-3.057,5.68a6.83,6.83,0,0,1-4.056.894,2.981,2.981,0,0,1-2.3-1.355l-3.983-7.416a1.57,1.57,0,0,0-2.42-.449,1.651,1.651,0,0,0-.336,2.026l3.963,7.379a6.035,6.035,0,0,0,4.675,3,8.3,8.3,0,0,0,1.068.068,10.215,10.215,0,0,0,4.9-1.328C356.31,1288.573,358.207,1284.163,356.433,1280.86Z" transform="translate(-325.78 -1249.803)" fill="#fc7754"/>
</svg>
