<svg id="Low_data_Usage" data-name="Low data Usage" xmlns="http://www.w3.org/2000/svg" width="47.875" height="42.58" viewBox="0 0 47.875 42.58">
  <path id="Path_1676" data-name="Path 1676" d="M648.189,932.908a13.993,13.993,0,0,0-3.748.512v-2.1a1.955,1.955,0,0,0-.03-.307,2.5,2.5,0,0,0,.03-.393c0-4.3-10.442-4.763-14.932-4.763s-14.932.464-14.932,4.763a2.552,2.552,0,0,0,.03.393,1.948,1.948,0,0,0-.03.307v32.354c0,4.3,10.442,4.763,14.932,4.763s14.932-.464,14.932-4.763v-2.262a14,14,0,0,0,3.748.512,14.511,14.511,0,0,0,0-29.019Zm-13.06,8.687a52.491,52.491,0,0,1-5.619.294c-6.181,0-10.071-.925-11.2-1.541V934.08c3.45,1.13,8.447,1.306,11.2,1.306s7.753-.177,11.2-1.306v.988A14.528,14.528,0,0,0,635.129,941.595Zm-16.822,2.78c3.45,1.13,8.447,1.306,11.2,1.306,1.552,0,3.089-.063,4.544-.178a14.83,14.83,0,0,0-.128,1.914,14.642,14.642,0,0,0,1.095,5.57,52.805,52.805,0,0,1-5.511.28c-6.181,0-10.071-.926-11.2-1.541Zm11.2-14.722a40.115,40.115,0,0,1,9.586.97,47.855,47.855,0,0,1-19.172,0A40.12,40.12,0,0,1,629.51,929.653Zm11.2,33.453c-1.132.616-5.022,1.541-11.2,1.541s-10.071-.925-11.2-1.541v-7.352c3.45,1.13,8.447,1.306,11.2,1.306a52.431,52.431,0,0,0,7.6-.515,14.448,14.448,0,0,0,3.6,3.221Zm7.477-4.972a10.718,10.718,0,1,1,10.535-10.716A10.638,10.638,0,0,1,648.189,958.134Z" transform="translate(-614.578 -925.86)" fill="#0092ff"/>
  <path id="Path_1677" data-name="Path 1677" d="M673.961,958.534l-1.622,1.092V950.32a1.575,1.575,0,1,0-3.149,0v9.305l-1.761-1.188a1.56,1.56,0,0,0-2.182.45,1.619,1.619,0,0,0,.443,2.22l4.206,2.836c.033.022.068.039.1.058s.039.024.06.034a1.563,1.563,0,0,0,.307.119l.062.014a1.566,1.566,0,0,0,.338.042h0a1.548,1.548,0,0,0,.347-.043l.05-.011a1.52,1.52,0,0,0,.319-.125c.009,0,.018-.005.027-.01.024-.013.046-.03.069-.044s.037-.02.055-.032l4.066-2.74a1.619,1.619,0,0,0,.443-2.22A1.558,1.558,0,0,0,673.961,958.534Z" transform="translate(-637.083 -934.907)" fill="#0092ff"/>
</svg>
